G04*
G04 #@! TF.GenerationSoftware,Altium Limited,Altium Designer,25.2.1 (25)*
G04*
G04 Layer_Color=128*
%FSLAX44Y44*%
%MOMM*%
G71*
G04*
G04 #@! TF.SameCoordinates,E3D469A8-3601-4E52-BDEA-DD632D880B34*
G04*
G04*
G04 #@! TF.FilePolarity,Positive*
G04*
G01*
G75*
%ADD11C,0.1270*%
D11*
X78105Y577850D02*
X84455D01*
X81280Y574675D02*
Y581025D01*
X103505Y577850D02*
X109855D01*
X106680Y574675D02*
Y581025D01*
X128905Y577850D02*
X135255D01*
X132080Y574675D02*
Y581025D01*
X154305Y577850D02*
X160655D01*
X157480Y574675D02*
Y581025D01*
X179705Y577850D02*
X186055D01*
X182880Y574675D02*
Y581025D01*
X205105Y577850D02*
X211455D01*
X208280Y574675D02*
Y581025D01*
X230505Y577850D02*
X236855D01*
X233680Y574675D02*
Y581025D01*
X255905Y577850D02*
X262255D01*
X259080Y574675D02*
Y581025D01*
X281305Y577850D02*
X287655D01*
X284480Y574675D02*
Y581025D01*
X306705Y577850D02*
X313055D01*
X309880Y574675D02*
Y581025D01*
X332105Y577850D02*
X338455D01*
X335280Y574675D02*
Y581025D01*
X357505Y577850D02*
X363855D01*
X360680Y574675D02*
Y581025D01*
X382905Y577850D02*
X389255D01*
X386080Y574675D02*
Y581025D01*
X408305Y577850D02*
X414655D01*
X411480Y574675D02*
Y581025D01*
X433705Y577850D02*
X440055D01*
X436880Y574675D02*
Y581025D01*
X459105Y577850D02*
X465455D01*
X462280Y574675D02*
Y581025D01*
X484505Y577850D02*
X490855D01*
X487680Y574675D02*
Y581025D01*
X509905Y577850D02*
X516255D01*
X513080Y574675D02*
Y581025D01*
X535305Y577850D02*
X541655D01*
X538480Y574675D02*
Y581025D01*
X560705Y577850D02*
X567055D01*
X563880Y574675D02*
Y581025D01*
X586105Y577850D02*
X592455D01*
X589280Y574675D02*
Y581025D01*
X611505Y577850D02*
X617855D01*
X614680Y574675D02*
Y581025D01*
X636905Y577850D02*
X643255D01*
X640080Y574675D02*
Y581025D01*
X662305Y577850D02*
X668655D01*
X665480Y574675D02*
Y581025D01*
X687705Y577850D02*
X694055D01*
X690880Y574675D02*
Y581025D01*
X713105Y577850D02*
X719455D01*
X716280Y574675D02*
Y581025D01*
X738505Y577850D02*
X744855D01*
X741680Y574675D02*
Y581025D01*
X563626Y797560D02*
X571754D01*
X567690Y793496D02*
Y801624D01*
X589026Y797560D02*
X597154D01*
X593090Y793496D02*
Y801624D01*
X614426Y797560D02*
X622554D01*
X618490Y793496D02*
Y801624D01*
X639826Y797560D02*
X647954D01*
X643890Y793496D02*
Y801624D01*
X530840Y623570D02*
X541040D01*
X535940Y618470D02*
Y628670D01*
X581640Y623570D02*
X591840D01*
X586740Y618470D02*
Y628670D01*
X1198960Y609430D02*
X1208960D01*
X1203960Y604430D02*
Y614430D01*
X1173960Y609430D02*
X1183960D01*
X1178960Y604430D02*
Y614430D01*
X1223960Y609430D02*
X1233960D01*
X1228960Y604430D02*
Y614430D01*
X1248960Y609430D02*
X1258960D01*
X1253960Y604430D02*
Y614430D01*
X1148960Y609430D02*
X1158960D01*
X1153960Y604430D02*
Y614430D01*
X444290Y783590D02*
X459290D01*
X451790Y776090D02*
Y791090D01*
X245940Y783590D02*
X257640D01*
X251790Y777740D02*
Y789440D01*
X1281280Y1145540D02*
X1294280D01*
X1287780Y1139040D02*
Y1152040D01*
X1281280Y1095540D02*
X1294280D01*
X1287780Y1089040D02*
Y1102040D01*
X1281280Y1195540D02*
X1294280D01*
X1287780Y1189040D02*
Y1202040D01*
X131850Y859270D02*
X141750D01*
X136800Y854320D02*
Y864220D01*
X131850Y794270D02*
X141750D01*
X136800Y789320D02*
Y799220D01*
X86850Y859270D02*
X96750D01*
X91800Y854320D02*
Y864220D01*
X86850Y794270D02*
X96750D01*
X91800Y789320D02*
Y799220D01*
X790120Y1094740D02*
X800120D01*
X795120Y1089740D02*
Y1099740D01*
X866120Y1094740D02*
X876120D01*
X871120Y1089740D02*
Y1099740D01*
X1197670Y1193840D02*
X1210870D01*
X1204270Y1187240D02*
Y1200440D01*
X1137820Y1213840D02*
X1150720D01*
X1144270Y1207390D02*
Y1220290D01*
X1077670Y1193840D02*
X1090870D01*
X1084270Y1187240D02*
Y1200440D01*
X1077670Y1071840D02*
X1090870D01*
X1084270Y1065240D02*
Y1078440D01*
X1197670Y1071840D02*
X1210870D01*
X1204270Y1065240D02*
Y1078440D01*
X115420Y1375010D02*
X128420D01*
X121920Y1368510D02*
Y1381510D01*
X115420Y1325010D02*
X128420D01*
X121920Y1318510D02*
Y1331510D01*
X1277470Y898290D02*
X1290470D01*
X1283970Y891790D02*
Y904790D01*
X1277470Y948290D02*
X1290470D01*
X1283970Y941790D02*
Y954790D01*
X111610Y1203560D02*
X124610D01*
X118110Y1197060D02*
Y1210060D01*
X111610Y1153560D02*
X124610D01*
X118110Y1147060D02*
Y1160060D01*
X1277470Y737000D02*
X1290470D01*
X1283970Y730500D02*
Y743500D01*
X1277470Y787000D02*
X1290470D01*
X1283970Y780500D02*
Y793500D01*
X109070Y1032110D02*
X122070D01*
X115570Y1025610D02*
Y1038610D01*
X109070Y982110D02*
X122070D01*
X115570Y975610D02*
Y988610D01*
X130580Y694170D02*
X140480D01*
X135530Y689220D02*
Y699120D01*
X130580Y629170D02*
X140480D01*
X135530Y624220D02*
Y634120D01*
X85580Y694170D02*
X95480D01*
X90530Y689220D02*
Y699120D01*
X85580Y629170D02*
X95480D01*
X90530Y624220D02*
Y634120D01*
X1046290Y1399540D02*
X1054290D01*
X1050290Y1395540D02*
Y1403540D01*
X1046290Y1374140D02*
X1054290D01*
X1050290Y1370140D02*
Y1378140D01*
X1046290Y1348740D02*
X1054290D01*
X1050290Y1344740D02*
Y1352740D01*
X1046290Y1323340D02*
X1054290D01*
X1050290Y1319340D02*
Y1327340D01*
X1282940Y1361440D02*
X1312940D01*
X1297940Y1346440D02*
Y1376440D01*
X1038840Y885190D02*
X1041840D01*
X1040340Y883690D02*
Y886690D01*
X1085620Y894080D02*
X1088620D01*
X1087120Y892580D02*
Y895580D01*
X594130Y767080D02*
X597130D01*
X595630Y765580D02*
Y768580D01*
X611910Y767080D02*
X614910D01*
X613410Y765580D02*
Y768580D01*
X542320Y742690D02*
X545320D01*
X543820Y741190D02*
Y744190D01*
X548410Y639020D02*
X551410D01*
X549910Y637520D02*
Y640520D01*
X283940Y639020D02*
X286940D01*
X285440Y637520D02*
Y640520D01*
X742720Y975360D02*
X745720D01*
X744220Y973860D02*
Y976860D01*
X663780Y1012144D02*
X666780D01*
X665280Y1010645D02*
Y1013644D01*
X667224Y1029404D02*
X670224D01*
X668724Y1027904D02*
Y1030904D01*
X735100Y989330D02*
X738100D01*
X736600Y987830D02*
Y990830D01*
X1074190Y730250D02*
X1077190D01*
X1075690Y728750D02*
Y731750D01*
X555985Y735330D02*
X558985D01*
X557485Y733830D02*
Y736830D01*
X562380Y734060D02*
X565380D01*
X563880Y732560D02*
Y735560D01*
X704620Y784860D02*
X707620D01*
X706120Y783360D02*
Y786360D01*
X1070760Y560450D02*
X1073760D01*
X1072260Y558950D02*
Y561950D01*
X1014500Y858520D02*
X1017500D01*
X1016000Y857020D02*
Y860020D01*
X721130Y919480D02*
X724130D01*
X722630Y917980D02*
Y920980D01*
X714780Y891540D02*
X717780D01*
X716280Y890040D02*
Y893040D01*
X575080Y732790D02*
X578080D01*
X576580Y731290D02*
Y734290D01*
X710550Y909320D02*
X713550D01*
X712050Y907820D02*
Y910820D01*
X521740Y580544D02*
X524740D01*
X523240Y579044D02*
Y582044D01*
X605560Y603035D02*
X608560D01*
X607060Y601535D02*
Y604535D01*
X590320Y599394D02*
X593320D01*
X591820Y597894D02*
Y600894D01*
X517275Y601559D02*
X520275D01*
X518775Y600059D02*
Y603059D01*
X500150Y612140D02*
X503150D01*
X501650Y610640D02*
Y613640D01*
X638580Y618180D02*
X641580D01*
X640080Y616680D02*
Y619680D01*
X784630Y606040D02*
X787630D01*
X786130Y604540D02*
Y607540D01*
X691214Y628960D02*
X694214D01*
X692714Y627460D02*
Y630460D01*
X784630Y617220D02*
X787630D01*
X786130Y615720D02*
Y618720D01*
X669476Y640934D02*
X672476D01*
X670976Y639434D02*
Y642434D01*
X691881Y618380D02*
X694881D01*
X693381Y616880D02*
Y619880D01*
X808850Y603920D02*
X811850D01*
X810350Y602420D02*
Y605420D01*
X796060Y607800D02*
X799060D01*
X797560Y606300D02*
Y609300D01*
X603020Y629710D02*
X606020D01*
X604520Y628210D02*
Y631210D01*
X812570Y764540D02*
X815570D01*
X814070Y763040D02*
Y766040D01*
X785876Y648160D02*
X788876D01*
X787376Y646660D02*
Y649660D01*
X798686Y638278D02*
X801686D01*
X800186Y636778D02*
Y639778D01*
X801540Y644514D02*
X804540D01*
X803040Y643014D02*
Y646014D01*
X807400Y650240D02*
X810400D01*
X808900Y648740D02*
Y651740D01*
X806220Y589280D02*
X809220D01*
X807720Y587780D02*
Y590780D01*
X827710Y594753D02*
X830710D01*
X829210Y593252D02*
Y596253D01*
X756530Y567305D02*
X759530D01*
X758030Y565805D02*
Y568805D01*
X721924Y583990D02*
X724924D01*
X723424Y582490D02*
Y585490D01*
X728444Y584506D02*
X731444D01*
X729944Y583006D02*
Y586006D01*
X866330Y678180D02*
X869330D01*
X867830Y676680D02*
Y679680D01*
X820935Y714102D02*
X823935D01*
X822435Y712602D02*
Y715602D01*
X855330Y684530D02*
X858330D01*
X856830Y683030D02*
Y686030D01*
X865100Y669385D02*
X868100D01*
X866600Y667885D02*
Y670885D01*
X282980Y627380D02*
X285980D01*
X284480Y625880D02*
Y628880D01*
X556030Y646890D02*
X559030D01*
X557530Y645390D02*
Y648390D01*
X684300Y620211D02*
X687300D01*
X685800Y618711D02*
Y621711D01*
X817980Y645217D02*
X820980D01*
X819480Y643717D02*
Y646717D01*
X834220Y594386D02*
X837220D01*
X835720Y592886D02*
Y595886D01*
X866330Y654050D02*
X869330D01*
X867830Y652550D02*
Y655550D01*
X866330Y661670D02*
X869330D01*
X867830Y660170D02*
Y663170D01*
X866330Y601480D02*
X869330D01*
X867830Y599980D02*
Y602980D01*
X182650Y619760D02*
X185650D01*
X184150Y618260D02*
Y621260D01*
X510396Y585834D02*
X513396D01*
X511896Y584334D02*
Y587334D01*
X677950Y617220D02*
X680950D01*
X679450Y615720D02*
Y618720D01*
X881367Y680493D02*
X884367D01*
X882867Y678993D02*
Y681993D01*
X866870Y608136D02*
X869870D01*
X868370Y606636D02*
Y609636D01*
X897660Y695960D02*
X900660D01*
X899160Y694460D02*
Y697460D01*
X494515Y575876D02*
X497515D01*
X496015Y574376D02*
Y577376D01*
X549989Y578398D02*
X552989D01*
X551489Y576898D02*
Y579898D01*
X900880Y692250D02*
X903880D01*
X902380Y690750D02*
Y693750D01*
X909380Y692250D02*
X912380D01*
X910880Y690750D02*
Y693750D01*
X917739Y692250D02*
X920739D01*
X919239Y690750D02*
Y693750D01*
X891559Y691194D02*
X894559D01*
X893059Y689694D02*
Y692694D01*
X420140Y603500D02*
X423140D01*
X421640Y602000D02*
Y605000D01*
X663980Y590855D02*
X666980D01*
X665480Y589355D02*
Y592355D01*
X793310Y708660D02*
X796310D01*
X794810Y707160D02*
Y710160D01*
X793310Y694690D02*
X796310D01*
X794810Y693190D02*
Y696190D01*
X821670Y723900D02*
X824670D01*
X823170Y722400D02*
Y725400D01*
X926380Y691020D02*
X929380D01*
X927880Y689520D02*
Y692520D01*
X926630Y705660D02*
X929630D01*
X928130Y704160D02*
Y707160D01*
X672870Y576580D02*
X675870D01*
X674370Y575080D02*
Y578080D01*
X420140Y588860D02*
X423140D01*
X421640Y587360D02*
Y590360D01*
X602010Y578660D02*
X605010D01*
X603510Y577160D02*
Y580160D01*
X960380Y692960D02*
X963380D01*
X961880Y691460D02*
Y694460D01*
X968880Y692960D02*
X971880D01*
X970380Y691460D02*
Y694460D01*
X977380Y692960D02*
X980380D01*
X978880Y691460D02*
Y694460D01*
X934880Y692960D02*
X937880D01*
X936380Y691460D02*
Y694460D01*
X951880Y692960D02*
X954880D01*
X953380Y691460D02*
Y694460D01*
X943380Y692960D02*
X946380D01*
X944880Y691460D02*
Y694460D01*
X985880Y692960D02*
X988880D01*
X987380Y691460D02*
Y694460D01*
X977670Y715320D02*
X980670D01*
X979170Y713820D02*
Y716820D01*
X958588Y711408D02*
X961588D01*
X960088Y709908D02*
Y712908D01*
X968880Y715320D02*
X971880D01*
X970380Y713820D02*
Y716820D01*
X985290Y715320D02*
X988290D01*
X986790Y713820D02*
Y716820D01*
X735100Y894080D02*
X738100D01*
X736600Y892580D02*
Y895580D01*
X749610Y891540D02*
X756610D01*
X753110Y888040D02*
Y895040D01*
X208050Y562610D02*
X211050D01*
X209550Y561110D02*
Y564110D01*
X1023956Y706267D02*
X1026956D01*
X1025456Y704767D02*
Y707767D01*
X1003070Y716280D02*
X1006070D01*
X1004570Y714780D02*
Y717780D01*
X1004550Y693810D02*
X1007550D01*
X1006050Y692310D02*
Y695310D01*
X992490Y695687D02*
X995490D01*
X993990Y694187D02*
Y697187D01*
X999260Y676400D02*
X1002260D01*
X1000760Y674900D02*
Y677900D01*
X1042900Y626477D02*
X1045900D01*
X1044400Y624977D02*
Y627977D01*
X1029124Y688994D02*
X1032124D01*
X1030624Y687494D02*
Y690494D01*
X1022120Y688340D02*
X1025120D01*
X1023620Y686840D02*
Y689840D01*
X1038840Y681990D02*
X1041840D01*
X1040340Y680490D02*
Y683490D01*
X1004340Y669290D02*
X1007340D01*
X1005840Y667790D02*
Y670790D01*
X1042724Y713456D02*
X1045724D01*
X1044224Y711956D02*
Y714956D01*
X1040320Y700370D02*
X1043320D01*
X1041820Y698870D02*
Y701870D01*
X1023390Y652780D02*
X1026390D01*
X1024890Y651280D02*
Y654280D01*
X1067840Y707390D02*
X1070840D01*
X1069340Y705890D02*
Y708890D01*
X1061490Y643890D02*
X1064490D01*
X1062990Y642390D02*
Y645390D01*
X695730Y778510D02*
X698730D01*
X697230Y777010D02*
Y780010D01*
X766850Y777240D02*
X769850D01*
X768350Y775740D02*
Y778740D01*
X623340Y1234440D02*
X626340D01*
X624840Y1232940D02*
Y1235940D01*
X545870Y933450D02*
X548870D01*
X547370Y931950D02*
Y934950D01*
X628960Y1039710D02*
X635960D01*
X632460Y1036210D02*
Y1043210D01*
X659930Y1090562D02*
X662930D01*
X661430Y1089062D02*
Y1092062D01*
X680671Y1071560D02*
X683671D01*
X682171Y1070060D02*
Y1073060D01*
X649280Y1075690D02*
X656280D01*
X652780Y1072190D02*
Y1079190D01*
X498880Y974090D02*
X501880D01*
X500380Y972590D02*
Y975590D01*
X521740Y920750D02*
X524740D01*
X523240Y919250D02*
Y922250D01*
X528630Y852170D02*
X535630D01*
X532130Y848670D02*
Y855670D01*
X1027200Y600710D02*
X1030200D01*
X1028700Y599210D02*
Y602210D01*
X953540Y801370D02*
X956540D01*
X955040Y799870D02*
Y802870D01*
X909090Y847090D02*
X912090D01*
X910590Y845590D02*
Y848590D01*
X911630Y778510D02*
X914630D01*
X913130Y777010D02*
Y780010D01*
X907820Y911860D02*
X910820D01*
X909320Y910360D02*
Y913360D01*
X563650Y651510D02*
X566650D01*
X565150Y650010D02*
Y653010D01*
X709700Y1065530D02*
X712700D01*
X711200Y1064030D02*
Y1067030D01*
X963700Y1205230D02*
X966700D01*
X965200Y1203730D02*
Y1206730D01*
X610640Y656590D02*
X613640D01*
X612140Y655090D02*
Y658090D01*
X641120Y735330D02*
X644120D01*
X642620Y733830D02*
Y736830D01*
X641120Y694690D02*
X644120D01*
X642620Y693190D02*
Y696190D01*
X196620Y560070D02*
X199620D01*
X198120Y558570D02*
Y561570D01*
X1038630Y927100D02*
X1041630D01*
X1040130Y925600D02*
Y928600D01*
X203510Y774700D02*
X210510D01*
X207010Y771200D02*
Y778200D01*
X466400Y1259840D02*
X473400D01*
X469900Y1256340D02*
Y1263340D01*
X507040Y1258570D02*
X514040D01*
X510540Y1255070D02*
Y1262070D01*
X765850Y1182370D02*
X770850D01*
X768350Y1179870D02*
Y1184870D01*
X573080Y1227750D02*
X580080D01*
X576580Y1224250D02*
Y1231250D01*
X764850Y1305560D02*
X771850D01*
X768350Y1302060D02*
Y1309060D01*
X720130Y1118870D02*
X725130D01*
X722630Y1116370D02*
Y1121370D01*
X717870Y1152170D02*
X722870D01*
X720370Y1149670D02*
Y1154670D01*
X550220Y1433830D02*
X557220D01*
X553720Y1430330D02*
Y1437330D01*
X532440Y1433830D02*
X539440D01*
X535940Y1430330D02*
Y1437330D01*
X514660Y1433830D02*
X521660D01*
X518160Y1430330D02*
Y1437330D01*
X496880Y1433830D02*
X503880D01*
X500380Y1430330D02*
Y1437330D01*
X479100Y1433830D02*
X486100D01*
X482600Y1430330D02*
Y1437330D01*
X463860Y1433830D02*
X470860D01*
X467360Y1430330D02*
Y1437330D01*
X548950Y1450340D02*
X555950D01*
X552450Y1446840D02*
Y1453840D01*
X532440Y1450340D02*
X539440D01*
X535940Y1446840D02*
Y1453840D01*
X514660Y1450340D02*
X521660D01*
X518160Y1446840D02*
Y1453840D01*
X496880Y1450340D02*
X503880D01*
X500380Y1446840D02*
Y1453840D01*
X480370Y1450340D02*
X487370D01*
X483870Y1446840D02*
Y1453840D01*
X465130Y1450340D02*
X472130D01*
X468630Y1446840D02*
Y1453840D01*
X332444Y1185114D02*
X339556D01*
X336000Y1181558D02*
Y1188670D01*
X365530Y1202690D02*
X368530D01*
X367030Y1201190D02*
Y1204190D01*
X508440Y1125220D02*
X511440D01*
X509940Y1123720D02*
Y1126720D01*
X504380Y1004570D02*
X507380D01*
X505880Y1003070D02*
Y1006070D01*
X493800Y993140D02*
X496800D01*
X495300Y991640D02*
Y994640D01*
X479830Y1003300D02*
X482830D01*
X481330Y1001800D02*
Y1004800D01*
X731290Y1051560D02*
X734290D01*
X732790Y1050060D02*
Y1053060D01*
X586510Y1028700D02*
X589510D01*
X588010Y1027200D02*
Y1030200D01*
X577620Y1029970D02*
X580620D01*
X579120Y1028470D02*
Y1031470D01*
X596670Y1031190D02*
X599670D01*
X598170Y1029690D02*
Y1032690D01*
X672870Y1043940D02*
X675870D01*
X674370Y1042440D02*
Y1045440D01*
X577620Y1062990D02*
X580620D01*
X579120Y1061490D02*
Y1064490D01*
X963700Y1179830D02*
X966700D01*
X965200Y1178330D02*
Y1181330D01*
X657390Y1151940D02*
X660390D01*
X658890Y1150440D02*
Y1153440D01*
X665250Y1145540D02*
X668250D01*
X666750Y1144040D02*
Y1147040D01*
X652120Y1171780D02*
X655120D01*
X653620Y1170280D02*
Y1173280D01*
X658900Y1210310D02*
X661900D01*
X660400Y1208810D02*
Y1211810D01*
X593160Y1084580D02*
X596160D01*
X594660Y1083080D02*
Y1086080D01*
X567460Y1084580D02*
X570460D01*
X568960Y1083080D02*
Y1086080D01*
X597940Y1207770D02*
X600940D01*
X599440Y1206270D02*
Y1209270D01*
X586510Y1205230D02*
X589510D01*
X588010Y1203730D02*
Y1206730D01*
X542210Y1090060D02*
X545210D01*
X543710Y1088560D02*
Y1091560D01*
X556030Y1113790D02*
X559030D01*
X557530Y1112290D02*
Y1115290D01*
X540500Y1113790D02*
X543500D01*
X542000Y1112290D02*
Y1115290D01*
X540500Y1121360D02*
X543500D01*
X542000Y1119860D02*
Y1122860D01*
X512850Y1132840D02*
X515850D01*
X514350Y1131340D02*
Y1134340D01*
X541334Y1150182D02*
X544333D01*
X542834Y1148682D02*
Y1151682D01*
X548199Y1140805D02*
X551199D01*
X549699Y1139305D02*
Y1142305D01*
X542380Y1143747D02*
X545380D01*
X543880Y1142247D02*
Y1145247D01*
X544591Y1157013D02*
X547591D01*
X546091Y1155513D02*
Y1158513D01*
X498380Y1150620D02*
X501380D01*
X499880Y1149120D02*
Y1152120D01*
X528090Y1210310D02*
X531090D01*
X529590Y1208810D02*
Y1211810D01*
X476020Y1212850D02*
X479020D01*
X477520Y1211350D02*
Y1214350D01*
X479830Y901700D02*
X482830D01*
X481330Y900200D02*
Y903200D01*
X666790Y797560D02*
X671790D01*
X669290Y795060D02*
Y800060D01*
X559840Y1062990D02*
X562840D01*
X561340Y1061490D02*
Y1064490D01*
X591590Y830580D02*
X594590D01*
X593090Y829080D02*
Y832080D01*
X643660Y824230D02*
X646660D01*
X645160Y822730D02*
Y825730D01*
X695730Y1101090D02*
X698730D01*
X697230Y1099590D02*
Y1102590D01*
X606100Y1066970D02*
X613100D01*
X609600Y1063470D02*
Y1070470D01*
X705270Y695960D02*
X710270D01*
X707770Y693460D02*
Y698460D01*
X189540Y1239520D02*
X196540D01*
X193040Y1236020D02*
Y1243020D01*
X185730Y1065530D02*
X192730D01*
X189230Y1062030D02*
Y1069030D01*
X71430Y628650D02*
X78430D01*
X74930Y625150D02*
Y632150D01*
X257740Y969390D02*
X264740D01*
X261240Y965890D02*
Y972890D01*
X357790Y956970D02*
X364790D01*
X361290Y953470D02*
Y960470D01*
X429290Y956590D02*
X436290D01*
X432790Y953090D02*
Y960090D01*
X447350Y1024890D02*
X454350D01*
X450850Y1021390D02*
Y1028390D01*
X315270Y1024890D02*
X322270D01*
X318770Y1021390D02*
Y1028390D01*
X231830Y1143380D02*
X238830D01*
X235330Y1139880D02*
Y1146880D01*
X310190Y1129030D02*
X317190D01*
X313690Y1125530D02*
Y1132530D01*
X400360Y1215390D02*
X407360D01*
X403860Y1211890D02*
Y1218890D01*
X429570Y1160780D02*
X436570D01*
X433070Y1157280D02*
Y1164280D01*
X512120Y1168400D02*
X519120D01*
X515620Y1164900D02*
Y1171900D01*
X623000Y1117260D02*
X626000D01*
X624500Y1115760D02*
Y1118760D01*
X687850Y1162790D02*
X692850D01*
X690350Y1160290D02*
Y1165290D01*
X721400Y1084580D02*
X726400D01*
X723900Y1082080D02*
Y1087080D01*
X953950Y1055230D02*
X958950D01*
X956450Y1052730D02*
Y1057730D01*
X972860Y1126490D02*
X977860D01*
X975360Y1123990D02*
Y1128990D01*
X1016000Y1070610D02*
X1018540D01*
X1017270Y1069340D02*
Y1071880D01*
X1047750Y1126490D02*
X1050290D01*
X1049020Y1125220D02*
Y1127760D01*
X1026240Y1323340D02*
X1036240D01*
X1031240Y1318340D02*
Y1328340D01*
X956740Y1330350D02*
X959740D01*
X958240Y1328850D02*
Y1331850D01*
X964110Y1304290D02*
X971110D01*
X967610Y1300790D02*
Y1307790D01*
X903280Y1418590D02*
X910280D01*
X906780Y1415090D02*
Y1422090D01*
X767390Y1440180D02*
X774390D01*
X770890Y1436680D02*
Y1443680D01*
X541040Y1314160D02*
X548040D01*
X544540Y1310660D02*
Y1317660D01*
X379040Y1424940D02*
X388040D01*
X383540Y1420440D02*
Y1429440D01*
X317810Y1290320D02*
X324810D01*
X321310Y1286820D02*
Y1293820D01*
X769390Y927100D02*
X772390D01*
X770890Y925600D02*
Y928600D01*
X818190Y1308100D02*
X825190D01*
X821690Y1304600D02*
Y1311600D01*
X138200Y756920D02*
X141200D01*
X139700Y755420D02*
Y758420D01*
X528630Y876300D02*
X535630D01*
X532130Y872800D02*
Y879800D01*
X672870Y908050D02*
X675870D01*
X674370Y906550D02*
Y909550D01*
X602870Y1179830D02*
X605870D01*
X604370Y1178330D02*
Y1181330D01*
X495387Y1187767D02*
X498387D01*
X496888Y1186267D02*
Y1189268D01*
X496340Y1202690D02*
X499340D01*
X497840Y1201190D02*
Y1204190D01*
X517930Y1196340D02*
X520930D01*
X519430Y1194840D02*
Y1197840D01*
X124154Y905510D02*
X125404D01*
X124779Y904885D02*
Y906135D01*
X550950Y1202690D02*
X553950D01*
X552450Y1201190D02*
Y1204190D01*
X495070Y1159510D02*
X498070D01*
X496570Y1158010D02*
Y1161010D01*
X353030Y1223210D02*
X356030D01*
X354530Y1221710D02*
Y1224710D01*
M02*
