G04*
G04 #@! TF.GenerationSoftware,Altium Limited,Altium Designer,25.2.1 (25)*
G04*
G04 Layer_Color=16711935*
%FSLAX44Y44*%
%MOMM*%
G71*
G04*
G04 #@! TF.SameCoordinates,E3D469A8-3601-4E52-BDEA-DD632D880B34*
G04*
G04*
G04 #@! TF.FilePolarity,Negative*
G04*
G01*
G75*
%ADD87R,1.1882X1.1882*%
%ADD88C,1.1882*%
%ADD89C,1.3660*%
%ADD90R,1.3660X1.3660*%
%ADD91R,1.5732X1.5732*%
%ADD92C,1.5732*%
%ADD93C,1.7112*%
%ADD94R,1.7112X1.7112*%
%ADD95C,2.4532*%
%ADD96C,1.9582*%
%ADD97C,2.1532*%
G04:AMPARAMS|DCode=98|XSize=2.1532mm|YSize=2.1532mm|CornerRadius=0.5891mm|HoleSize=0mm|Usage=FLASHONLY|Rotation=90.000|XOffset=0mm|YOffset=0mm|HoleType=Round|Shape=RoundedRectangle|*
%AMROUNDEDRECTD98*
21,1,2.1532,0.9750,0,0,90.0*
21,1,0.9750,2.1532,0,0,90.0*
1,1,1.1782,0.4875,0.4875*
1,1,1.1782,0.4875,-0.4875*
1,1,1.1782,-0.4875,-0.4875*
1,1,1.1782,-0.4875,0.4875*
%
%ADD98ROUNDEDRECTD98*%
%ADD99R,1.7012X1.7012*%
%ADD100C,1.7012*%
%ADD101R,2.7032X2.7032*%
%ADD102C,2.7032*%
%ADD103R,2.1832X2.1832*%
%ADD104C,2.1382*%
%ADD105C,2.1832*%
%ADD106C,1.5112*%
%ADD107C,3.2032*%
%ADD108C,0.7032*%
%ADD109C,1.1032*%
%ADD110C,1.2032*%
%ADD111C,0.9032*%
%ADD112C,1.4732*%
%ADD113C,0.5032*%
%ADD114C,1.7032*%
%ADD115C,0.4572*%
D87*
X81280Y577850D02*
D03*
D88*
X106680D02*
D03*
X132080D02*
D03*
X157480D02*
D03*
X182880D02*
D03*
X208280D02*
D03*
X233680D02*
D03*
X259080D02*
D03*
X284480D02*
D03*
X309880D02*
D03*
X335280D02*
D03*
X360680D02*
D03*
X386080D02*
D03*
X411480D02*
D03*
X436880D02*
D03*
X462280D02*
D03*
X487680D02*
D03*
X513080D02*
D03*
X538480D02*
D03*
X563880D02*
D03*
X589280D02*
D03*
X614680D02*
D03*
X640080D02*
D03*
X665480D02*
D03*
X690880D02*
D03*
X716280D02*
D03*
X741680D02*
D03*
D89*
X567690Y797560D02*
D03*
X593090D02*
D03*
X618490D02*
D03*
D90*
X643890D02*
D03*
D91*
X535940Y623570D02*
D03*
D92*
X586740D02*
D03*
D93*
X1203960Y609430D02*
D03*
X1178960D02*
D03*
X1228960D02*
D03*
X1153960D02*
D03*
D94*
X1253960D02*
D03*
D95*
X451790Y783590D02*
D03*
D96*
X251790D02*
D03*
D97*
X1287780Y1145540D02*
D03*
Y1195540D02*
D03*
X121920Y1325010D02*
D03*
X1283970Y948290D02*
D03*
X118110Y1153560D02*
D03*
X1283970Y787000D02*
D03*
X115570Y982110D02*
D03*
D98*
X1287780Y1095540D02*
D03*
X121920Y1375010D02*
D03*
X1283970Y898290D02*
D03*
X118110Y1203560D02*
D03*
X1283970Y737000D02*
D03*
X115570Y1032110D02*
D03*
D99*
X136800Y859270D02*
D03*
X135530Y694170D02*
D03*
D100*
X136800Y794270D02*
D03*
X91800Y859270D02*
D03*
Y794270D02*
D03*
X135530Y629170D02*
D03*
X90530Y694170D02*
D03*
Y629170D02*
D03*
D101*
X795120Y1094740D02*
D03*
D102*
X871120D02*
D03*
D103*
X1204270Y1193840D02*
D03*
D104*
X1144270Y1213840D02*
D03*
D105*
X1084270Y1193840D02*
D03*
Y1071840D02*
D03*
X1204270D02*
D03*
D106*
X1050290Y1399540D02*
D03*
Y1374140D02*
D03*
Y1348740D02*
D03*
Y1323340D02*
D03*
D107*
X1297940Y1361440D02*
D03*
D108*
X1040340Y885190D02*
D03*
X1087120Y894080D02*
D03*
X595630Y767080D02*
D03*
X613410D02*
D03*
X543820Y742690D02*
D03*
X549910Y639020D02*
D03*
X285440D02*
D03*
X744220Y975360D02*
D03*
X665280Y1012144D02*
D03*
X668724Y1029404D02*
D03*
X736600Y989330D02*
D03*
X1075690Y730250D02*
D03*
X557485Y735330D02*
D03*
X563880Y734060D02*
D03*
X706120Y784860D02*
D03*
X1072260Y560450D02*
D03*
X1016000Y858520D02*
D03*
X722630Y919480D02*
D03*
X716280Y891540D02*
D03*
X576580Y732790D02*
D03*
X712050Y909320D02*
D03*
X523240Y580544D02*
D03*
X607060Y603035D02*
D03*
X591820Y599394D02*
D03*
X518775Y601559D02*
D03*
X501650Y612140D02*
D03*
X640080Y618180D02*
D03*
X786130Y606040D02*
D03*
X692714Y628960D02*
D03*
X786130Y617220D02*
D03*
X670976Y640934D02*
D03*
X693381Y618380D02*
D03*
X810350Y603920D02*
D03*
X797560Y607800D02*
D03*
X604520Y629710D02*
D03*
X814070Y764540D02*
D03*
X787376Y648160D02*
D03*
X800186Y638278D02*
D03*
X803040Y644514D02*
D03*
X808900Y650240D02*
D03*
X807720Y589280D02*
D03*
X829210Y594753D02*
D03*
X758030Y567305D02*
D03*
X723424Y583990D02*
D03*
X729944Y584506D02*
D03*
X867830Y678180D02*
D03*
X822435Y714102D02*
D03*
X856830Y684530D02*
D03*
X866600Y669385D02*
D03*
X284480Y627380D02*
D03*
X557530Y646890D02*
D03*
X685800Y620211D02*
D03*
X819480Y645217D02*
D03*
X835720Y594386D02*
D03*
X867830Y654050D02*
D03*
Y661670D02*
D03*
Y601480D02*
D03*
X184150Y619760D02*
D03*
X511896Y585834D02*
D03*
X679450Y617220D02*
D03*
X882867Y680493D02*
D03*
X868370Y608136D02*
D03*
X899160Y695960D02*
D03*
X496015Y575876D02*
D03*
X551489Y578398D02*
D03*
X902380Y692250D02*
D03*
X910880D02*
D03*
X919239D02*
D03*
X893059Y691194D02*
D03*
X421640Y603500D02*
D03*
X665480Y590855D02*
D03*
X794810Y708660D02*
D03*
Y694690D02*
D03*
X823170Y723900D02*
D03*
X927880Y691020D02*
D03*
X928130Y705660D02*
D03*
X674370Y576580D02*
D03*
X421640Y588860D02*
D03*
X603510Y578660D02*
D03*
X961880Y692960D02*
D03*
X970380D02*
D03*
X978880D02*
D03*
X936380D02*
D03*
X953380D02*
D03*
X944880D02*
D03*
X987380D02*
D03*
X979170Y715320D02*
D03*
X960088Y711408D02*
D03*
X970380Y715320D02*
D03*
X986790D02*
D03*
X736600Y894080D02*
D03*
X209550Y562610D02*
D03*
X1025456Y706267D02*
D03*
X1004570Y716280D02*
D03*
X1006050Y693810D02*
D03*
X993990Y695687D02*
D03*
X1000760Y676400D02*
D03*
X1044400Y626477D02*
D03*
X1030624Y688994D02*
D03*
X1023620Y688340D02*
D03*
X1040340Y681990D02*
D03*
X1005840Y669290D02*
D03*
X1044224Y713456D02*
D03*
X1041820Y700370D02*
D03*
X1024890Y652780D02*
D03*
X1069340Y707390D02*
D03*
X1062990Y643890D02*
D03*
X697230Y778510D02*
D03*
X768350Y777240D02*
D03*
X624840Y1234440D02*
D03*
X547370Y933450D02*
D03*
X661430Y1090562D02*
D03*
X682171Y1071560D02*
D03*
X500380Y974090D02*
D03*
X523240Y920750D02*
D03*
X1028700Y600710D02*
D03*
X955040Y801370D02*
D03*
X910590Y847090D02*
D03*
X913130Y778510D02*
D03*
X909320Y911860D02*
D03*
X565150Y651510D02*
D03*
X711200Y1065530D02*
D03*
X965200Y1205230D02*
D03*
X612140Y656590D02*
D03*
X642620Y735330D02*
D03*
Y694690D02*
D03*
X198120Y560070D02*
D03*
X1040130Y927100D02*
D03*
X367030Y1202690D02*
D03*
X509940Y1125220D02*
D03*
X505880Y1004570D02*
D03*
X495300Y993140D02*
D03*
X481330Y1003300D02*
D03*
X732790Y1051560D02*
D03*
X588010Y1028700D02*
D03*
X579120Y1029970D02*
D03*
X598170Y1031190D02*
D03*
X674370Y1043940D02*
D03*
X579120Y1062990D02*
D03*
X965200Y1179830D02*
D03*
X658890Y1151940D02*
D03*
X666750Y1145540D02*
D03*
X653620Y1171780D02*
D03*
X660400Y1210310D02*
D03*
X594660Y1084580D02*
D03*
X568960D02*
D03*
X599440Y1207770D02*
D03*
X588010Y1205230D02*
D03*
X543710Y1090060D02*
D03*
X557530Y1113790D02*
D03*
X542000D02*
D03*
Y1121360D02*
D03*
X514350Y1132840D02*
D03*
X542834Y1150182D02*
D03*
X549699Y1140805D02*
D03*
X543880Y1143747D02*
D03*
X546091Y1157013D02*
D03*
X499880Y1150620D02*
D03*
X529590Y1210310D02*
D03*
X477520Y1212850D02*
D03*
X481330Y901700D02*
D03*
X561340Y1062990D02*
D03*
X593090Y830580D02*
D03*
X645160Y824230D02*
D03*
X624500Y1117260D02*
D03*
X1017270Y1070610D02*
D03*
X1049020Y1126490D02*
D03*
X958240Y1330350D02*
D03*
X770890Y927100D02*
D03*
X139700Y756920D02*
D03*
X674370Y908050D02*
D03*
X604370Y1179830D02*
D03*
X496888Y1187767D02*
D03*
X497840Y1202690D02*
D03*
X519430Y1196340D02*
D03*
X552450Y1202690D02*
D03*
X496570Y1159510D02*
D03*
X354530Y1223210D02*
D03*
D109*
X753110Y891540D02*
D03*
X632460Y1039710D02*
D03*
X652780Y1075690D02*
D03*
X821690Y1308100D02*
D03*
D110*
X532130Y852170D02*
D03*
X207010Y774700D02*
D03*
X469900Y1259840D02*
D03*
X510540Y1258570D02*
D03*
X576580Y1227750D02*
D03*
X768350Y1305560D02*
D03*
X553720Y1433830D02*
D03*
X535940D02*
D03*
X518160D02*
D03*
X500380D02*
D03*
X482600D02*
D03*
X467360D02*
D03*
X552450Y1450340D02*
D03*
X535940D02*
D03*
X518160D02*
D03*
X500380D02*
D03*
X483870D02*
D03*
X468630D02*
D03*
X609600Y1066970D02*
D03*
X193040Y1239520D02*
D03*
X189230Y1065530D02*
D03*
X74930Y628650D02*
D03*
X261240Y969390D02*
D03*
X361290Y956970D02*
D03*
X432790Y956590D02*
D03*
X450850Y1024890D02*
D03*
X318770D02*
D03*
X235330Y1143380D02*
D03*
X313690Y1129030D02*
D03*
X403860Y1215390D02*
D03*
X433070Y1160780D02*
D03*
X515620Y1168400D02*
D03*
X967610Y1304290D02*
D03*
X906780Y1418590D02*
D03*
X770890Y1440180D02*
D03*
X544540Y1314160D02*
D03*
X321310Y1290320D02*
D03*
X532130Y876300D02*
D03*
D111*
X768350Y1182370D02*
D03*
X722630Y1118870D02*
D03*
X720370Y1152170D02*
D03*
X669290Y797560D02*
D03*
X707770Y695960D02*
D03*
X690350Y1162790D02*
D03*
X723900Y1084580D02*
D03*
X956450Y1055230D02*
D03*
X975360Y1126490D02*
D03*
D112*
X336000Y1185114D02*
D03*
D113*
X697230Y1101090D02*
D03*
D114*
X1031240Y1323340D02*
D03*
X383540Y1424940D02*
D03*
D115*
X124779Y905510D02*
D03*
M02*
