M48
;Layer_Color=9474304
;FILE_FORMAT=4:4
METRIC,LZ
;TYPE=PLATED
T01F00S00C0.1250
T02F00S00C0.2540
T03F00S00C0.3000
T04F00S00C0.5000
T05F00S00C0.6350
T06F00S00C0.7000
T07F00S00C0.7112
T08F00S00C0.8000
T09F00S00C0.8128
T10F00S00C0.9000
T11F00S00C0.9900
T12F00S00C1.0000
T13F00S00C1.0200
T14F00S00C1.1700
T15F00S00C1.2900
T16F00S00C1.3000
T17F00S00C1.3200
T18F00S00C1.5000
;TYPE=NON_PLATED
T19F00S00C3.0000
%
T01
X00124779Y0090551
T02
X0101727Y0107061
X0104902Y0112649
T03
X0080772Y0058928
X0081035Y0060392
X0079756Y006078
X00800186Y00638278
X0080304Y00644514
X008089Y0065024
X0081948Y00645217
X0086783Y0065405
Y0066167
X008666Y00669385
X0086783Y0067818
X00882867Y00680493
X00893059Y00691194
X0090238Y0069225
X0089916Y0069596
X0091088Y0069225
X00919239
X0092788Y0069102
X0093638Y0069296
X0094488
X0095338
X0096188
X0097038
X0097888
X0098738
X0099399Y00695687
X0100605Y0069381
X0100076Y006764
X0100584Y0066929
X0102489Y0065278
X0102362Y0068834
X01030624Y00688994
X0104034Y0068199
X0104182Y0070037
X01044224Y00713456
X01025456Y00706267
X0100457Y0071628
X0098679Y0071532
X0097917
X0097038
X00960088Y00711408
X0092813Y0070566
X0091313Y0077851
X0081407Y0076454
X0082317Y007239
X00822435Y00714102
X0079481Y0070866
Y0069469
X0085683Y0068453
X0086837Y00608136
X0086783Y0060148
X0083572Y00594386
X0082921Y00594753
X010287Y0060071
X010444Y00626477
X0106299Y0064389
X0106934Y0070739
X0107569Y0073025
X0107226Y0056045
X0075803Y00567305
X00729944Y00584506
X00723424Y0058399
X0067437Y0057658
X0066548Y00590855
X0067945Y0061722
X006858Y00620211
X00693381Y0061838
X00692714Y0062896
X00670976Y00640934
X0064008Y0061818
X0060452Y0062971
X0060706Y00603035
X0059182Y00599394
X0060351Y0057866
X00551489Y00578398
X0052324Y00580544
X00511896Y00585834
X00518775Y00601559
X0050165Y0061214
X00496015Y00575876
X0042164Y0058886
Y006035
X0054991Y0063902
X0055753Y0064689
X0056515Y0065151
X0061214Y0065659
X0064262Y0069469
Y0073533
X0061341Y0076708
X0059563
X0057658Y0073279
X0056388Y0073406
X00557485Y0073533
X0054382Y0074269
X0069723Y0077851
X0070612Y0078486
X0076835Y0077724
X00787376Y0064816
X0078613Y0061722
Y0060604
X0028448Y0062738
X0028544Y0063902
X0018415Y0061976
X0019812Y0056007
X0020955Y0056261
X001397Y0075692
X0048133Y009017
X0052324Y0092075
X0054737Y0093345
X0050038Y0097409
X004953Y0099314
X0050588Y0100457
X0048133Y010033
X0057912Y0102997
X0058801Y010287
X0059817Y0103119
X0057912Y0106299
X0056134
X0056896Y0108458
X0059466
X0054371Y0109006
X00542Y0111379
Y0112136
X0055753Y0111379
X00549699Y01140805
X0054388Y01143747
X00542834Y01150182
X00546091Y01157013
X0049657Y0115951
X0049988Y0115062
X0051435Y0113284
X0050994Y0112522
X00496888Y01187767
X0060437Y0117983
X0065362Y0117178
X0065889Y0115194
X0066675Y0114554
X0066143Y01090562
X00682171Y0107156
X007112Y0106553
X0073279Y0105156
X007366Y0098933
X0074422Y0097536
X0077089Y009271
X0072263Y0091948
X0071205Y0090932
X0071628Y0089154
X007366Y0089408
X0067437Y0090805
X0064516Y0082423
X0059309Y0083058
X0066528Y01012144
X00668724Y01029404
X0067437Y0104394
X0069723Y0110109
X006245Y0111726
X009652Y0117983
X0090932Y0091186
X0091059Y0084709
X0095504Y0080137
X01016Y0085852
X0104034Y0088519
X0104013Y009271
X0108712Y0089408
X009652Y0120523
X0095824Y0133035
X006604Y0121031
X0062484Y0123444
X0059944Y0120777
X0058801Y0120523
X0055245Y0120269
X0052959Y0121031
X0051943Y0119634
X0049784Y0120269
X0047752Y0121285
X0036703Y0120269
X0035453Y0122321
T04
X0070777Y0069596
X0066929Y0079756
X007239Y0108458
X0072263Y0111887
X0072037Y0115217
X0069035Y0116279
X0076835Y0118237
X0097536Y0112649
X0095645Y0105523
T05
X0041148Y0057785
X0043688
X0046228
X0048768
X0051308
X0053848
X0056388
X0058928
X0061468
X0064008
X0066548
X0069088
X0071628
X0074168
X0038608
X0036068
X0033528
X0030988
X0028448
X0025908
X0023368
X0020828
X0018288
X0015748
X0013208
X0010668
X0008128
T06
X0007493Y0062865
X0020701Y007747
X0026124Y0096939
X0036129Y0095697
X0031877Y0102489
X0031369Y0112903
X0023533Y0114338
X0018923Y0106553
X0045085Y0102489
X0043279Y0095659
X0053213Y008763
Y0085217
X0075311Y0089154
X0063246Y0103971
X006096Y0106697
X0065278Y0107569
X0051562Y011684
X0043307Y0116078
X0082169Y013081
X0096761Y0130429
X0090678Y0141859
X0077089Y0144018
X0076835Y0130556
X0054454Y0131416
X0051054Y0125857
X004699Y0125984
X0040386Y0121539
X0057658Y0122775
X0055372Y0143383
X0053594
Y0145034
X0055245
X0051816
Y0143383
X0050038
Y0145034
X0048387
X0046863
X0046736Y0143383
X004826
X0032131Y0129032
X0019304Y0123952
T07
X00336Y01185114
T08
X0105029Y0132334
Y0134874
Y0137414
Y0139954
T09
X0056769Y0079756
X0059309
X0061849
X0064389
T10
X0038354Y0142494
T11
X0009053Y0062917
X0013553
Y0069417
X0009053
X000918Y0079427
X001368
Y0085927
X000918
T12
X0120396Y0060943
X0122896
X0125396
X0117896
X0115396
X0087112Y0109474
X0079512
X0103124Y0132334
T13
X0053594Y0062357
X0058674
T14
X0025179Y0078359
T15
X0114427Y0121384
T16
X0128397Y00737
Y00787
X0011557Y0098211
Y0103211
X0011811Y0115356
X0128778Y0114554
Y0109554
X0128397Y0094829
Y0089829
X0128778Y0119554
X0011811Y0120356
X0012192Y0132501
Y0137501
T17
X0108427Y0107184
X0120427
Y0119384
X0108427
T18
X0045179Y0078359
T19
X0129794Y0136144
M30
