G04*
G04 #@! TF.GenerationSoftware,Altium Limited,Altium Designer,25.2.1 (25)*
G04*
G04 Layer_Color=8388736*
%FSLAX44Y44*%
%MOMM*%
G71*
G04*
G04 #@! TF.SameCoordinates,E3D469A8-3601-4E52-BDEA-DD632D880B34*
G04*
G04*
G04 #@! TF.FilePolarity,Negative*
G04*
G01*
G75*
%ADD52R,1.4032X1.4032*%
%ADD53R,0.6032X1.0032*%
%ADD54R,1.0032X0.6032*%
%ADD55R,1.0032X1.0032*%
%ADD56R,0.9032X1.1032*%
%ADD57R,1.5532X1.3532*%
%ADD58R,1.8032X3.0032*%
%ADD59R,1.5032X1.6032*%
G04:AMPARAMS|DCode=60|XSize=1.6132mm|YSize=1.6732mm|CornerRadius=0.2778mm|HoleSize=0mm|Usage=FLASHONLY|Rotation=0.000|XOffset=0mm|YOffset=0mm|HoleType=Round|Shape=RoundedRectangle|*
%AMROUNDEDRECTD60*
21,1,1.6132,1.1175,0,0,0.0*
21,1,1.0575,1.6732,0,0,0.0*
1,1,0.5557,0.5288,-0.5587*
1,1,0.5557,-0.5288,-0.5587*
1,1,0.5557,-0.5288,0.5587*
1,1,0.5557,0.5288,0.5587*
%
%ADD60ROUNDEDRECTD60*%
%ADD61R,1.3532X1.5532*%
G04:AMPARAMS|DCode=62|XSize=1.7732mm|YSize=0.6132mm|CornerRadius=0.1529mm|HoleSize=0mm|Usage=FLASHONLY|Rotation=270.000|XOffset=0mm|YOffset=0mm|HoleType=Round|Shape=RoundedRectangle|*
%AMROUNDEDRECTD62*
21,1,1.7732,0.3075,0,0,270.0*
21,1,1.4675,0.6132,0,0,270.0*
1,1,0.3057,-0.1538,-0.7338*
1,1,0.3057,-0.1538,0.7338*
1,1,0.3057,0.1538,0.7338*
1,1,0.3057,0.1538,-0.7338*
%
%ADD62ROUNDEDRECTD62*%
%ADD63R,11.0432X8.0832*%
%ADD64R,1.1932X3.9932*%
%ADD65R,1.8032X2.6032*%
%ADD66R,2.4032X0.8032*%
%ADD67R,1.6032X1.5032*%
G04:AMPARAMS|DCode=68|XSize=0.4832mm|YSize=1.7632mm|CornerRadius=0.1716mm|HoleSize=0mm|Usage=FLASHONLY|Rotation=90.000|XOffset=0mm|YOffset=0mm|HoleType=Round|Shape=RoundedRectangle|*
%AMROUNDEDRECTD68*
21,1,0.4832,1.4200,0,0,90.0*
21,1,0.1400,1.7632,0,0,90.0*
1,1,0.3432,0.7100,0.0700*
1,1,0.3432,0.7100,-0.0700*
1,1,0.3432,-0.7100,-0.0700*
1,1,0.3432,-0.7100,0.0700*
%
%ADD68ROUNDEDRECTD68*%
G04:AMPARAMS|DCode=69|XSize=0.4832mm|YSize=1.7632mm|CornerRadius=0.1716mm|HoleSize=0mm|Usage=FLASHONLY|Rotation=0.000|XOffset=0mm|YOffset=0mm|HoleType=Round|Shape=RoundedRectangle|*
%AMROUNDEDRECTD69*
21,1,0.4832,1.4200,0,0,0.0*
21,1,0.1400,1.7632,0,0,0.0*
1,1,0.3432,0.0700,-0.7100*
1,1,0.3432,-0.0700,-0.7100*
1,1,0.3432,-0.0700,0.7100*
1,1,0.3432,0.0700,0.7100*
%
%ADD69ROUNDEDRECTD69*%
G04:AMPARAMS|DCode=70|XSize=1.5132mm|YSize=1.1332mm|CornerRadius=0.1714mm|HoleSize=0mm|Usage=FLASHONLY|Rotation=270.000|XOffset=0mm|YOffset=0mm|HoleType=Round|Shape=RoundedRectangle|*
%AMROUNDEDRECTD70*
21,1,1.5132,0.7905,0,0,270.0*
21,1,1.1705,1.1332,0,0,270.0*
1,1,0.3427,-0.3953,-0.5853*
1,1,0.3427,-0.3953,0.5853*
1,1,0.3427,0.3953,0.5853*
1,1,0.3427,0.3953,-0.5853*
%
%ADD70ROUNDEDRECTD70*%
G04:AMPARAMS|DCode=71|XSize=1.5132mm|YSize=3.4432mm|CornerRadius=0.1999mm|HoleSize=0mm|Usage=FLASHONLY|Rotation=270.000|XOffset=0mm|YOffset=0mm|HoleType=Round|Shape=RoundedRectangle|*
%AMROUNDEDRECTD71*
21,1,1.5132,3.0435,0,0,270.0*
21,1,1.1135,3.4432,0,0,270.0*
1,1,0.3997,-1.5218,-0.5568*
1,1,0.3997,-1.5218,0.5568*
1,1,0.3997,1.5218,0.5568*
1,1,0.3997,1.5218,-0.5568*
%
%ADD71ROUNDEDRECTD71*%
%ADD72R,2.0032X1.5032*%
%ADD73R,2.3232X2.4832*%
%ADD74R,1.5032X2.0032*%
%ADD75R,2.6032X2.2032*%
%ADD76R,0.9532X1.6032*%
%ADD77R,0.9932X0.4832*%
%ADD78R,0.4832X0.9932*%
%ADD79R,1.4032X1.1032*%
%ADD80R,1.2832X1.2932*%
%ADD81R,1.4032X1.4032*%
%ADD82R,5.6032X3.1032*%
%ADD83R,5.8166X2.5146*%
%ADD84R,2.2032X4.2032*%
G04:AMPARAMS|DCode=85|XSize=1.6132mm|YSize=1.6732mm|CornerRadius=0.2778mm|HoleSize=0mm|Usage=FLASHONLY|Rotation=90.000|XOffset=0mm|YOffset=0mm|HoleType=Round|Shape=RoundedRectangle|*
%AMROUNDEDRECTD85*
21,1,1.6132,1.1175,0,0,90.0*
21,1,1.0575,1.6732,0,0,90.0*
1,1,0.5557,0.5587,0.5288*
1,1,0.5557,0.5587,-0.5288*
1,1,0.5557,-0.5587,-0.5288*
1,1,0.5557,-0.5587,0.5288*
%
%ADD85ROUNDEDRECTD85*%
%ADD86R,1.1032X0.9032*%
%ADD87R,1.1882X1.1882*%
%ADD88C,1.1882*%
%ADD89C,1.3660*%
%ADD90R,1.3660X1.3660*%
%ADD91R,1.5732X1.5732*%
%ADD92C,1.5732*%
%ADD93C,1.7112*%
%ADD94R,1.7112X1.7112*%
%ADD95C,2.4532*%
%ADD96C,1.9582*%
%ADD97C,2.1532*%
G04:AMPARAMS|DCode=98|XSize=2.1532mm|YSize=2.1532mm|CornerRadius=0.5891mm|HoleSize=0mm|Usage=FLASHONLY|Rotation=90.000|XOffset=0mm|YOffset=0mm|HoleType=Round|Shape=RoundedRectangle|*
%AMROUNDEDRECTD98*
21,1,2.1532,0.9750,0,0,90.0*
21,1,0.9750,2.1532,0,0,90.0*
1,1,1.1782,0.4875,0.4875*
1,1,1.1782,0.4875,-0.4875*
1,1,1.1782,-0.4875,-0.4875*
1,1,1.1782,-0.4875,0.4875*
%
%ADD98ROUNDEDRECTD98*%
%ADD99R,1.7012X1.7012*%
%ADD100C,1.7012*%
%ADD101R,2.7032X2.7032*%
%ADD102C,2.7032*%
%ADD103R,2.1832X2.1832*%
%ADD104C,2.1382*%
%ADD105C,2.1832*%
%ADD106C,1.5112*%
%ADD107C,3.2032*%
%ADD108C,0.7032*%
%ADD109C,1.1032*%
%ADD110C,1.2032*%
%ADD111C,0.9032*%
%ADD112C,1.4732*%
%ADD113C,0.5032*%
%ADD114C,1.7032*%
%ADD115C,0.4572*%
G36*
X954380Y608980D02*
X968380D01*
Y601480D01*
X961880Y594980D01*
X954380D01*
Y608980D01*
D02*
G37*
D52*
X961380Y618480D02*
D03*
Y634980D02*
D03*
X944880D02*
D03*
X928380D02*
D03*
Y618480D02*
D03*
Y601980D02*
D03*
X944880D02*
D03*
Y618480D02*
D03*
X1034110Y1192530D02*
D03*
X846480Y1201420D02*
D03*
D53*
X1004380Y548480D02*
D03*
X995880D02*
D03*
X987380D02*
D03*
X978880D02*
D03*
X970380D02*
D03*
X961880D02*
D03*
X953380D02*
D03*
X944880D02*
D03*
X936380D02*
D03*
X927880D02*
D03*
X919380D02*
D03*
X910880D02*
D03*
X902380D02*
D03*
X893880D02*
D03*
X885380D02*
D03*
Y688480D02*
D03*
X893880D02*
D03*
X902380D02*
D03*
X910880D02*
D03*
X919380D02*
D03*
X927880D02*
D03*
X936380D02*
D03*
X944880D02*
D03*
X953380D02*
D03*
X961880D02*
D03*
X970380D02*
D03*
X978880D02*
D03*
X987380D02*
D03*
X995880D02*
D03*
X1004380D02*
D03*
D54*
X874880Y558980D02*
D03*
Y567480D02*
D03*
Y575980D02*
D03*
Y584480D02*
D03*
Y592980D02*
D03*
Y601480D02*
D03*
Y609980D02*
D03*
Y618480D02*
D03*
Y626980D02*
D03*
Y635480D02*
D03*
Y643980D02*
D03*
Y652480D02*
D03*
Y660980D02*
D03*
Y669480D02*
D03*
Y677980D02*
D03*
X1014880D02*
D03*
Y669480D02*
D03*
Y660980D02*
D03*
Y652480D02*
D03*
Y643980D02*
D03*
Y635480D02*
D03*
Y626980D02*
D03*
Y618480D02*
D03*
Y609980D02*
D03*
Y601480D02*
D03*
Y592980D02*
D03*
Y584480D02*
D03*
Y575980D02*
D03*
Y567480D02*
D03*
Y558980D02*
D03*
D55*
X874880Y688480D02*
D03*
Y548480D02*
D03*
X1014880Y688480D02*
D03*
Y548480D02*
D03*
D56*
X915670Y882040D02*
D03*
X909170Y901040D02*
D03*
X922170D02*
D03*
X919480Y748690D02*
D03*
X912980Y767690D02*
D03*
X925980D02*
D03*
X916940Y818540D02*
D03*
X910440Y837540D02*
D03*
X923440D02*
D03*
X1035200Y1145490D02*
D03*
X1041700Y1126490D02*
D03*
X1028700D02*
D03*
X1004570Y1090270D02*
D03*
X1011070Y1071270D02*
D03*
X998070D02*
D03*
X943610Y1349350D02*
D03*
X950110Y1330350D02*
D03*
X937110D02*
D03*
D57*
X885190Y900290D02*
D03*
Y882790D02*
D03*
X886460Y836790D02*
D03*
Y819290D02*
D03*
Y767080D02*
D03*
Y749580D02*
D03*
X1036320Y1073430D02*
D03*
Y1090930D02*
D03*
X605790Y1238250D02*
D03*
Y1220750D02*
D03*
X1024890Y1374280D02*
D03*
Y1391780D02*
D03*
X250190Y1144130D02*
D03*
Y1126630D02*
D03*
X248920Y970140D02*
D03*
Y952640D02*
D03*
X532130Y909180D02*
D03*
Y891680D02*
D03*
D58*
X753110Y700950D02*
D03*
Y657950D02*
D03*
D59*
X686560Y695960D02*
D03*
X670560D02*
D03*
X686180Y657860D02*
D03*
X670180D02*
D03*
X1056260Y575310D02*
D03*
X1072260D02*
D03*
X1056260Y613410D02*
D03*
X1072260D02*
D03*
X390270Y1215390D02*
D03*
X374270D02*
D03*
X423290Y1160780D02*
D03*
X407290D02*
D03*
X783210Y1305560D02*
D03*
X799210D02*
D03*
X883030Y1388110D02*
D03*
X867030D02*
D03*
D60*
X1201660Y939800D02*
D03*
Y914400D02*
D03*
X1104660D02*
D03*
Y939800D02*
D03*
X1103390Y791210D02*
D03*
Y765810D02*
D03*
X1200390D02*
D03*
Y791210D02*
D03*
D61*
X629780Y735330D02*
D03*
X612280D02*
D03*
X629780Y694690D02*
D03*
X612280D02*
D03*
X955040Y886460D02*
D03*
X972540D02*
D03*
X1023340Y885190D02*
D03*
X1005840D02*
D03*
X955180Y830580D02*
D03*
X972680D02*
D03*
X1023480Y829310D02*
D03*
X1005980D02*
D03*
X1103490Y730250D02*
D03*
X1085990D02*
D03*
X955180Y764540D02*
D03*
X972680D02*
D03*
X1023480D02*
D03*
X1005980D02*
D03*
X1087260Y876300D02*
D03*
X1104760D02*
D03*
X110210Y905510D02*
D03*
X92710D02*
D03*
X561340Y866140D02*
D03*
X578840D02*
D03*
X721640Y1203960D02*
D03*
X739140D02*
D03*
X737870Y1167130D02*
D03*
X720370D02*
D03*
X1004430Y1126490D02*
D03*
X986930D02*
D03*
X987070Y1163320D02*
D03*
X1004570D02*
D03*
X956450Y1096010D02*
D03*
X973950D02*
D03*
X956450Y1070610D02*
D03*
X973950D02*
D03*
X107950Y745490D02*
D03*
X90450D02*
D03*
X956170Y1376680D02*
D03*
X938670D02*
D03*
X954760Y1304290D02*
D03*
X937260D02*
D03*
X936130Y1277620D02*
D03*
X953630D02*
D03*
X250330Y1223010D02*
D03*
X267830D02*
D03*
X250190Y1049020D02*
D03*
X267690D02*
D03*
D62*
X582820Y719580D02*
D03*
X576320D02*
D03*
X569820D02*
D03*
X563320D02*
D03*
X556820D02*
D03*
X550320D02*
D03*
X543820D02*
D03*
X537320D02*
D03*
Y662180D02*
D03*
X543820D02*
D03*
X550320D02*
D03*
X556820D02*
D03*
X563320D02*
D03*
X569820D02*
D03*
X576320D02*
D03*
X582820D02*
D03*
D63*
X510540Y1393510D02*
D03*
D64*
X544540Y1286010D02*
D03*
X527540D02*
D03*
X510540D02*
D03*
X493540D02*
D03*
X476540D02*
D03*
D65*
X858800Y830580D02*
D03*
X830300D02*
D03*
X857530Y892810D02*
D03*
X829030D02*
D03*
X858520Y760730D02*
D03*
X830020D02*
D03*
X1004290Y1028700D02*
D03*
X1032790D02*
D03*
X955320Y1414780D02*
D03*
X926820D02*
D03*
D66*
X655600Y908050D02*
D03*
X563600Y933450D02*
D03*
X655600Y895350D02*
D03*
Y920750D02*
D03*
Y933450D02*
D03*
X563600Y920750D02*
D03*
Y946150D02*
D03*
Y958850D02*
D03*
X655600D02*
D03*
X563600Y984250D02*
D03*
X655600Y946150D02*
D03*
Y971550D02*
D03*
X563600D02*
D03*
X655600Y984250D02*
D03*
X563600Y908050D02*
D03*
Y895350D02*
D03*
D67*
X347980Y958470D02*
D03*
Y974470D02*
D03*
X334010Y1025400D02*
D03*
Y1041400D02*
D03*
X436880Y1025780D02*
D03*
Y1041780D02*
D03*
X421640Y958090D02*
D03*
Y974090D02*
D03*
X369570Y1115950D02*
D03*
Y1131950D02*
D03*
X327660Y1129920D02*
D03*
Y1145920D02*
D03*
D68*
X560070Y1176650D02*
D03*
Y1171650D02*
D03*
Y1166650D02*
D03*
Y1161650D02*
D03*
Y1156650D02*
D03*
Y1151650D02*
D03*
Y1146650D02*
D03*
Y1141650D02*
D03*
Y1136650D02*
D03*
Y1131650D02*
D03*
Y1126650D02*
D03*
Y1121650D02*
D03*
X643670D02*
D03*
Y1126650D02*
D03*
Y1131650D02*
D03*
Y1136650D02*
D03*
Y1141650D02*
D03*
Y1146650D02*
D03*
Y1151650D02*
D03*
Y1156650D02*
D03*
Y1161650D02*
D03*
Y1166650D02*
D03*
Y1171650D02*
D03*
Y1176650D02*
D03*
D69*
X574370Y1107350D02*
D03*
X579370D02*
D03*
X584370D02*
D03*
X589370D02*
D03*
X594370D02*
D03*
X599370D02*
D03*
X604370D02*
D03*
X609370D02*
D03*
X614370D02*
D03*
X619370D02*
D03*
X624370D02*
D03*
X629370D02*
D03*
Y1190950D02*
D03*
X624370D02*
D03*
X619370D02*
D03*
X614370D02*
D03*
X609370D02*
D03*
X604370D02*
D03*
X599370D02*
D03*
X594370D02*
D03*
X589370D02*
D03*
X584370D02*
D03*
X579370D02*
D03*
X574370D02*
D03*
D70*
X890310Y1363140D02*
D03*
X867410D02*
D03*
X844510D02*
D03*
D71*
X867410Y1296240D02*
D03*
D72*
X300990Y1289790D02*
D03*
Y1318790D02*
D03*
X530860Y1168930D02*
D03*
Y1139930D02*
D03*
X674370Y1162790D02*
D03*
Y1191790D02*
D03*
D73*
X300990Y1351220D02*
D03*
Y1394520D02*
D03*
D74*
X712260Y1118870D02*
D03*
X683260D02*
D03*
X713530Y1084580D02*
D03*
X684530D02*
D03*
X575840Y1219200D02*
D03*
X546840D02*
D03*
X609070Y1079500D02*
D03*
X638070D02*
D03*
X770890Y1418590D02*
D03*
X799890D02*
D03*
X770890Y1380490D02*
D03*
X799890D02*
D03*
X771630Y1341120D02*
D03*
X800630D02*
D03*
X893870Y1418590D02*
D03*
X864870D02*
D03*
D75*
X364810Y1041780D02*
D03*
X404810D02*
D03*
D76*
X376290Y974090D02*
D03*
X390790D02*
D03*
D77*
X347330Y1185980D02*
D03*
Y1180980D02*
D03*
Y1175980D02*
D03*
Y1170980D02*
D03*
Y1165980D02*
D03*
Y1160980D02*
D03*
X386730D02*
D03*
Y1165980D02*
D03*
Y1170980D02*
D03*
Y1175980D02*
D03*
Y1180980D02*
D03*
Y1185980D02*
D03*
D78*
X354530Y1153780D02*
D03*
X359530D02*
D03*
X364530D02*
D03*
X369530D02*
D03*
X374530D02*
D03*
X379530D02*
D03*
Y1193180D02*
D03*
X374530D02*
D03*
X369530D02*
D03*
X364530D02*
D03*
X359530D02*
D03*
X354530D02*
D03*
D79*
X445770Y1154090D02*
D03*
Y1175090D02*
D03*
D80*
X493520Y1240790D02*
D03*
X525020D02*
D03*
D81*
X1005510Y1192530D02*
D03*
X817880Y1201420D02*
D03*
D82*
X668020Y1314210D02*
D03*
Y1411210D02*
D03*
D83*
X220980Y1320546D02*
D03*
Y1394714D02*
D03*
D84*
X383540Y1319590D02*
D03*
Y1390590D02*
D03*
D85*
X193040Y1127520D02*
D03*
X218440D02*
D03*
Y1224520D02*
D03*
X193040D02*
D03*
X189230Y952500D02*
D03*
X214630D02*
D03*
Y1049500D02*
D03*
X189230D02*
D03*
D86*
X788010Y1197610D02*
D03*
X769010Y1191110D02*
D03*
Y1204110D02*
D03*
D87*
X81280Y577850D02*
D03*
D88*
X106680D02*
D03*
X132080D02*
D03*
X157480D02*
D03*
X182880D02*
D03*
X208280D02*
D03*
X233680D02*
D03*
X259080D02*
D03*
X284480D02*
D03*
X309880D02*
D03*
X335280D02*
D03*
X360680D02*
D03*
X386080D02*
D03*
X411480D02*
D03*
X436880D02*
D03*
X462280D02*
D03*
X487680D02*
D03*
X513080D02*
D03*
X538480D02*
D03*
X563880D02*
D03*
X589280D02*
D03*
X614680D02*
D03*
X640080D02*
D03*
X665480D02*
D03*
X690880D02*
D03*
X716280D02*
D03*
X741680D02*
D03*
D89*
X567690Y797560D02*
D03*
X593090D02*
D03*
X618490D02*
D03*
D90*
X643890D02*
D03*
D91*
X535940Y623570D02*
D03*
D92*
X586740D02*
D03*
D93*
X1203960Y609430D02*
D03*
X1178960D02*
D03*
X1228960D02*
D03*
X1153960D02*
D03*
D94*
X1253960D02*
D03*
D95*
X451790Y783590D02*
D03*
D96*
X251790D02*
D03*
D97*
X1287780Y1145540D02*
D03*
Y1195540D02*
D03*
X121920Y1325010D02*
D03*
X1283970Y948290D02*
D03*
X118110Y1153560D02*
D03*
X1283970Y787000D02*
D03*
X115570Y982110D02*
D03*
D98*
X1287780Y1095540D02*
D03*
X121920Y1375010D02*
D03*
X1283970Y898290D02*
D03*
X118110Y1203560D02*
D03*
X1283970Y737000D02*
D03*
X115570Y1032110D02*
D03*
D99*
X136800Y859270D02*
D03*
X135530Y694170D02*
D03*
D100*
X136800Y794270D02*
D03*
X91800Y859270D02*
D03*
Y794270D02*
D03*
X135530Y629170D02*
D03*
X90530Y694170D02*
D03*
Y629170D02*
D03*
D101*
X795120Y1094740D02*
D03*
D102*
X871120D02*
D03*
D103*
X1204270Y1193840D02*
D03*
D104*
X1144270Y1213840D02*
D03*
D105*
X1084270Y1193840D02*
D03*
Y1071840D02*
D03*
X1204270D02*
D03*
D106*
X1050290Y1399540D02*
D03*
Y1374140D02*
D03*
Y1348740D02*
D03*
Y1323340D02*
D03*
D107*
X1297940Y1361440D02*
D03*
D108*
X1040340Y885190D02*
D03*
X1087120Y894080D02*
D03*
X595630Y767080D02*
D03*
X613410D02*
D03*
X543820Y742690D02*
D03*
X549910Y639020D02*
D03*
X285440D02*
D03*
X744220Y975360D02*
D03*
X665280Y1012144D02*
D03*
X668724Y1029404D02*
D03*
X736600Y989330D02*
D03*
X1075690Y730250D02*
D03*
X557485Y735330D02*
D03*
X563880Y734060D02*
D03*
X706120Y784860D02*
D03*
X1072260Y560450D02*
D03*
X1016000Y858520D02*
D03*
X722630Y919480D02*
D03*
X716280Y891540D02*
D03*
X576580Y732790D02*
D03*
X712050Y909320D02*
D03*
X523240Y580544D02*
D03*
X607060Y603035D02*
D03*
X591820Y599394D02*
D03*
X518775Y601559D02*
D03*
X501650Y612140D02*
D03*
X640080Y618180D02*
D03*
X786130Y606040D02*
D03*
X692714Y628960D02*
D03*
X786130Y617220D02*
D03*
X670976Y640934D02*
D03*
X693381Y618380D02*
D03*
X810350Y603920D02*
D03*
X797560Y607800D02*
D03*
X604520Y629710D02*
D03*
X814070Y764540D02*
D03*
X787376Y648160D02*
D03*
X800186Y638278D02*
D03*
X803040Y644514D02*
D03*
X808900Y650240D02*
D03*
X807720Y589280D02*
D03*
X829210Y594753D02*
D03*
X758030Y567305D02*
D03*
X723424Y583990D02*
D03*
X729944Y584506D02*
D03*
X867830Y678180D02*
D03*
X822435Y714102D02*
D03*
X856830Y684530D02*
D03*
X866600Y669385D02*
D03*
X284480Y627380D02*
D03*
X557530Y646890D02*
D03*
X685800Y620211D02*
D03*
X819480Y645217D02*
D03*
X835720Y594386D02*
D03*
X867830Y654050D02*
D03*
Y661670D02*
D03*
Y601480D02*
D03*
X184150Y619760D02*
D03*
X511896Y585834D02*
D03*
X679450Y617220D02*
D03*
X882867Y680493D02*
D03*
X868370Y608136D02*
D03*
X899160Y695960D02*
D03*
X496015Y575876D02*
D03*
X551489Y578398D02*
D03*
X902380Y692250D02*
D03*
X910880D02*
D03*
X919239D02*
D03*
X893059Y691194D02*
D03*
X421640Y603500D02*
D03*
X665480Y590855D02*
D03*
X794810Y708660D02*
D03*
Y694690D02*
D03*
X823170Y723900D02*
D03*
X927880Y691020D02*
D03*
X928130Y705660D02*
D03*
X674370Y576580D02*
D03*
X421640Y588860D02*
D03*
X603510Y578660D02*
D03*
X961880Y692960D02*
D03*
X970380D02*
D03*
X978880D02*
D03*
X936380D02*
D03*
X953380D02*
D03*
X944880D02*
D03*
X987380D02*
D03*
X979170Y715320D02*
D03*
X960088Y711408D02*
D03*
X970380Y715320D02*
D03*
X986790D02*
D03*
X736600Y894080D02*
D03*
X209550Y562610D02*
D03*
X1025456Y706267D02*
D03*
X1004570Y716280D02*
D03*
X1006050Y693810D02*
D03*
X993990Y695687D02*
D03*
X1000760Y676400D02*
D03*
X1044400Y626477D02*
D03*
X1030624Y688994D02*
D03*
X1023620Y688340D02*
D03*
X1040340Y681990D02*
D03*
X1005840Y669290D02*
D03*
X1044224Y713456D02*
D03*
X1041820Y700370D02*
D03*
X1024890Y652780D02*
D03*
X1069340Y707390D02*
D03*
X1062990Y643890D02*
D03*
X697230Y778510D02*
D03*
X768350Y777240D02*
D03*
X624840Y1234440D02*
D03*
X547370Y933450D02*
D03*
X661430Y1090562D02*
D03*
X682171Y1071560D02*
D03*
X500380Y974090D02*
D03*
X523240Y920750D02*
D03*
X1028700Y600710D02*
D03*
X955040Y801370D02*
D03*
X910590Y847090D02*
D03*
X913130Y778510D02*
D03*
X909320Y911860D02*
D03*
X565150Y651510D02*
D03*
X711200Y1065530D02*
D03*
X965200Y1205230D02*
D03*
X612140Y656590D02*
D03*
X642620Y735330D02*
D03*
Y694690D02*
D03*
X198120Y560070D02*
D03*
X1040130Y927100D02*
D03*
X367030Y1202690D02*
D03*
X509940Y1125220D02*
D03*
X505880Y1004570D02*
D03*
X495300Y993140D02*
D03*
X481330Y1003300D02*
D03*
X732790Y1051560D02*
D03*
X588010Y1028700D02*
D03*
X579120Y1029970D02*
D03*
X598170Y1031190D02*
D03*
X674370Y1043940D02*
D03*
X579120Y1062990D02*
D03*
X965200Y1179830D02*
D03*
X658890Y1151940D02*
D03*
X666750Y1145540D02*
D03*
X653620Y1171780D02*
D03*
X660400Y1210310D02*
D03*
X594660Y1084580D02*
D03*
X568960D02*
D03*
X599440Y1207770D02*
D03*
X588010Y1205230D02*
D03*
X543710Y1090060D02*
D03*
X557530Y1113790D02*
D03*
X542000D02*
D03*
Y1121360D02*
D03*
X514350Y1132840D02*
D03*
X542834Y1150182D02*
D03*
X549699Y1140805D02*
D03*
X543880Y1143747D02*
D03*
X546091Y1157013D02*
D03*
X499880Y1150620D02*
D03*
X529590Y1210310D02*
D03*
X477520Y1212850D02*
D03*
X481330Y901700D02*
D03*
X561340Y1062990D02*
D03*
X593090Y830580D02*
D03*
X645160Y824230D02*
D03*
X624500Y1117260D02*
D03*
X1017270Y1070610D02*
D03*
X1049020Y1126490D02*
D03*
X958240Y1330350D02*
D03*
X770890Y927100D02*
D03*
X139700Y756920D02*
D03*
X674370Y908050D02*
D03*
X604370Y1179830D02*
D03*
X496888Y1187767D02*
D03*
X497840Y1202690D02*
D03*
X519430Y1196340D02*
D03*
X552450Y1202690D02*
D03*
X496570Y1159510D02*
D03*
X354530Y1223210D02*
D03*
D109*
X753110Y891540D02*
D03*
X632460Y1039710D02*
D03*
X652780Y1075690D02*
D03*
X821690Y1308100D02*
D03*
D110*
X532130Y852170D02*
D03*
X207010Y774700D02*
D03*
X469900Y1259840D02*
D03*
X510540Y1258570D02*
D03*
X576580Y1227750D02*
D03*
X768350Y1305560D02*
D03*
X553720Y1433830D02*
D03*
X535940D02*
D03*
X518160D02*
D03*
X500380D02*
D03*
X482600D02*
D03*
X467360D02*
D03*
X552450Y1450340D02*
D03*
X535940D02*
D03*
X518160D02*
D03*
X500380D02*
D03*
X483870D02*
D03*
X468630D02*
D03*
X609600Y1066970D02*
D03*
X193040Y1239520D02*
D03*
X189230Y1065530D02*
D03*
X74930Y628650D02*
D03*
X261240Y969390D02*
D03*
X361290Y956970D02*
D03*
X432790Y956590D02*
D03*
X450850Y1024890D02*
D03*
X318770D02*
D03*
X235330Y1143380D02*
D03*
X313690Y1129030D02*
D03*
X403860Y1215390D02*
D03*
X433070Y1160780D02*
D03*
X515620Y1168400D02*
D03*
X967610Y1304290D02*
D03*
X906780Y1418590D02*
D03*
X770890Y1440180D02*
D03*
X544540Y1314160D02*
D03*
X321310Y1290320D02*
D03*
X532130Y876300D02*
D03*
D111*
X768350Y1182370D02*
D03*
X722630Y1118870D02*
D03*
X720370Y1152170D02*
D03*
X669290Y797560D02*
D03*
X707770Y695960D02*
D03*
X690350Y1162790D02*
D03*
X723900Y1084580D02*
D03*
X956450Y1055230D02*
D03*
X975360Y1126490D02*
D03*
D112*
X336000Y1185114D02*
D03*
D113*
X697230Y1101090D02*
D03*
D114*
X1031240Y1323340D02*
D03*
X383540Y1424940D02*
D03*
D115*
X124779Y905510D02*
D03*
M02*
