G04*
G04 #@! TF.GenerationSoftware,Altium Limited,Altium Designer,25.2.1 (25)*
G04*
G04 Layer_Color=32896*
%FSLAX44Y44*%
%MOMM*%
G71*
G04*
G04 #@! TF.SameCoordinates,E3D469A8-3601-4E52-BDEA-DD632D880B34*
G04*
G04*
G04 #@! TF.FilePolarity,Positive*
G04*
G01*
G75*
G36*
X1157075Y626443D02*
X1154521D01*
Y635494D01*
X1144582D01*
Y626443D01*
X1142028D01*
Y645655D01*
X1144582D01*
Y637770D01*
X1154521D01*
Y645655D01*
X1157075D01*
Y626443D01*
D02*
G37*
G36*
X1130395D02*
X1127952D01*
Y642795D01*
X1122400Y626443D01*
X1120123D01*
X1114515Y642517D01*
Y626443D01*
X1112072D01*
Y645655D01*
X1115487D01*
X1120096Y632273D01*
X1120346Y631551D01*
X1120540Y630941D01*
X1120734Y630413D01*
X1120873Y629969D01*
X1120984Y629636D01*
X1121067Y629386D01*
X1121095Y629247D01*
X1121123Y629192D01*
X1121234Y629580D01*
X1121373Y630024D01*
X1121539Y630496D01*
X1121678Y630968D01*
X1121817Y631385D01*
X1121928Y631718D01*
X1121983Y631857D01*
X1122011Y631940D01*
X1122039Y631996D01*
Y632023D01*
X1126592Y645655D01*
X1130395D01*
Y626443D01*
D02*
G37*
G36*
X1362765D02*
X1360100D01*
X1356047Y641074D01*
X1355936Y641435D01*
X1355852Y641823D01*
X1355741Y642212D01*
X1355658Y642545D01*
X1355575Y642851D01*
X1355519Y643101D01*
X1355491Y643267D01*
X1355464Y643295D01*
Y643323D01*
X1355436Y643239D01*
X1355408Y643101D01*
X1355325Y642795D01*
X1355214Y642434D01*
X1355103Y642046D01*
X1355019Y641685D01*
X1354936Y641379D01*
X1354908Y641240D01*
X1354881Y641157D01*
X1354853Y641102D01*
Y641074D01*
X1350827Y626443D01*
X1348329D01*
X1343054Y645655D01*
X1345636D01*
X1348634Y633300D01*
X1348856Y632440D01*
X1349023Y631662D01*
X1349189Y630941D01*
X1349328Y630330D01*
X1349411Y630052D01*
X1349439Y629802D01*
X1349495Y629608D01*
X1349523Y629441D01*
X1349578Y629303D01*
Y629192D01*
X1349606Y629136D01*
Y629108D01*
X1349800Y630330D01*
X1350050Y631524D01*
X1350300Y632662D01*
X1350411Y633189D01*
X1350550Y633717D01*
X1350661Y634189D01*
X1350772Y634605D01*
X1350883Y634966D01*
X1350966Y635299D01*
X1351022Y635549D01*
X1351077Y635743D01*
X1351133Y635882D01*
Y635910D01*
X1353853Y645655D01*
X1356935D01*
X1360572Y632662D01*
X1360600Y632551D01*
X1360655Y632384D01*
X1360711Y632162D01*
X1360766Y631912D01*
X1360849Y631635D01*
X1360905Y631329D01*
X1361071Y630718D01*
X1361210Y630108D01*
X1361294Y629830D01*
X1361349Y629608D01*
X1361377Y629386D01*
X1361432Y629247D01*
X1361460Y629136D01*
Y629108D01*
X1361599Y629830D01*
X1361738Y630552D01*
X1361877Y631218D01*
X1362016Y631801D01*
X1362071Y632079D01*
X1362126Y632329D01*
X1362182Y632523D01*
X1362210Y632717D01*
X1362238Y632856D01*
X1362265Y632967D01*
X1362293Y633023D01*
Y633050D01*
X1365153Y645655D01*
X1367790D01*
X1362765Y626443D01*
D02*
G37*
G36*
X1268984Y634550D02*
Y633994D01*
X1268957Y633467D01*
X1268929Y632967D01*
X1268873Y632495D01*
X1268818Y632079D01*
X1268762Y631690D01*
X1268679Y631329D01*
X1268623Y630996D01*
X1268568Y630691D01*
X1268485Y630441D01*
X1268429Y630219D01*
X1268374Y630052D01*
X1268318Y629913D01*
X1268290Y629802D01*
X1268262Y629747D01*
Y629719D01*
X1267957Y629108D01*
X1267569Y628553D01*
X1267180Y628109D01*
X1266763Y627720D01*
X1266402Y627415D01*
X1266097Y627193D01*
X1265986Y627137D01*
X1265903Y627082D01*
X1265847Y627026D01*
X1265819D01*
X1265125Y626721D01*
X1264404Y626499D01*
X1263654Y626332D01*
X1262960Y626221D01*
X1262654Y626193D01*
X1262349Y626166D01*
X1262072Y626138D01*
X1261849D01*
X1261655Y626110D01*
X1261405D01*
X1260406Y626166D01*
X1259962Y626221D01*
X1259545Y626277D01*
X1259129Y626360D01*
X1258768Y626443D01*
X1258435Y626526D01*
X1258129Y626637D01*
X1257852Y626749D01*
X1257630Y626832D01*
X1257408Y626915D01*
X1257241Y626998D01*
X1257102Y627082D01*
X1257019Y627109D01*
X1256963Y627165D01*
X1256936D01*
X1256325Y627581D01*
X1255825Y628053D01*
X1255436Y628498D01*
X1255103Y628942D01*
X1254853Y629330D01*
X1254687Y629636D01*
X1254631Y629747D01*
X1254576Y629830D01*
X1254548Y629886D01*
Y629913D01*
X1254437Y630247D01*
X1254326Y630607D01*
X1254159Y631357D01*
X1254048Y632134D01*
X1253965Y632884D01*
X1253937Y633217D01*
X1253910Y633550D01*
Y633828D01*
X1253882Y634078D01*
Y634272D01*
Y634411D01*
Y634522D01*
Y634550D01*
Y645655D01*
X1256436D01*
Y634550D01*
Y633911D01*
X1256491Y633300D01*
X1256547Y632773D01*
X1256630Y632273D01*
X1256713Y631829D01*
X1256824Y631413D01*
X1256908Y631052D01*
X1257019Y630746D01*
X1257130Y630496D01*
X1257241Y630247D01*
X1257352Y630080D01*
X1257435Y629913D01*
X1257518Y629802D01*
X1257574Y629719D01*
X1257602Y629691D01*
X1257630Y629664D01*
X1257879Y629441D01*
X1258157Y629247D01*
X1258768Y628942D01*
X1259406Y628720D01*
X1260073Y628581D01*
X1260683Y628470D01*
X1260933Y628442D01*
X1261183D01*
X1261350Y628414D01*
X1261627D01*
X1262210Y628442D01*
X1262738Y628525D01*
X1263238Y628609D01*
X1263626Y628747D01*
X1263959Y628858D01*
X1264209Y628942D01*
X1264348Y629025D01*
X1264404Y629053D01*
X1264792Y629303D01*
X1265125Y629608D01*
X1265403Y629913D01*
X1265597Y630191D01*
X1265764Y630469D01*
X1265903Y630663D01*
X1265958Y630802D01*
X1265986Y630857D01*
X1266069Y631107D01*
X1266125Y631357D01*
X1266236Y631940D01*
X1266319Y632551D01*
X1266375Y633162D01*
X1266402Y633689D01*
Y633939D01*
X1266430Y634133D01*
Y634300D01*
Y634439D01*
Y634522D01*
Y634550D01*
Y645655D01*
X1268984D01*
Y634550D01*
D02*
G37*
G36*
X1067653D02*
Y633994D01*
X1067625Y633467D01*
X1067597Y632967D01*
X1067542Y632495D01*
X1067486Y632079D01*
X1067431Y631690D01*
X1067347Y631329D01*
X1067292Y630996D01*
X1067236Y630691D01*
X1067153Y630441D01*
X1067098Y630219D01*
X1067042Y630052D01*
X1066987Y629913D01*
X1066959Y629802D01*
X1066931Y629747D01*
Y629719D01*
X1066626Y629108D01*
X1066237Y628553D01*
X1065848Y628109D01*
X1065432Y627720D01*
X1065071Y627415D01*
X1064766Y627193D01*
X1064654Y627137D01*
X1064571Y627082D01*
X1064516Y627026D01*
X1064488D01*
X1063794Y626721D01*
X1063072Y626499D01*
X1062322Y626332D01*
X1061628Y626221D01*
X1061323Y626193D01*
X1061018Y626166D01*
X1060740Y626138D01*
X1060518D01*
X1060324Y626110D01*
X1060074D01*
X1059074Y626166D01*
X1058630Y626221D01*
X1058214Y626277D01*
X1057797Y626360D01*
X1057436Y626443D01*
X1057103Y626526D01*
X1056798Y626637D01*
X1056520Y626749D01*
X1056298Y626832D01*
X1056076Y626915D01*
X1055909Y626998D01*
X1055771Y627082D01*
X1055687Y627109D01*
X1055632Y627165D01*
X1055604D01*
X1054993Y627581D01*
X1054494Y628053D01*
X1054105Y628498D01*
X1053772Y628942D01*
X1053522Y629330D01*
X1053355Y629636D01*
X1053300Y629747D01*
X1053244Y629830D01*
X1053216Y629886D01*
Y629913D01*
X1053105Y630247D01*
X1052994Y630607D01*
X1052828Y631357D01*
X1052717Y632134D01*
X1052634Y632884D01*
X1052606Y633217D01*
X1052578Y633550D01*
Y633828D01*
X1052550Y634078D01*
Y634272D01*
Y634411D01*
Y634522D01*
Y634550D01*
Y645655D01*
X1055104D01*
Y634550D01*
Y633911D01*
X1055160Y633300D01*
X1055215Y632773D01*
X1055299Y632273D01*
X1055382Y631829D01*
X1055493Y631413D01*
X1055576Y631052D01*
X1055687Y630746D01*
X1055798Y630496D01*
X1055909Y630247D01*
X1056021Y630080D01*
X1056104Y629913D01*
X1056187Y629802D01*
X1056243Y629719D01*
X1056270Y629691D01*
X1056298Y629664D01*
X1056548Y629441D01*
X1056826Y629247D01*
X1057436Y628942D01*
X1058075Y628720D01*
X1058741Y628581D01*
X1059352Y628470D01*
X1059602Y628442D01*
X1059852D01*
X1060018Y628414D01*
X1060296D01*
X1060879Y628442D01*
X1061406Y628525D01*
X1061906Y628609D01*
X1062295Y628747D01*
X1062628Y628858D01*
X1062878Y628942D01*
X1063017Y629025D01*
X1063072Y629053D01*
X1063461Y629303D01*
X1063794Y629608D01*
X1064072Y629913D01*
X1064266Y630191D01*
X1064432Y630469D01*
X1064571Y630663D01*
X1064627Y630802D01*
X1064654Y630857D01*
X1064738Y631107D01*
X1064793Y631357D01*
X1064904Y631940D01*
X1064988Y632551D01*
X1065043Y633162D01*
X1065071Y633689D01*
Y633939D01*
X1065099Y634133D01*
Y634300D01*
Y634439D01*
Y634522D01*
Y634550D01*
Y645655D01*
X1067653D01*
Y634550D01*
D02*
G37*
G36*
X1000607Y645932D02*
X1001496Y645793D01*
X1002273Y645627D01*
X1002634Y645516D01*
X1002967Y645405D01*
X1003272Y645294D01*
X1003550Y645183D01*
X1003772Y645099D01*
X1003994Y645016D01*
X1004133Y644933D01*
X1004244Y644877D01*
X1004327Y644849D01*
X1004355Y644822D01*
X1005105Y644350D01*
X1005743Y643794D01*
X1006298Y643239D01*
X1006770Y642684D01*
X1007131Y642184D01*
X1007270Y641962D01*
X1007381Y641768D01*
X1007492Y641629D01*
X1007548Y641518D01*
X1007576Y641435D01*
X1007603Y641407D01*
X1007992Y640546D01*
X1008270Y639658D01*
X1008464Y638770D01*
X1008603Y637965D01*
X1008658Y637604D01*
X1008686Y637243D01*
X1008714Y636965D01*
Y636687D01*
X1008742Y636493D01*
Y636326D01*
Y636215D01*
Y636188D01*
X1008686Y635188D01*
X1008575Y634217D01*
X1008436Y633356D01*
X1008325Y632939D01*
X1008242Y632579D01*
X1008158Y632245D01*
X1008047Y631940D01*
X1007964Y631662D01*
X1007909Y631440D01*
X1007825Y631274D01*
X1007798Y631135D01*
X1007742Y631052D01*
Y631024D01*
X1007326Y630191D01*
X1006854Y629441D01*
X1006354Y628803D01*
X1006104Y628553D01*
X1005882Y628303D01*
X1005660Y628081D01*
X1005438Y627887D01*
X1005243Y627720D01*
X1005077Y627609D01*
X1004966Y627498D01*
X1004855Y627415D01*
X1004799Y627387D01*
X1004771Y627359D01*
X1004383Y627137D01*
X1003994Y626943D01*
X1003161Y626637D01*
X1002328Y626415D01*
X1001523Y626277D01*
X1001135Y626221D01*
X1000801Y626166D01*
X1000496Y626138D01*
X1000246D01*
X1000024Y626110D01*
X999719D01*
X999164Y626138D01*
X998636Y626193D01*
X998136Y626249D01*
X997664Y626360D01*
X997220Y626499D01*
X996804Y626637D01*
X996415Y626776D01*
X996054Y626943D01*
X995749Y627082D01*
X995443Y627220D01*
X995221Y627359D01*
X994999Y627498D01*
X994860Y627609D01*
X994722Y627665D01*
X994666Y627720D01*
X994638Y627748D01*
X994250Y628081D01*
X993916Y628414D01*
X993611Y628803D01*
X993306Y629192D01*
X992806Y629969D01*
X992417Y630746D01*
X992251Y631107D01*
X992112Y631440D01*
X992001Y631746D01*
X991918Y631996D01*
X991834Y632218D01*
X991779Y632384D01*
X991751Y632495D01*
Y632523D01*
X994305Y633162D01*
X994416Y632717D01*
X994555Y632301D01*
X994694Y631912D01*
X994833Y631551D01*
X994999Y631218D01*
X995166Y630941D01*
X995360Y630663D01*
X995527Y630413D01*
X995666Y630191D01*
X995832Y630024D01*
X995971Y629858D01*
X996082Y629719D01*
X996193Y629636D01*
X996276Y629552D01*
X996304Y629525D01*
X996332Y629497D01*
X996609Y629275D01*
X996915Y629108D01*
X997525Y628803D01*
X998109Y628581D01*
X998692Y628442D01*
X999191Y628331D01*
X999386Y628303D01*
X999580D01*
X999746Y628275D01*
X999941D01*
X1000579Y628303D01*
X1001190Y628414D01*
X1001745Y628553D01*
X1002245Y628720D01*
X1002634Y628886D01*
X1002800Y628969D01*
X1002939Y629025D01*
X1003050Y629081D01*
X1003133Y629136D01*
X1003189Y629164D01*
X1003217D01*
X1003744Y629552D01*
X1004189Y629969D01*
X1004577Y630441D01*
X1004883Y630885D01*
X1005132Y631274D01*
X1005299Y631607D01*
X1005355Y631746D01*
X1005410Y631829D01*
X1005438Y631884D01*
Y631912D01*
X1005660Y632634D01*
X1005826Y633356D01*
X1005965Y634078D01*
X1006049Y634744D01*
X1006076Y635049D01*
X1006104Y635327D01*
Y635577D01*
X1006132Y635771D01*
Y635938D01*
Y636077D01*
Y636160D01*
Y636188D01*
X1006104Y636909D01*
X1006049Y637576D01*
X1005938Y638187D01*
X1005826Y638742D01*
X1005743Y639214D01*
X1005688Y639408D01*
X1005632Y639575D01*
X1005604Y639714D01*
X1005577Y639797D01*
X1005549Y639852D01*
Y639880D01*
X1005271Y640519D01*
X1004966Y641102D01*
X1004633Y641573D01*
X1004272Y641990D01*
X1003966Y642323D01*
X1003717Y642545D01*
X1003522Y642684D01*
X1003494Y642740D01*
X1003467D01*
X1002884Y643101D01*
X1002245Y643378D01*
X1001634Y643572D01*
X1001051Y643683D01*
X1000524Y643767D01*
X1000302Y643794D01*
X1000107D01*
X999969Y643822D01*
X999746D01*
X999053Y643794D01*
X998414Y643683D01*
X997886Y643517D01*
X997414Y643350D01*
X997054Y643156D01*
X996776Y643017D01*
X996609Y642906D01*
X996554Y642851D01*
X996110Y642434D01*
X995693Y641962D01*
X995360Y641462D01*
X995082Y640963D01*
X994860Y640519D01*
X994777Y640296D01*
X994722Y640130D01*
X994666Y639991D01*
X994611Y639880D01*
X994583Y639824D01*
Y639797D01*
X992084Y640380D01*
X992251Y640880D01*
X992417Y641324D01*
X992639Y641740D01*
X992834Y642157D01*
X993056Y642517D01*
X993306Y642851D01*
X993528Y643184D01*
X993750Y643461D01*
X993972Y643683D01*
X994166Y643906D01*
X994361Y644100D01*
X994500Y644239D01*
X994638Y644378D01*
X994749Y644461D01*
X994805Y644489D01*
X994833Y644516D01*
X995221Y644766D01*
X995610Y645016D01*
X995999Y645210D01*
X996415Y645377D01*
X997248Y645627D01*
X997998Y645793D01*
X998358Y645877D01*
X998664Y645904D01*
X998969Y645932D01*
X999219Y645960D01*
X999413Y645988D01*
X999691D01*
X1000607Y645932D01*
D02*
G37*
G36*
X1340250Y626443D02*
X1337696D01*
Y645655D01*
X1340250D01*
Y626443D01*
D02*
G37*
G36*
X1333087D02*
X1330533D01*
Y635160D01*
X1321510D01*
Y637437D01*
X1330533D01*
Y643378D01*
X1320094D01*
Y645655D01*
X1333087D01*
Y626443D01*
D02*
G37*
G36*
X1316374D02*
X1313820D01*
Y645655D01*
X1316374D01*
Y626443D01*
D02*
G37*
G36*
X1301966D02*
X1294637D01*
X1293970Y626471D01*
X1293387Y626499D01*
X1292860Y626554D01*
X1292416Y626610D01*
X1292055Y626665D01*
X1291777Y626693D01*
X1291611Y626749D01*
X1291555D01*
X1291083Y626887D01*
X1290694Y627026D01*
X1290334Y627193D01*
X1290028Y627359D01*
X1289778Y627470D01*
X1289584Y627581D01*
X1289473Y627665D01*
X1289445Y627692D01*
X1289140Y627942D01*
X1288862Y628248D01*
X1288640Y628553D01*
X1288418Y628831D01*
X1288251Y629108D01*
X1288140Y629303D01*
X1288057Y629441D01*
X1288029Y629497D01*
X1287835Y629941D01*
X1287696Y630385D01*
X1287585Y630802D01*
X1287529Y631190D01*
X1287474Y631524D01*
X1287446Y631801D01*
Y631968D01*
Y631996D01*
Y632023D01*
X1287474Y632634D01*
X1287585Y633189D01*
X1287752Y633661D01*
X1287918Y634105D01*
X1288085Y634439D01*
X1288251Y634688D01*
X1288362Y634855D01*
X1288390Y634911D01*
X1288779Y635355D01*
X1289195Y635716D01*
X1289667Y636021D01*
X1290084Y636271D01*
X1290472Y636465D01*
X1290805Y636576D01*
X1290916Y636632D01*
X1291000Y636660D01*
X1291055Y636687D01*
X1291083D01*
X1290611Y636965D01*
X1290195Y637243D01*
X1289861Y637548D01*
X1289584Y637826D01*
X1289362Y638048D01*
X1289195Y638270D01*
X1289112Y638381D01*
X1289084Y638436D01*
X1288862Y638853D01*
X1288696Y639241D01*
X1288557Y639630D01*
X1288473Y639991D01*
X1288418Y640296D01*
X1288390Y640546D01*
Y640685D01*
Y640741D01*
X1288418Y641213D01*
X1288501Y641685D01*
X1288640Y642101D01*
X1288779Y642490D01*
X1288918Y642823D01*
X1289056Y643045D01*
X1289140Y643212D01*
X1289167Y643267D01*
X1289473Y643683D01*
X1289806Y644072D01*
X1290167Y644378D01*
X1290500Y644627D01*
X1290778Y644822D01*
X1291028Y644960D01*
X1291194Y645044D01*
X1291222Y645072D01*
X1291250D01*
X1291777Y645266D01*
X1292360Y645405D01*
X1292943Y645516D01*
X1293498Y645571D01*
X1293998Y645627D01*
X1294220D01*
X1294415Y645655D01*
X1301966D01*
Y626443D01*
D02*
G37*
G36*
X1284059D02*
X1272038D01*
Y628720D01*
X1281505D01*
Y645655D01*
X1284059D01*
Y626443D01*
D02*
G37*
G36*
X1249606D02*
X1235253D01*
Y628720D01*
X1247052D01*
Y635244D01*
X1236419D01*
Y637520D01*
X1247052D01*
Y643378D01*
X1235697D01*
Y645655D01*
X1249606D01*
Y626443D01*
D02*
G37*
G36*
X1233171Y643378D02*
X1226841D01*
Y626443D01*
X1224287D01*
Y643378D01*
X1217957D01*
Y645655D01*
X1233171D01*
Y643378D01*
D02*
G37*
G36*
X1175009D02*
X1168680D01*
Y626443D01*
X1166125D01*
Y643378D01*
X1159796D01*
Y645655D01*
X1175009D01*
Y643378D01*
D02*
G37*
G36*
X1087059Y626443D02*
X1080146D01*
X1079507Y626471D01*
X1078924Y626499D01*
X1078397Y626554D01*
X1077953Y626610D01*
X1077564Y626665D01*
X1077286Y626693D01*
X1077203Y626721D01*
X1077120Y626749D01*
X1077064D01*
X1076564Y626887D01*
X1076120Y627054D01*
X1075732Y627193D01*
X1075398Y627359D01*
X1075121Y627498D01*
X1074927Y627609D01*
X1074816Y627692D01*
X1074760Y627720D01*
X1074399Y627970D01*
X1074094Y628275D01*
X1073788Y628553D01*
X1073538Y628831D01*
X1073316Y629081D01*
X1073150Y629275D01*
X1073039Y629414D01*
X1073011Y629469D01*
X1072733Y629913D01*
X1072456Y630385D01*
X1072234Y630830D01*
X1072067Y631274D01*
X1071900Y631662D01*
X1071789Y631968D01*
X1071762Y632079D01*
X1071734Y632162D01*
X1071706Y632218D01*
Y632245D01*
X1071540Y632912D01*
X1071401Y633578D01*
X1071318Y634217D01*
X1071234Y634827D01*
X1071206Y635355D01*
Y635577D01*
X1071179Y635771D01*
Y635910D01*
Y636049D01*
Y636104D01*
Y636132D01*
X1071206Y637076D01*
X1071290Y637937D01*
X1071429Y638714D01*
X1071484Y639075D01*
X1071567Y639380D01*
X1071651Y639686D01*
X1071706Y639936D01*
X1071762Y640158D01*
X1071845Y640352D01*
X1071873Y640519D01*
X1071928Y640630D01*
X1071956Y640685D01*
Y640713D01*
X1072261Y641435D01*
X1072622Y642073D01*
X1073011Y642628D01*
X1073372Y643101D01*
X1073705Y643489D01*
X1073983Y643767D01*
X1074094Y643850D01*
X1074177Y643933D01*
X1074205Y643961D01*
X1074232Y643989D01*
X1074677Y644350D01*
X1075149Y644627D01*
X1075621Y644877D01*
X1076065Y645072D01*
X1076453Y645210D01*
X1076759Y645294D01*
X1076870Y645349D01*
X1076953D01*
X1077009Y645377D01*
X1077037D01*
X1077508Y645460D01*
X1078064Y645544D01*
X1078619Y645599D01*
X1079174Y645627D01*
X1079674Y645655D01*
X1087059D01*
Y626443D01*
D02*
G37*
G36*
X1048414D02*
X1036393D01*
Y628720D01*
X1045860D01*
Y645655D01*
X1048414D01*
Y626443D01*
D02*
G37*
G36*
X1033339D02*
X1018986D01*
Y628720D01*
X1030785D01*
Y635244D01*
X1020152D01*
Y637520D01*
X1030785D01*
Y643378D01*
X1019430D01*
Y645655D01*
X1033339D01*
Y626443D01*
D02*
G37*
G36*
X990724D02*
X988031D01*
X985949Y632273D01*
X977898D01*
X975649Y626443D01*
X972762D01*
X980618Y645655D01*
X983395D01*
X990724Y626443D01*
D02*
G37*
G36*
X970679D02*
X968125D01*
Y634966D01*
X964849D01*
X964544Y634938D01*
X964322D01*
X964128Y634911D01*
X963989Y634883D01*
X963878D01*
X963822Y634855D01*
X963794D01*
X963350Y634716D01*
X963156Y634633D01*
X962989Y634550D01*
X962823Y634466D01*
X962712Y634411D01*
X962656Y634383D01*
X962628Y634355D01*
X962406Y634189D01*
X962184Y633994D01*
X961768Y633578D01*
X961573Y633384D01*
X961435Y633217D01*
X961351Y633106D01*
X961324Y633078D01*
X961046Y632690D01*
X960741Y632273D01*
X960435Y631829D01*
X960130Y631413D01*
X959880Y631024D01*
X959686Y630718D01*
X959602Y630607D01*
X959547Y630524D01*
X959491Y630469D01*
Y630441D01*
X956965Y626443D01*
X953800D01*
X957104Y631662D01*
X957492Y632218D01*
X957853Y632717D01*
X958214Y633134D01*
X958520Y633522D01*
X958797Y633800D01*
X959019Y634022D01*
X959158Y634161D01*
X959214Y634217D01*
X959436Y634383D01*
X959686Y634577D01*
X960185Y634883D01*
X960407Y634994D01*
X960574Y635105D01*
X960685Y635160D01*
X960741Y635188D01*
X960241Y635271D01*
X959769Y635355D01*
X959352Y635494D01*
X958936Y635605D01*
X958575Y635743D01*
X958242Y635910D01*
X957937Y636049D01*
X957659Y636188D01*
X957437Y636354D01*
X957215Y636493D01*
X957048Y636604D01*
X956909Y636715D01*
X956798Y636798D01*
X956715Y636882D01*
X956687Y636909D01*
X956660Y636937D01*
X956438Y637215D01*
X956215Y637492D01*
X955882Y638075D01*
X955660Y638658D01*
X955494Y639214D01*
X955383Y639686D01*
X955355Y639880D01*
Y640074D01*
X955327Y640213D01*
Y640324D01*
Y640380D01*
Y640407D01*
X955355Y640991D01*
X955438Y641518D01*
X955577Y642018D01*
X955716Y642434D01*
X955882Y642795D01*
X955993Y643073D01*
X956104Y643239D01*
X956132Y643267D01*
Y643295D01*
X956465Y643739D01*
X956798Y644128D01*
X957159Y644461D01*
X957492Y644711D01*
X957798Y644905D01*
X958048Y645016D01*
X958214Y645099D01*
X958242Y645127D01*
X958270D01*
X958520Y645210D01*
X958825Y645294D01*
X959436Y645433D01*
X960102Y645516D01*
X960713Y645599D01*
X961296Y645627D01*
X961546D01*
X961768Y645655D01*
X970679D01*
Y626443D01*
D02*
G37*
G36*
X951329D02*
X944416D01*
X943778Y626471D01*
X943195Y626499D01*
X942667Y626554D01*
X942223Y626610D01*
X941835Y626665D01*
X941557Y626693D01*
X941474Y626721D01*
X941390Y626749D01*
X941335D01*
X940835Y626887D01*
X940391Y627054D01*
X940002Y627193D01*
X939669Y627359D01*
X939391Y627498D01*
X939197Y627609D01*
X939086Y627692D01*
X939031Y627720D01*
X938670Y627970D01*
X938364Y628275D01*
X938059Y628553D01*
X937809Y628831D01*
X937587Y629081D01*
X937420Y629275D01*
X937309Y629414D01*
X937282Y629469D01*
X937004Y629913D01*
X936726Y630385D01*
X936504Y630830D01*
X936338Y631274D01*
X936171Y631662D01*
X936060Y631968D01*
X936032Y632079D01*
X936004Y632162D01*
X935977Y632218D01*
Y632245D01*
X935810Y632912D01*
X935671Y633578D01*
X935588Y634217D01*
X935505Y634827D01*
X935477Y635355D01*
Y635577D01*
X935449Y635771D01*
Y635910D01*
Y636049D01*
Y636104D01*
Y636132D01*
X935477Y637076D01*
X935560Y637937D01*
X935699Y638714D01*
X935755Y639075D01*
X935838Y639380D01*
X935921Y639686D01*
X935977Y639936D01*
X936032Y640158D01*
X936116Y640352D01*
X936143Y640519D01*
X936199Y640630D01*
X936227Y640685D01*
Y640713D01*
X936532Y641435D01*
X936893Y642073D01*
X937282Y642628D01*
X937643Y643101D01*
X937976Y643489D01*
X938253Y643767D01*
X938364Y643850D01*
X938448Y643933D01*
X938475Y643961D01*
X938503Y643989D01*
X938947Y644350D01*
X939419Y644627D01*
X939891Y644877D01*
X940335Y645072D01*
X940724Y645210D01*
X941030Y645294D01*
X941141Y645349D01*
X941224D01*
X941279Y645377D01*
X941307D01*
X941779Y645460D01*
X942334Y645544D01*
X942889Y645599D01*
X943445Y645627D01*
X943944Y645655D01*
X951329D01*
Y626443D01*
D02*
G37*
G36*
X1207658Y645960D02*
X1208352Y645877D01*
X1209018Y645738D01*
X1209657Y645571D01*
X1210239Y645349D01*
X1210795Y645127D01*
X1211294Y644877D01*
X1211739Y644627D01*
X1212155Y644378D01*
X1212516Y644128D01*
X1212821Y643906D01*
X1213071Y643683D01*
X1213266Y643517D01*
X1213432Y643378D01*
X1213515Y643295D01*
X1213543Y643267D01*
X1213987Y642740D01*
X1214376Y642184D01*
X1214737Y641573D01*
X1215015Y640963D01*
X1215265Y640324D01*
X1215487Y639714D01*
X1215653Y639103D01*
X1215764Y638520D01*
X1215875Y637965D01*
X1215958Y637437D01*
X1216014Y636965D01*
X1216070Y636576D01*
Y636243D01*
X1216097Y635993D01*
Y635827D01*
Y635799D01*
Y635771D01*
X1216042Y634827D01*
X1215931Y633967D01*
X1215764Y633134D01*
X1215653Y632773D01*
X1215542Y632412D01*
X1215459Y632107D01*
X1215348Y631829D01*
X1215265Y631579D01*
X1215181Y631357D01*
X1215126Y631190D01*
X1215070Y631079D01*
X1215015Y630996D01*
Y630968D01*
X1214543Y630163D01*
X1214043Y629469D01*
X1213488Y628858D01*
X1212960Y628359D01*
X1212488Y627942D01*
X1212294Y627776D01*
X1212127Y627665D01*
X1211961Y627554D01*
X1211850Y627470D01*
X1211794Y627443D01*
X1211766Y627415D01*
X1211350Y627193D01*
X1210934Y626998D01*
X1210101Y626665D01*
X1209296Y626443D01*
X1208546Y626277D01*
X1208185Y626221D01*
X1207880Y626193D01*
X1207602Y626138D01*
X1207352D01*
X1207186Y626110D01*
X1206908D01*
X1205992Y626166D01*
X1205131Y626304D01*
X1204326Y626471D01*
X1203965Y626582D01*
X1203632Y626693D01*
X1203327Y626804D01*
X1203049Y626915D01*
X1202827Y626998D01*
X1202633Y627082D01*
X1202466Y627165D01*
X1202327Y627220D01*
X1202272Y627276D01*
X1202244D01*
X1201467Y627776D01*
X1200800Y628331D01*
X1200245Y628914D01*
X1199773Y629469D01*
X1199385Y629997D01*
X1199246Y630191D01*
X1199135Y630385D01*
X1199024Y630552D01*
X1198968Y630663D01*
X1198913Y630746D01*
Y630774D01*
X1198690Y631218D01*
X1198524Y631662D01*
X1198219Y632551D01*
X1197996Y633439D01*
X1197858Y634244D01*
X1197830Y634605D01*
X1197774Y634938D01*
X1197747Y635244D01*
Y635494D01*
X1197719Y635716D01*
Y635854D01*
Y635966D01*
Y635993D01*
X1197774Y637048D01*
X1197885Y638020D01*
X1197969Y638464D01*
X1198080Y638908D01*
X1198191Y639297D01*
X1198274Y639658D01*
X1198385Y639991D01*
X1198496Y640296D01*
X1198579Y640546D01*
X1198690Y640768D01*
X1198746Y640935D01*
X1198801Y641046D01*
X1198857Y641129D01*
Y641157D01*
X1199301Y641962D01*
X1199829Y642684D01*
X1200384Y643295D01*
X1200884Y643794D01*
X1201356Y644183D01*
X1201578Y644350D01*
X1201744Y644489D01*
X1201911Y644572D01*
X1202022Y644655D01*
X1202077Y644683D01*
X1202105Y644711D01*
X1202522Y644933D01*
X1202938Y645127D01*
X1203743Y645460D01*
X1204576Y645682D01*
X1205298Y645821D01*
X1205631Y645877D01*
X1205964Y645932D01*
X1206214Y645960D01*
X1206464D01*
X1206658Y645988D01*
X1206908D01*
X1207658Y645960D01*
D02*
G37*
G36*
X1186780D02*
X1187475Y645877D01*
X1188141Y645738D01*
X1188779Y645571D01*
X1189362Y645349D01*
X1189918Y645127D01*
X1190417Y644877D01*
X1190862Y644627D01*
X1191278Y644378D01*
X1191639Y644128D01*
X1191944Y643906D01*
X1192194Y643683D01*
X1192388Y643517D01*
X1192555Y643378D01*
X1192638Y643295D01*
X1192666Y643267D01*
X1193110Y642740D01*
X1193499Y642184D01*
X1193860Y641573D01*
X1194137Y640963D01*
X1194387Y640324D01*
X1194609Y639714D01*
X1194776Y639103D01*
X1194887Y638520D01*
X1194998Y637965D01*
X1195081Y637437D01*
X1195137Y636965D01*
X1195192Y636576D01*
Y636243D01*
X1195220Y635993D01*
Y635827D01*
Y635799D01*
Y635771D01*
X1195165Y634827D01*
X1195054Y633967D01*
X1194887Y633134D01*
X1194776Y632773D01*
X1194665Y632412D01*
X1194582Y632107D01*
X1194471Y631829D01*
X1194387Y631579D01*
X1194304Y631357D01*
X1194249Y631190D01*
X1194193Y631079D01*
X1194137Y630996D01*
Y630968D01*
X1193665Y630163D01*
X1193166Y629469D01*
X1192610Y628858D01*
X1192083Y628359D01*
X1191611Y627942D01*
X1191417Y627776D01*
X1191250Y627665D01*
X1191084Y627554D01*
X1190973Y627470D01*
X1190917Y627443D01*
X1190889Y627415D01*
X1190473Y627193D01*
X1190056Y626998D01*
X1189223Y626665D01*
X1188418Y626443D01*
X1187669Y626277D01*
X1187308Y626221D01*
X1187003Y626193D01*
X1186725Y626138D01*
X1186475D01*
X1186309Y626110D01*
X1186031D01*
X1185115Y626166D01*
X1184254Y626304D01*
X1183449Y626471D01*
X1183088Y626582D01*
X1182755Y626693D01*
X1182450Y626804D01*
X1182172Y626915D01*
X1181950Y626998D01*
X1181756Y627082D01*
X1181589Y627165D01*
X1181450Y627220D01*
X1181395Y627276D01*
X1181367D01*
X1180590Y627776D01*
X1179923Y628331D01*
X1179368Y628914D01*
X1178896Y629469D01*
X1178507Y629997D01*
X1178369Y630191D01*
X1178258Y630385D01*
X1178146Y630552D01*
X1178091Y630663D01*
X1178035Y630746D01*
Y630774D01*
X1177813Y631218D01*
X1177647Y631662D01*
X1177341Y632551D01*
X1177119Y633439D01*
X1176980Y634244D01*
X1176953Y634605D01*
X1176897Y634938D01*
X1176869Y635244D01*
Y635494D01*
X1176842Y635716D01*
Y635854D01*
Y635966D01*
Y635993D01*
X1176897Y637048D01*
X1177008Y638020D01*
X1177091Y638464D01*
X1177203Y638908D01*
X1177314Y639297D01*
X1177397Y639658D01*
X1177508Y639991D01*
X1177619Y640296D01*
X1177702Y640546D01*
X1177813Y640768D01*
X1177869Y640935D01*
X1177924Y641046D01*
X1177980Y641129D01*
Y641157D01*
X1178424Y641962D01*
X1178951Y642684D01*
X1179507Y643295D01*
X1180006Y643794D01*
X1180478Y644183D01*
X1180701Y644350D01*
X1180867Y644489D01*
X1181034Y644572D01*
X1181145Y644655D01*
X1181200Y644683D01*
X1181228Y644711D01*
X1181644Y644933D01*
X1182061Y645127D01*
X1182866Y645460D01*
X1183699Y645682D01*
X1184421Y645821D01*
X1184754Y645877D01*
X1185087Y645932D01*
X1185337Y645960D01*
X1185587D01*
X1185781Y645988D01*
X1186031D01*
X1186780Y645960D01*
D02*
G37*
G36*
X1100273D02*
X1100967Y645877D01*
X1101634Y645738D01*
X1102272Y645571D01*
X1102855Y645349D01*
X1103411Y645127D01*
X1103910Y644877D01*
X1104354Y644627D01*
X1104771Y644378D01*
X1105132Y644128D01*
X1105437Y643906D01*
X1105687Y643683D01*
X1105881Y643517D01*
X1106048Y643378D01*
X1106131Y643295D01*
X1106159Y643267D01*
X1106603Y642740D01*
X1106992Y642184D01*
X1107353Y641573D01*
X1107630Y640963D01*
X1107880Y640324D01*
X1108102Y639714D01*
X1108269Y639103D01*
X1108380Y638520D01*
X1108491Y637965D01*
X1108574Y637437D01*
X1108630Y636965D01*
X1108685Y636576D01*
Y636243D01*
X1108713Y635993D01*
Y635827D01*
Y635799D01*
Y635771D01*
X1108658Y634827D01*
X1108547Y633967D01*
X1108380Y633134D01*
X1108269Y632773D01*
X1108158Y632412D01*
X1108075Y632107D01*
X1107964Y631829D01*
X1107880Y631579D01*
X1107797Y631357D01*
X1107741Y631190D01*
X1107686Y631079D01*
X1107630Y630996D01*
Y630968D01*
X1107159Y630163D01*
X1106659Y629469D01*
X1106104Y628858D01*
X1105576Y628359D01*
X1105104Y627942D01*
X1104910Y627776D01*
X1104743Y627665D01*
X1104577Y627554D01*
X1104465Y627470D01*
X1104410Y627443D01*
X1104382Y627415D01*
X1103966Y627193D01*
X1103549Y626998D01*
X1102717Y626665D01*
X1101911Y626443D01*
X1101162Y626277D01*
X1100801Y626221D01*
X1100496Y626193D01*
X1100218Y626138D01*
X1099968D01*
X1099801Y626110D01*
X1099524D01*
X1098608Y626166D01*
X1097747Y626304D01*
X1096942Y626471D01*
X1096581Y626582D01*
X1096248Y626693D01*
X1095943Y626804D01*
X1095665Y626915D01*
X1095443Y626998D01*
X1095248Y627082D01*
X1095082Y627165D01*
X1094943Y627220D01*
X1094888Y627276D01*
X1094860D01*
X1094082Y627776D01*
X1093416Y628331D01*
X1092861Y628914D01*
X1092389Y629469D01*
X1092000Y629997D01*
X1091861Y630191D01*
X1091750Y630385D01*
X1091639Y630552D01*
X1091584Y630663D01*
X1091528Y630746D01*
Y630774D01*
X1091306Y631218D01*
X1091140Y631662D01*
X1090834Y632551D01*
X1090612Y633439D01*
X1090473Y634244D01*
X1090446Y634605D01*
X1090390Y634938D01*
X1090362Y635244D01*
Y635494D01*
X1090335Y635716D01*
Y635854D01*
Y635966D01*
Y635993D01*
X1090390Y637048D01*
X1090501Y638020D01*
X1090584Y638464D01*
X1090695Y638908D01*
X1090807Y639297D01*
X1090890Y639658D01*
X1091001Y639991D01*
X1091112Y640296D01*
X1091195Y640546D01*
X1091306Y640768D01*
X1091362Y640935D01*
X1091417Y641046D01*
X1091473Y641129D01*
Y641157D01*
X1091917Y641962D01*
X1092445Y642684D01*
X1093000Y643295D01*
X1093500Y643794D01*
X1093971Y644183D01*
X1094193Y644350D01*
X1094360Y644489D01*
X1094527Y644572D01*
X1094638Y644655D01*
X1094693Y644683D01*
X1094721Y644711D01*
X1095137Y644933D01*
X1095554Y645127D01*
X1096359Y645460D01*
X1097192Y645682D01*
X1097914Y645821D01*
X1098247Y645877D01*
X1098580Y645932D01*
X1098830Y645960D01*
X1099080D01*
X1099274Y645988D01*
X1099524D01*
X1100273Y645960D01*
D02*
G37*
G36*
X1216204Y586034D02*
X1213845D01*
Y588727D01*
X1216204D01*
Y586034D01*
D02*
G37*
G36*
X1143079Y569516D02*
X1140886D01*
Y571265D01*
X1140608Y570904D01*
X1140330Y570598D01*
X1140025Y570321D01*
X1139692Y570071D01*
X1139386Y569877D01*
X1139053Y569710D01*
X1138748Y569571D01*
X1138443Y569460D01*
X1137887Y569321D01*
X1137637Y569266D01*
X1137443Y569238D01*
X1137277D01*
X1137138Y569210D01*
X1137027D01*
X1136582Y569238D01*
X1136138Y569294D01*
X1135722Y569377D01*
X1135333Y569516D01*
X1134584Y569821D01*
X1134278Y570015D01*
X1133973Y570182D01*
X1133695Y570376D01*
X1133473Y570543D01*
X1133279Y570709D01*
X1133084Y570848D01*
X1132946Y570987D01*
X1132862Y571070D01*
X1132807Y571126D01*
X1132779Y571154D01*
X1132474Y571542D01*
X1132196Y571959D01*
X1131946Y572375D01*
X1131752Y572847D01*
X1131585Y573291D01*
X1131446Y573763D01*
X1131224Y574652D01*
X1131141Y575068D01*
X1131086Y575457D01*
X1131058Y575790D01*
X1131030Y576095D01*
X1131002Y576345D01*
Y576512D01*
Y576651D01*
Y576678D01*
X1131030Y577234D01*
X1131058Y577761D01*
X1131141Y578233D01*
X1131224Y578649D01*
X1131308Y579010D01*
X1131363Y579288D01*
X1131391Y579371D01*
X1131419Y579455D01*
X1131446Y579482D01*
Y579510D01*
X1131613Y579982D01*
X1131807Y580426D01*
X1132002Y580815D01*
X1132196Y581148D01*
X1132363Y581398D01*
X1132501Y581592D01*
X1132585Y581731D01*
X1132612Y581759D01*
X1132890Y582092D01*
X1133223Y582397D01*
X1133529Y582647D01*
X1133834Y582842D01*
X1134084Y583008D01*
X1134306Y583147D01*
X1134445Y583203D01*
X1134500Y583230D01*
X1134917Y583397D01*
X1135361Y583536D01*
X1135777Y583619D01*
X1136138Y583702D01*
X1136444Y583730D01*
X1136693Y583758D01*
X1136916D01*
X1137332Y583730D01*
X1137748Y583674D01*
X1138137Y583591D01*
X1138498Y583452D01*
X1139137Y583175D01*
X1139692Y582814D01*
X1139914Y582647D01*
X1140136Y582481D01*
X1140303Y582314D01*
X1140441Y582175D01*
X1140580Y582037D01*
X1140664Y581953D01*
X1140691Y581898D01*
X1140719Y581870D01*
Y588727D01*
X1143079D01*
Y569516D01*
D02*
G37*
G36*
X1205794Y583730D02*
X1206404Y583619D01*
X1206960Y583452D01*
X1207431Y583286D01*
X1207820Y583119D01*
X1208098Y582953D01*
X1208209Y582897D01*
X1208292Y582842D01*
X1208320Y582814D01*
X1208348D01*
X1208820Y582453D01*
X1209236Y582009D01*
X1209597Y581592D01*
X1209902Y581176D01*
X1210125Y580787D01*
X1210291Y580482D01*
X1210347Y580371D01*
X1210402Y580288D01*
X1210430Y580232D01*
Y580204D01*
X1210680Y579566D01*
X1210846Y578927D01*
X1210985Y578316D01*
X1211068Y577761D01*
X1211124Y577261D01*
Y577067D01*
X1211152Y576873D01*
Y576734D01*
Y576623D01*
Y576567D01*
Y576540D01*
X1211124Y576012D01*
X1211096Y575485D01*
X1210902Y574541D01*
X1210791Y574096D01*
X1210652Y573708D01*
X1210513Y573319D01*
X1210374Y572986D01*
X1210236Y572653D01*
X1210097Y572375D01*
X1209958Y572153D01*
X1209847Y571931D01*
X1209736Y571792D01*
X1209652Y571653D01*
X1209625Y571598D01*
X1209597Y571570D01*
X1209292Y571209D01*
X1208959Y570904D01*
X1208598Y570626D01*
X1208237Y570376D01*
X1207848Y570182D01*
X1207487Y570015D01*
X1207126Y569877D01*
X1206765Y569766D01*
X1206432Y569682D01*
X1206127Y569627D01*
X1205849Y569571D01*
X1205599Y569543D01*
X1205405D01*
X1205266Y569516D01*
X1205127D01*
X1204711Y569543D01*
X1204294Y569599D01*
X1203906Y569682D01*
X1203545Y569793D01*
X1202906Y570099D01*
X1202323Y570432D01*
X1202101Y570598D01*
X1201879Y570765D01*
X1201685Y570932D01*
X1201546Y571070D01*
X1201435Y571181D01*
X1201352Y571265D01*
X1201296Y571320D01*
X1201268Y571348D01*
Y570932D01*
Y570571D01*
X1201296Y570210D01*
Y569904D01*
Y569627D01*
X1201324Y569377D01*
Y569155D01*
X1201352Y568960D01*
X1201379Y568683D01*
X1201407Y568461D01*
X1201435Y568350D01*
Y568322D01*
X1201574Y567906D01*
X1201768Y567545D01*
X1201962Y567239D01*
X1202157Y566962D01*
X1202351Y566767D01*
X1202518Y566601D01*
X1202629Y566517D01*
X1202656Y566490D01*
X1203017Y566268D01*
X1203434Y566101D01*
X1203850Y565990D01*
X1204239Y565907D01*
X1204628Y565851D01*
X1204905Y565823D01*
X1205183D01*
X1205710Y565851D01*
X1206210Y565934D01*
X1206626Y566045D01*
X1206960Y566184D01*
X1207237Y566295D01*
X1207431Y566406D01*
X1207543Y566490D01*
X1207598Y566517D01*
X1207820Y566712D01*
X1207987Y566962D01*
X1208126Y567211D01*
X1208237Y567461D01*
X1208292Y567711D01*
X1208348Y567906D01*
X1208375Y568017D01*
Y568072D01*
X1210680Y568377D01*
Y567961D01*
X1210624Y567600D01*
X1210569Y567239D01*
X1210485Y566906D01*
X1210236Y566323D01*
X1209958Y565851D01*
X1209680Y565490D01*
X1209458Y565240D01*
X1209264Y565074D01*
X1209236Y565046D01*
X1209208Y565018D01*
X1208598Y564630D01*
X1207931Y564352D01*
X1207265Y564158D01*
X1206626Y564019D01*
X1206321Y563963D01*
X1206043Y563936D01*
X1205821Y563908D01*
X1205599D01*
X1205433Y563880D01*
X1205183D01*
X1204433Y563908D01*
X1203739Y564019D01*
X1203128Y564130D01*
X1202629Y564296D01*
X1202212Y564435D01*
X1202046Y564491D01*
X1201907Y564574D01*
X1201796Y564602D01*
X1201712Y564657D01*
X1201685Y564685D01*
X1201657D01*
X1201157Y564991D01*
X1200713Y565351D01*
X1200352Y565712D01*
X1200047Y566045D01*
X1199825Y566351D01*
X1199686Y566601D01*
X1199575Y566767D01*
X1199547Y566795D01*
Y566823D01*
X1199436Y567100D01*
X1199325Y567406D01*
X1199242Y567739D01*
X1199158Y568100D01*
X1199047Y568877D01*
X1198964Y569627D01*
X1198936Y569988D01*
X1198908Y570321D01*
Y570626D01*
X1198881Y570876D01*
Y571098D01*
Y571265D01*
Y571376D01*
Y571404D01*
Y583452D01*
X1201046D01*
Y581731D01*
X1201352Y582092D01*
X1201685Y582397D01*
X1202018Y582675D01*
X1202351Y582897D01*
X1202712Y583091D01*
X1203045Y583258D01*
X1203378Y583397D01*
X1203684Y583508D01*
X1203989Y583591D01*
X1204267Y583647D01*
X1204517Y583702D01*
X1204711Y583730D01*
X1204877Y583758D01*
X1205127D01*
X1205794Y583730D01*
D02*
G37*
G36*
X1066677Y569516D02*
X1064123D01*
Y576179D01*
X1060986Y579205D01*
X1054156Y569516D01*
X1050797D01*
X1059209Y580926D01*
X1051158Y588727D01*
X1054628D01*
X1064123Y579177D01*
Y588727D01*
X1066677D01*
Y569516D01*
D02*
G37*
G36*
X1124173D02*
X1124284Y569266D01*
X1124339Y569072D01*
X1124395Y568960D01*
Y568933D01*
X1124561Y568461D01*
X1124728Y568072D01*
X1124839Y567739D01*
X1124950Y567517D01*
X1125006Y567350D01*
X1125061Y567239D01*
X1125117Y567184D01*
Y567156D01*
X1125339Y566851D01*
X1125589Y566628D01*
X1125700Y566545D01*
X1125783Y566490D01*
X1125838Y566434D01*
X1125866D01*
X1126060Y566351D01*
X1126255Y566268D01*
X1126671Y566184D01*
X1126838D01*
X1126977Y566157D01*
X1127115D01*
X1127560Y566184D01*
X1128004Y566268D01*
X1128170Y566323D01*
X1128309Y566351D01*
X1128420Y566379D01*
X1128448D01*
X1128198Y564185D01*
X1127893Y564074D01*
X1127615Y564019D01*
X1127365Y563963D01*
X1127143Y563908D01*
X1126949D01*
X1126810Y563880D01*
X1126699D01*
X1126283Y563908D01*
X1125922Y563963D01*
X1125589Y564047D01*
X1125311Y564158D01*
X1125061Y564269D01*
X1124894Y564352D01*
X1124783Y564408D01*
X1124756Y564435D01*
X1124450Y564657D01*
X1124201Y564935D01*
X1123951Y565213D01*
X1123728Y565490D01*
X1123562Y565740D01*
X1123423Y565934D01*
X1123340Y566073D01*
X1123312Y566129D01*
X1123229Y566323D01*
X1123118Y566517D01*
X1122896Y566989D01*
X1122673Y567517D01*
X1122479Y568044D01*
X1122285Y568516D01*
X1122202Y568738D01*
X1122118Y568933D01*
X1122063Y569072D01*
X1122007Y569183D01*
X1121980Y569266D01*
Y569294D01*
X1116677Y583452D01*
X1119037D01*
X1122035Y575318D01*
X1122257Y574735D01*
X1122424Y574180D01*
X1122618Y573624D01*
X1122757Y573153D01*
X1122868Y572736D01*
X1122923Y572570D01*
X1122951Y572431D01*
X1122979Y572320D01*
X1123007Y572236D01*
X1123035Y572181D01*
Y572153D01*
X1123201Y572792D01*
X1123368Y573375D01*
X1123534Y573930D01*
X1123701Y574402D01*
X1123840Y574790D01*
X1123895Y574957D01*
X1123951Y575096D01*
X1123978Y575235D01*
X1124006Y575318D01*
X1124034Y575346D01*
Y575374D01*
X1126949Y583452D01*
X1129447D01*
X1124173Y569516D01*
D02*
G37*
G36*
X1239414Y583730D02*
X1239913Y583674D01*
X1240385Y583591D01*
X1240829Y583452D01*
X1241246Y583313D01*
X1241635Y583147D01*
X1241995Y582980D01*
X1242301Y582786D01*
X1242606Y582620D01*
X1242856Y582425D01*
X1243078Y582259D01*
X1243245Y582120D01*
X1243384Y581981D01*
X1243495Y581898D01*
X1243550Y581842D01*
X1243578Y581814D01*
X1243883Y581426D01*
X1244161Y581009D01*
X1244411Y580593D01*
X1244633Y580149D01*
X1244799Y579677D01*
X1244938Y579232D01*
X1245160Y578344D01*
X1245244Y577955D01*
X1245299Y577567D01*
X1245327Y577234D01*
X1245355Y576928D01*
X1245383Y576678D01*
Y576512D01*
Y576373D01*
Y576345D01*
X1245355Y575734D01*
X1245299Y575151D01*
X1245216Y574596D01*
X1245105Y574096D01*
X1244966Y573624D01*
X1244827Y573180D01*
X1244661Y572792D01*
X1244494Y572431D01*
X1244327Y572125D01*
X1244161Y571848D01*
X1244022Y571626D01*
X1243883Y571431D01*
X1243772Y571265D01*
X1243689Y571154D01*
X1243633Y571098D01*
X1243606Y571070D01*
X1243245Y570737D01*
X1242884Y570460D01*
X1242495Y570210D01*
X1242079Y569988D01*
X1241690Y569821D01*
X1241274Y569655D01*
X1240496Y569432D01*
X1240135Y569377D01*
X1239802Y569321D01*
X1239497Y569266D01*
X1239247Y569238D01*
X1239053Y569210D01*
X1238747D01*
X1237887Y569266D01*
X1237109Y569405D01*
X1236415Y569571D01*
X1236138Y569682D01*
X1235860Y569793D01*
X1235610Y569904D01*
X1235388Y570015D01*
X1235221Y570099D01*
X1235055Y570182D01*
X1234944Y570265D01*
X1234861Y570321D01*
X1234805Y570376D01*
X1234777D01*
X1234222Y570876D01*
X1233778Y571404D01*
X1233389Y571959D01*
X1233112Y572486D01*
X1232889Y572958D01*
X1232806Y573180D01*
X1232723Y573347D01*
X1232667Y573513D01*
X1232640Y573624D01*
X1232612Y573680D01*
Y573708D01*
X1235055Y574013D01*
X1235277Y573486D01*
X1235527Y573041D01*
X1235777Y572653D01*
X1235999Y572347D01*
X1236193Y572125D01*
X1236360Y571959D01*
X1236499Y571848D01*
X1236526Y571820D01*
X1236887Y571598D01*
X1237248Y571431D01*
X1237637Y571320D01*
X1237970Y571237D01*
X1238275Y571181D01*
X1238525Y571154D01*
X1238747D01*
X1239081Y571181D01*
X1239386Y571209D01*
X1239941Y571348D01*
X1240441Y571542D01*
X1240885Y571764D01*
X1241218Y571959D01*
X1241468Y572153D01*
X1241635Y572292D01*
X1241662Y572347D01*
X1241690D01*
X1242079Y572847D01*
X1242384Y573402D01*
X1242606Y574013D01*
X1242773Y574568D01*
X1242856Y575068D01*
X1242912Y575290D01*
X1242939Y575485D01*
Y575651D01*
X1242967Y575762D01*
Y575845D01*
Y575873D01*
X1232556D01*
X1232529Y576151D01*
Y576345D01*
Y576456D01*
Y576484D01*
X1232556Y577123D01*
X1232612Y577706D01*
X1232695Y578261D01*
X1232806Y578788D01*
X1232945Y579260D01*
X1233084Y579705D01*
X1233250Y580093D01*
X1233417Y580454D01*
X1233584Y580787D01*
X1233750Y581065D01*
X1233889Y581287D01*
X1234028Y581481D01*
X1234139Y581648D01*
X1234222Y581759D01*
X1234278Y581814D01*
X1234305Y581842D01*
X1234639Y582175D01*
X1234999Y582481D01*
X1235388Y582730D01*
X1235777Y582953D01*
X1236165Y583147D01*
X1236526Y583286D01*
X1236915Y583425D01*
X1237248Y583508D01*
X1237609Y583591D01*
X1237914Y583647D01*
X1238192Y583702D01*
X1238414Y583730D01*
X1238608Y583758D01*
X1238886D01*
X1239414Y583730D01*
D02*
G37*
G36*
X1175200D02*
X1175699Y583674D01*
X1176171Y583591D01*
X1176616Y583452D01*
X1177032Y583313D01*
X1177421Y583147D01*
X1177782Y582980D01*
X1178087Y582786D01*
X1178392Y582620D01*
X1178642Y582425D01*
X1178864Y582259D01*
X1179031Y582120D01*
X1179170Y581981D01*
X1179281Y581898D01*
X1179336Y581842D01*
X1179364Y581814D01*
X1179669Y581426D01*
X1179947Y581009D01*
X1180197Y580593D01*
X1180419Y580149D01*
X1180585Y579677D01*
X1180724Y579232D01*
X1180946Y578344D01*
X1181030Y577955D01*
X1181085Y577567D01*
X1181113Y577234D01*
X1181141Y576928D01*
X1181169Y576678D01*
Y576512D01*
Y576373D01*
Y576345D01*
X1181141Y575734D01*
X1181085Y575151D01*
X1181002Y574596D01*
X1180891Y574096D01*
X1180752Y573624D01*
X1180613Y573180D01*
X1180447Y572792D01*
X1180280Y572431D01*
X1180114Y572125D01*
X1179947Y571848D01*
X1179808Y571626D01*
X1179669Y571431D01*
X1179558Y571265D01*
X1179475Y571154D01*
X1179419Y571098D01*
X1179392Y571070D01*
X1179031Y570737D01*
X1178670Y570460D01*
X1178281Y570210D01*
X1177865Y569988D01*
X1177476Y569821D01*
X1177060Y569655D01*
X1176282Y569432D01*
X1175921Y569377D01*
X1175588Y569321D01*
X1175283Y569266D01*
X1175033Y569238D01*
X1174839Y569210D01*
X1174533D01*
X1173673Y569266D01*
X1172895Y569405D01*
X1172201Y569571D01*
X1171924Y569682D01*
X1171646Y569793D01*
X1171396Y569904D01*
X1171174Y570015D01*
X1171008Y570099D01*
X1170841Y570182D01*
X1170730Y570265D01*
X1170647Y570321D01*
X1170591Y570376D01*
X1170563D01*
X1170008Y570876D01*
X1169564Y571404D01*
X1169175Y571959D01*
X1168898Y572486D01*
X1168676Y572958D01*
X1168592Y573180D01*
X1168509Y573347D01*
X1168453Y573513D01*
X1168426Y573624D01*
X1168398Y573680D01*
Y573708D01*
X1170841Y574013D01*
X1171063Y573486D01*
X1171313Y573041D01*
X1171563Y572653D01*
X1171785Y572347D01*
X1171979Y572125D01*
X1172146Y571959D01*
X1172285Y571848D01*
X1172312Y571820D01*
X1172673Y571598D01*
X1173034Y571431D01*
X1173423Y571320D01*
X1173756Y571237D01*
X1174061Y571181D01*
X1174311Y571154D01*
X1174533D01*
X1174866Y571181D01*
X1175172Y571209D01*
X1175727Y571348D01*
X1176227Y571542D01*
X1176671Y571764D01*
X1177004Y571959D01*
X1177254Y572153D01*
X1177421Y572292D01*
X1177448Y572347D01*
X1177476D01*
X1177865Y572847D01*
X1178170Y573402D01*
X1178392Y574013D01*
X1178559Y574568D01*
X1178642Y575068D01*
X1178698Y575290D01*
X1178725Y575485D01*
Y575651D01*
X1178753Y575762D01*
Y575845D01*
Y575873D01*
X1168342D01*
X1168315Y576151D01*
Y576345D01*
Y576456D01*
Y576484D01*
X1168342Y577123D01*
X1168398Y577706D01*
X1168481Y578261D01*
X1168592Y578788D01*
X1168731Y579260D01*
X1168870Y579705D01*
X1169036Y580093D01*
X1169203Y580454D01*
X1169370Y580787D01*
X1169536Y581065D01*
X1169675Y581287D01*
X1169814Y581481D01*
X1169925Y581648D01*
X1170008Y581759D01*
X1170064Y581814D01*
X1170091Y581842D01*
X1170424Y582175D01*
X1170785Y582481D01*
X1171174Y582730D01*
X1171563Y582953D01*
X1171952Y583147D01*
X1172312Y583286D01*
X1172701Y583425D01*
X1173034Y583508D01*
X1173395Y583591D01*
X1173700Y583647D01*
X1173978Y583702D01*
X1174200Y583730D01*
X1174395Y583758D01*
X1174672D01*
X1175200Y583730D01*
D02*
G37*
G36*
X1263650Y569516D02*
X1256737D01*
X1256099Y569543D01*
X1255516Y569571D01*
X1254988Y569627D01*
X1254544Y569682D01*
X1254155Y569738D01*
X1253878Y569766D01*
X1253794Y569793D01*
X1253711Y569821D01*
X1253656D01*
X1253156Y569960D01*
X1252712Y570126D01*
X1252323Y570265D01*
X1251990Y570432D01*
X1251712Y570571D01*
X1251518Y570682D01*
X1251407Y570765D01*
X1251351Y570793D01*
X1250990Y571043D01*
X1250685Y571348D01*
X1250380Y571626D01*
X1250130Y571903D01*
X1249908Y572153D01*
X1249741Y572347D01*
X1249630Y572486D01*
X1249602Y572542D01*
X1249325Y572986D01*
X1249047Y573458D01*
X1248825Y573902D01*
X1248658Y574346D01*
X1248492Y574735D01*
X1248381Y575040D01*
X1248353Y575151D01*
X1248325Y575235D01*
X1248298Y575290D01*
Y575318D01*
X1248131Y575984D01*
X1247992Y576651D01*
X1247909Y577289D01*
X1247825Y577900D01*
X1247798Y578427D01*
Y578649D01*
X1247770Y578844D01*
Y578983D01*
Y579121D01*
Y579177D01*
Y579205D01*
X1247798Y580149D01*
X1247881Y581009D01*
X1248020Y581787D01*
X1248075Y582147D01*
X1248159Y582453D01*
X1248242Y582758D01*
X1248298Y583008D01*
X1248353Y583230D01*
X1248436Y583425D01*
X1248464Y583591D01*
X1248520Y583702D01*
X1248547Y583758D01*
Y583786D01*
X1248853Y584507D01*
X1249214Y585146D01*
X1249602Y585701D01*
X1249963Y586173D01*
X1250296Y586562D01*
X1250574Y586839D01*
X1250685Y586923D01*
X1250768Y587006D01*
X1250796Y587034D01*
X1250824Y587061D01*
X1251268Y587422D01*
X1251740Y587700D01*
X1252212Y587950D01*
X1252656Y588144D01*
X1253045Y588283D01*
X1253350Y588366D01*
X1253461Y588422D01*
X1253545D01*
X1253600Y588450D01*
X1253628D01*
X1254100Y588533D01*
X1254655Y588616D01*
X1255210Y588672D01*
X1255766Y588699D01*
X1256265Y588727D01*
X1263650D01*
Y569516D01*
D02*
G37*
G36*
X1216204D02*
X1213845D01*
Y583452D01*
X1216204D01*
Y569516D01*
D02*
G37*
G36*
X1189303Y583730D02*
X1189802Y583647D01*
X1190247Y583536D01*
X1190691Y583397D01*
X1191080Y583230D01*
X1191441Y583036D01*
X1191774Y582814D01*
X1192051Y582620D01*
X1192329Y582397D01*
X1192551Y582175D01*
X1192745Y581981D01*
X1192912Y581814D01*
X1193023Y581676D01*
X1193106Y581564D01*
X1193162Y581481D01*
X1193189Y581454D01*
Y583452D01*
X1195300D01*
Y569516D01*
X1192940D01*
Y577095D01*
Y577567D01*
X1192884Y578039D01*
X1192829Y578427D01*
X1192773Y578788D01*
X1192690Y579121D01*
X1192607Y579427D01*
X1192495Y579705D01*
X1192384Y579927D01*
X1192301Y580121D01*
X1192190Y580288D01*
X1192107Y580426D01*
X1192023Y580537D01*
X1191913Y580676D01*
X1191857Y580732D01*
X1191441Y581065D01*
X1190996Y581287D01*
X1190552Y581454D01*
X1190163Y581592D01*
X1189802Y581648D01*
X1189525Y581676D01*
X1189414Y581703D01*
X1189275D01*
X1188942Y581676D01*
X1188609Y581648D01*
X1188331Y581564D01*
X1188109Y581481D01*
X1187915Y581398D01*
X1187748Y581342D01*
X1187665Y581287D01*
X1187637Y581259D01*
X1187387Y581093D01*
X1187165Y580898D01*
X1186999Y580704D01*
X1186860Y580537D01*
X1186777Y580371D01*
X1186693Y580232D01*
X1186638Y580149D01*
Y580121D01*
X1186554Y579815D01*
X1186471Y579482D01*
X1186416Y579121D01*
X1186388Y578760D01*
X1186360Y578455D01*
Y578205D01*
Y578011D01*
Y577983D01*
Y577955D01*
Y569516D01*
X1184000D01*
Y578066D01*
Y578649D01*
X1184028Y579121D01*
X1184056Y579510D01*
Y579843D01*
X1184083Y580065D01*
X1184111Y580232D01*
X1184139Y580343D01*
Y580371D01*
X1184222Y580732D01*
X1184361Y581065D01*
X1184472Y581342D01*
X1184583Y581620D01*
X1184722Y581814D01*
X1184805Y581953D01*
X1184861Y582064D01*
X1184889Y582092D01*
X1185111Y582370D01*
X1185361Y582592D01*
X1185611Y582814D01*
X1185888Y582980D01*
X1186110Y583119D01*
X1186304Y583203D01*
X1186416Y583258D01*
X1186471Y583286D01*
X1186860Y583452D01*
X1187276Y583563D01*
X1187665Y583647D01*
X1188026Y583702D01*
X1188331Y583730D01*
X1188553Y583758D01*
X1188775D01*
X1189303Y583730D01*
D02*
G37*
G36*
X1106988Y569516D02*
X1099659D01*
X1098992Y569543D01*
X1098409Y569571D01*
X1097882Y569627D01*
X1097438Y569682D01*
X1097077Y569738D01*
X1096799Y569766D01*
X1096633Y569821D01*
X1096577D01*
X1096105Y569960D01*
X1095716Y570099D01*
X1095356Y570265D01*
X1095050Y570432D01*
X1094800Y570543D01*
X1094606Y570654D01*
X1094495Y570737D01*
X1094467Y570765D01*
X1094162Y571015D01*
X1093884Y571320D01*
X1093662Y571626D01*
X1093440Y571903D01*
X1093273Y572181D01*
X1093162Y572375D01*
X1093079Y572514D01*
X1093051Y572570D01*
X1092857Y573014D01*
X1092718Y573458D01*
X1092607Y573874D01*
X1092552Y574263D01*
X1092496Y574596D01*
X1092468Y574874D01*
Y575040D01*
Y575068D01*
Y575096D01*
X1092496Y575707D01*
X1092607Y576262D01*
X1092774Y576734D01*
X1092940Y577178D01*
X1093107Y577511D01*
X1093273Y577761D01*
X1093384Y577928D01*
X1093412Y577983D01*
X1093801Y578427D01*
X1094217Y578788D01*
X1094689Y579094D01*
X1095106Y579343D01*
X1095494Y579538D01*
X1095827Y579649D01*
X1095938Y579705D01*
X1096022Y579732D01*
X1096077Y579760D01*
X1096105D01*
X1095633Y580038D01*
X1095217Y580315D01*
X1094884Y580621D01*
X1094606Y580898D01*
X1094384Y581120D01*
X1094217Y581342D01*
X1094134Y581454D01*
X1094106Y581509D01*
X1093884Y581925D01*
X1093718Y582314D01*
X1093579Y582703D01*
X1093495Y583064D01*
X1093440Y583369D01*
X1093412Y583619D01*
Y583758D01*
Y583813D01*
X1093440Y584285D01*
X1093523Y584757D01*
X1093662Y585174D01*
X1093801Y585562D01*
X1093940Y585895D01*
X1094079Y586118D01*
X1094162Y586284D01*
X1094190Y586340D01*
X1094495Y586756D01*
X1094828Y587145D01*
X1095189Y587450D01*
X1095522Y587700D01*
X1095800Y587894D01*
X1096050Y588033D01*
X1096216Y588116D01*
X1096244Y588144D01*
X1096272D01*
X1096799Y588339D01*
X1097382Y588477D01*
X1097965Y588588D01*
X1098520Y588644D01*
X1099020Y588699D01*
X1099242D01*
X1099437Y588727D01*
X1106988D01*
Y569516D01*
D02*
G37*
G36*
X1088609D02*
X1085916D01*
Y572209D01*
X1088609D01*
Y569516D01*
D02*
G37*
G36*
X1081086D02*
X1078532D01*
Y588727D01*
X1081086D01*
Y569516D01*
D02*
G37*
G36*
X1073673D02*
X1070980D01*
Y572209D01*
X1073673D01*
Y569516D01*
D02*
G37*
G36*
X1048299D02*
X1045606D01*
Y572209D01*
X1048299D01*
Y569516D01*
D02*
G37*
G36*
X1225866Y583702D02*
X1226199Y583674D01*
X1226504Y583619D01*
X1226754Y583563D01*
X1226948Y583508D01*
X1227059Y583480D01*
X1227115Y583452D01*
X1227448Y583341D01*
X1227754Y583230D01*
X1228003Y583119D01*
X1228225Y583008D01*
X1228392Y582925D01*
X1228503Y582842D01*
X1228586Y582814D01*
X1228614Y582786D01*
X1228892Y582592D01*
X1229114Y582370D01*
X1229308Y582120D01*
X1229475Y581925D01*
X1229613Y581731D01*
X1229697Y581592D01*
X1229752Y581481D01*
X1229780Y581454D01*
X1229919Y581148D01*
X1230030Y580871D01*
X1230086Y580565D01*
X1230141Y580315D01*
X1230169Y580065D01*
X1230197Y579899D01*
Y579788D01*
Y579732D01*
X1230169Y579343D01*
X1230113Y579010D01*
X1230030Y578677D01*
X1229947Y578400D01*
X1229863Y578177D01*
X1229780Y577983D01*
X1229725Y577872D01*
X1229697Y577844D01*
X1229475Y577539D01*
X1229225Y577289D01*
X1228975Y577067D01*
X1228725Y576873D01*
X1228503Y576734D01*
X1228336Y576623D01*
X1228225Y576567D01*
X1228170Y576540D01*
X1227976Y576456D01*
X1227726Y576345D01*
X1227170Y576151D01*
X1226588Y575984D01*
X1225977Y575790D01*
X1225449Y575651D01*
X1225199Y575568D01*
X1224977Y575512D01*
X1224811Y575457D01*
X1224672Y575429D01*
X1224589Y575401D01*
X1224561D01*
X1224200Y575318D01*
X1223895Y575235D01*
X1223617Y575151D01*
X1223367Y575068D01*
X1223145Y575013D01*
X1222951Y574929D01*
X1222617Y574818D01*
X1222395Y574735D01*
X1222257Y574652D01*
X1222173Y574624D01*
X1222145Y574596D01*
X1221896Y574430D01*
X1221729Y574207D01*
X1221590Y574013D01*
X1221507Y573819D01*
X1221451Y573624D01*
X1221424Y573486D01*
Y573375D01*
Y573347D01*
X1221451Y573014D01*
X1221535Y572736D01*
X1221674Y572458D01*
X1221812Y572236D01*
X1221979Y572042D01*
X1222090Y571903D01*
X1222201Y571820D01*
X1222229Y571792D01*
X1222562Y571570D01*
X1222923Y571431D01*
X1223339Y571320D01*
X1223728Y571237D01*
X1224089Y571181D01*
X1224367Y571154D01*
X1224644D01*
X1225227Y571181D01*
X1225727Y571265D01*
X1226143Y571376D01*
X1226504Y571515D01*
X1226782Y571653D01*
X1227004Y571764D01*
X1227115Y571848D01*
X1227170Y571875D01*
X1227476Y572181D01*
X1227726Y572542D01*
X1227892Y572903D01*
X1228031Y573236D01*
X1228142Y573541D01*
X1228198Y573819D01*
X1228253Y573985D01*
Y574013D01*
Y574041D01*
X1230585Y573680D01*
X1230391Y572903D01*
X1230141Y572209D01*
X1229836Y571653D01*
X1229530Y571181D01*
X1229253Y570793D01*
X1229003Y570543D01*
X1228836Y570376D01*
X1228808Y570349D01*
X1228781Y570321D01*
X1228503Y570126D01*
X1228198Y569960D01*
X1227531Y569682D01*
X1226837Y569488D01*
X1226171Y569349D01*
X1225866Y569294D01*
X1225588Y569266D01*
X1225310Y569238D01*
X1225088D01*
X1224894Y569210D01*
X1224644D01*
X1224033Y569238D01*
X1223506Y569294D01*
X1223006Y569377D01*
X1222562Y569488D01*
X1222201Y569599D01*
X1221923Y569682D01*
X1221757Y569738D01*
X1221729Y569766D01*
X1221701D01*
X1221229Y570015D01*
X1220841Y570265D01*
X1220508Y570543D01*
X1220202Y570793D01*
X1219980Y571015D01*
X1219841Y571209D01*
X1219730Y571320D01*
X1219702Y571376D01*
X1219480Y571764D01*
X1219314Y572181D01*
X1219175Y572542D01*
X1219092Y572875D01*
X1219036Y573180D01*
X1219008Y573402D01*
Y573541D01*
Y573597D01*
X1219036Y574041D01*
X1219092Y574430D01*
X1219203Y574763D01*
X1219286Y575068D01*
X1219397Y575318D01*
X1219508Y575485D01*
X1219564Y575596D01*
X1219591Y575623D01*
X1219814Y575901D01*
X1220063Y576151D01*
X1220313Y576373D01*
X1220563Y576540D01*
X1220813Y576678D01*
X1220980Y576762D01*
X1221090Y576817D01*
X1221146Y576845D01*
X1221340Y576928D01*
X1221562Y577011D01*
X1222090Y577206D01*
X1222673Y577400D01*
X1223256Y577567D01*
X1223783Y577733D01*
X1224033Y577789D01*
X1224228Y577844D01*
X1224394Y577900D01*
X1224533Y577928D01*
X1224616Y577955D01*
X1224644D01*
X1224949Y578039D01*
X1225227Y578122D01*
X1225477Y578177D01*
X1225699Y578261D01*
X1226060Y578344D01*
X1226338Y578427D01*
X1226532Y578511D01*
X1226643Y578538D01*
X1226699Y578566D01*
X1226726D01*
X1226948Y578677D01*
X1227143Y578760D01*
X1227309Y578872D01*
X1227420Y578955D01*
X1227531Y579038D01*
X1227587Y579121D01*
X1227615Y579149D01*
X1227642Y579177D01*
X1227809Y579455D01*
X1227892Y579732D01*
Y579843D01*
X1227920Y579927D01*
Y579982D01*
Y580010D01*
X1227892Y580260D01*
X1227809Y580510D01*
X1227698Y580732D01*
X1227559Y580898D01*
X1227448Y581065D01*
X1227337Y581176D01*
X1227254Y581231D01*
X1227226Y581259D01*
X1226921Y581454D01*
X1226560Y581592D01*
X1226171Y581676D01*
X1225810Y581759D01*
X1225449Y581787D01*
X1225172Y581814D01*
X1224894D01*
X1224422Y581787D01*
X1223978Y581731D01*
X1223617Y581620D01*
X1223339Y581509D01*
X1223089Y581398D01*
X1222923Y581287D01*
X1222812Y581231D01*
X1222784Y581204D01*
X1222506Y580954D01*
X1222312Y580676D01*
X1222145Y580398D01*
X1222007Y580149D01*
X1221923Y579899D01*
X1221868Y579705D01*
X1221840Y579593D01*
Y579538D01*
X1219536Y579843D01*
X1219647Y580315D01*
X1219758Y580732D01*
X1219897Y581093D01*
X1220036Y581426D01*
X1220174Y581648D01*
X1220285Y581842D01*
X1220341Y581953D01*
X1220369Y581981D01*
X1220619Y582259D01*
X1220896Y582508D01*
X1221202Y582730D01*
X1221507Y582925D01*
X1221785Y583064D01*
X1222007Y583175D01*
X1222145Y583230D01*
X1222173Y583258D01*
X1222201D01*
X1222673Y583425D01*
X1223173Y583536D01*
X1223645Y583647D01*
X1224089Y583702D01*
X1224505Y583730D01*
X1224811Y583758D01*
X1225477D01*
X1225866Y583702D01*
D02*
G37*
G36*
X1156599Y581842D02*
X1156849Y582147D01*
X1157126Y582397D01*
X1157376Y582647D01*
X1157654Y582842D01*
X1157876Y582980D01*
X1158043Y583119D01*
X1158154Y583175D01*
X1158209Y583203D01*
X1158570Y583397D01*
X1158959Y583536D01*
X1159347Y583619D01*
X1159708Y583702D01*
X1160014Y583730D01*
X1160236Y583758D01*
X1160458D01*
X1161069Y583730D01*
X1161652Y583619D01*
X1162179Y583480D01*
X1162623Y583313D01*
X1163012Y583119D01*
X1163290Y582980D01*
X1163401Y582925D01*
X1163484Y582869D01*
X1163512Y582842D01*
X1163540D01*
X1164039Y582481D01*
X1164456Y582037D01*
X1164817Y581620D01*
X1165094Y581204D01*
X1165316Y580815D01*
X1165483Y580510D01*
X1165538Y580398D01*
X1165594Y580315D01*
X1165622Y580260D01*
Y580232D01*
X1165844Y579593D01*
X1166010Y578927D01*
X1166149Y578289D01*
X1166232Y577706D01*
X1166288Y577206D01*
Y576984D01*
X1166316Y576817D01*
Y576651D01*
Y576540D01*
Y576484D01*
Y576456D01*
X1166288Y575679D01*
X1166205Y574957D01*
X1166066Y574319D01*
X1165927Y573763D01*
X1165872Y573513D01*
X1165816Y573319D01*
X1165733Y573125D01*
X1165677Y572958D01*
X1165622Y572847D01*
X1165594Y572764D01*
X1165566Y572708D01*
Y572681D01*
X1165261Y572098D01*
X1164900Y571598D01*
X1164539Y571154D01*
X1164178Y570793D01*
X1163873Y570515D01*
X1163623Y570293D01*
X1163456Y570182D01*
X1163428Y570126D01*
X1163401D01*
X1162873Y569821D01*
X1162346Y569599D01*
X1161818Y569432D01*
X1161346Y569321D01*
X1160958Y569266D01*
X1160624Y569238D01*
X1160513Y569210D01*
X1160347D01*
X1159875Y569238D01*
X1159431Y569294D01*
X1159014Y569405D01*
X1158653Y569543D01*
X1158292Y569682D01*
X1157959Y569849D01*
X1157682Y570043D01*
X1157432Y570238D01*
X1157182Y570432D01*
X1156988Y570626D01*
X1156821Y570793D01*
X1156682Y570932D01*
X1156571Y571070D01*
X1156488Y571181D01*
X1156460Y571237D01*
X1156432Y571265D01*
Y569516D01*
X1154239D01*
Y588727D01*
X1156599D01*
Y581842D01*
D02*
G37*
%LPC*%
G36*
X1299412Y643378D02*
X1294859D01*
X1294248Y643323D01*
X1293776Y643295D01*
X1293360Y643239D01*
X1293054Y643184D01*
X1292860Y643156D01*
X1292721Y643101D01*
X1292693D01*
X1292388Y642989D01*
X1292110Y642823D01*
X1291888Y642656D01*
X1291694Y642490D01*
X1291555Y642351D01*
X1291444Y642212D01*
X1291388Y642129D01*
X1291361Y642101D01*
X1291194Y641823D01*
X1291083Y641546D01*
X1291000Y641268D01*
X1290944Y640991D01*
X1290916Y640768D01*
X1290889Y640602D01*
Y640491D01*
Y640435D01*
X1290916Y640074D01*
X1290972Y639741D01*
X1291055Y639464D01*
X1291139Y639241D01*
X1291222Y639047D01*
X1291305Y638881D01*
X1291361Y638797D01*
X1291388Y638770D01*
X1291583Y638548D01*
X1291833Y638325D01*
X1292083Y638159D01*
X1292305Y638048D01*
X1292527Y637937D01*
X1292693Y637853D01*
X1292804Y637826D01*
X1292860Y637798D01*
X1293165Y637742D01*
X1293554Y637687D01*
X1293943Y637659D01*
X1294331Y637631D01*
X1294692Y637604D01*
X1299412D01*
Y643378D01*
D02*
G37*
G36*
Y635327D02*
X1294359D01*
X1293776Y635271D01*
X1293304Y635216D01*
X1292915Y635160D01*
X1292610Y635105D01*
X1292360Y635049D01*
X1292249Y635022D01*
X1292193Y634994D01*
X1291833Y634855D01*
X1291527Y634688D01*
X1291250Y634494D01*
X1291028Y634300D01*
X1290861Y634133D01*
X1290750Y633994D01*
X1290667Y633883D01*
X1290639Y633856D01*
X1290444Y633550D01*
X1290306Y633245D01*
X1290195Y632939D01*
X1290139Y632662D01*
X1290084Y632412D01*
X1290056Y632190D01*
Y632079D01*
Y632023D01*
X1290084Y631690D01*
X1290111Y631357D01*
X1290167Y631079D01*
X1290250Y630857D01*
X1290334Y630663D01*
X1290389Y630496D01*
X1290417Y630413D01*
X1290444Y630385D01*
X1290611Y630135D01*
X1290750Y629913D01*
X1290944Y629747D01*
X1291083Y629580D01*
X1291222Y629469D01*
X1291333Y629386D01*
X1291416Y629330D01*
X1291444Y629303D01*
X1291916Y629081D01*
X1292388Y628914D01*
X1292582Y628858D01*
X1292749Y628831D01*
X1292860Y628803D01*
X1292888D01*
X1293110Y628775D01*
X1293360Y628747D01*
X1293943Y628720D01*
X1299412D01*
Y635327D01*
D02*
G37*
G36*
X1084504Y643378D02*
X1080063D01*
X1079702Y643350D01*
X1079341D01*
X1079008Y643323D01*
X1078452Y643239D01*
X1078008Y643184D01*
X1077647Y643101D01*
X1077397Y643017D01*
X1077259Y642989D01*
X1077203Y642962D01*
X1076703Y642712D01*
X1076231Y642406D01*
X1075815Y642046D01*
X1075454Y641685D01*
X1075176Y641351D01*
X1074954Y641074D01*
X1074899Y640963D01*
X1074843Y640880D01*
X1074788Y640824D01*
Y640796D01*
X1074621Y640491D01*
X1074455Y640130D01*
X1074205Y639408D01*
X1074038Y638631D01*
X1073899Y637881D01*
X1073872Y637548D01*
X1073844Y637215D01*
X1073816Y636937D01*
Y636687D01*
X1073788Y636465D01*
Y636326D01*
Y636215D01*
Y636188D01*
X1073816Y635410D01*
X1073872Y634688D01*
X1073955Y634050D01*
X1074038Y633495D01*
X1074094Y633273D01*
X1074149Y633078D01*
X1074205Y632884D01*
X1074232Y632745D01*
X1074260Y632634D01*
X1074288Y632551D01*
X1074316Y632495D01*
Y632467D01*
X1074510Y631940D01*
X1074732Y631468D01*
X1074982Y631052D01*
X1075204Y630691D01*
X1075398Y630413D01*
X1075565Y630219D01*
X1075676Y630108D01*
X1075704Y630052D01*
X1075982Y629830D01*
X1076259Y629636D01*
X1076537Y629469D01*
X1076814Y629303D01*
X1077064Y629192D01*
X1077259Y629108D01*
X1077397Y629081D01*
X1077453Y629053D01*
X1077869Y628942D01*
X1078369Y628858D01*
X1078869Y628803D01*
X1079341Y628775D01*
X1079757Y628747D01*
X1079951Y628720D01*
X1084504D01*
Y643378D01*
D02*
G37*
G36*
X982062Y643656D02*
X981868Y643017D01*
X981646Y642351D01*
X981423Y641685D01*
X981201Y641046D01*
X981090Y640768D01*
X981007Y640491D01*
X980924Y640241D01*
X980841Y640047D01*
X980785Y639880D01*
X980729Y639741D01*
X980702Y639658D01*
Y639630D01*
X978703Y634355D01*
X985199D01*
X983117Y639963D01*
X982867Y640657D01*
X982673Y641324D01*
X982478Y641935D01*
X982340Y642490D01*
X982229Y642962D01*
X982173Y643156D01*
X982145Y643350D01*
X982090Y643461D01*
Y643572D01*
X982062Y643628D01*
Y643656D01*
D02*
G37*
G36*
X968125Y643517D02*
X962073D01*
X961324Y643489D01*
X960685Y643378D01*
X960130Y643239D01*
X959713Y643073D01*
X959352Y642906D01*
X959130Y642767D01*
X958992Y642656D01*
X958936Y642628D01*
X958603Y642268D01*
X958353Y641907D01*
X958186Y641518D01*
X958048Y641185D01*
X957992Y640852D01*
X957964Y640602D01*
X957937Y640435D01*
Y640407D01*
Y640380D01*
X957964Y640047D01*
X958020Y639714D01*
X958103Y639436D01*
X958186Y639186D01*
X958298Y638964D01*
X958381Y638797D01*
X958436Y638686D01*
X958464Y638658D01*
X958659Y638381D01*
X958908Y638131D01*
X959158Y637937D01*
X959408Y637770D01*
X959630Y637659D01*
X959797Y637576D01*
X959908Y637520D01*
X959963Y637492D01*
X960352Y637382D01*
X960796Y637298D01*
X961240Y637243D01*
X961684Y637215D01*
X962073Y637187D01*
X962406Y637159D01*
X968125D01*
Y643517D01*
D02*
G37*
G36*
X948775Y643378D02*
X944333D01*
X943972Y643350D01*
X943611D01*
X943278Y643323D01*
X942723Y643239D01*
X942279Y643184D01*
X941918Y643101D01*
X941668Y643017D01*
X941529Y642989D01*
X941474Y642962D01*
X940974Y642712D01*
X940502Y642406D01*
X940086Y642046D01*
X939725Y641685D01*
X939447Y641351D01*
X939225Y641074D01*
X939169Y640963D01*
X939114Y640880D01*
X939058Y640824D01*
Y640796D01*
X938892Y640491D01*
X938725Y640130D01*
X938475Y639408D01*
X938309Y638631D01*
X938170Y637881D01*
X938142Y637548D01*
X938114Y637215D01*
X938087Y636937D01*
Y636687D01*
X938059Y636465D01*
Y636326D01*
Y636215D01*
Y636188D01*
X938087Y635410D01*
X938142Y634688D01*
X938225Y634050D01*
X938309Y633495D01*
X938364Y633273D01*
X938420Y633078D01*
X938475Y632884D01*
X938503Y632745D01*
X938531Y632634D01*
X938559Y632551D01*
X938586Y632495D01*
Y632467D01*
X938781Y631940D01*
X939003Y631468D01*
X939253Y631052D01*
X939475Y630691D01*
X939669Y630413D01*
X939836Y630219D01*
X939947Y630108D01*
X939975Y630052D01*
X940252Y629830D01*
X940530Y629636D01*
X940807Y629469D01*
X941085Y629303D01*
X941335Y629192D01*
X941529Y629108D01*
X941668Y629081D01*
X941723Y629053D01*
X942140Y628942D01*
X942640Y628858D01*
X943139Y628803D01*
X943611Y628775D01*
X944028Y628747D01*
X944222Y628720D01*
X948775D01*
Y643378D01*
D02*
G37*
G36*
X1207158Y643794D02*
X1206908D01*
X1206214Y643767D01*
X1205548Y643656D01*
X1204965Y643489D01*
X1204465Y643323D01*
X1204048Y643128D01*
X1203882Y643045D01*
X1203743Y642989D01*
X1203604Y642906D01*
X1203521Y642878D01*
X1203493Y642823D01*
X1203465D01*
X1202938Y642434D01*
X1202466Y641990D01*
X1202050Y641546D01*
X1201717Y641102D01*
X1201467Y640713D01*
X1201272Y640380D01*
X1201217Y640269D01*
X1201161Y640185D01*
X1201133Y640130D01*
Y640102D01*
X1200856Y639436D01*
X1200662Y638714D01*
X1200523Y638048D01*
X1200440Y637409D01*
X1200384Y637104D01*
X1200356Y636854D01*
Y636604D01*
X1200328Y636410D01*
Y636243D01*
Y636132D01*
Y636049D01*
Y636021D01*
X1200356Y635355D01*
X1200412Y634716D01*
X1200495Y634105D01*
X1200606Y633550D01*
X1200773Y633050D01*
X1200911Y632579D01*
X1201078Y632134D01*
X1201245Y631746D01*
X1201439Y631413D01*
X1201606Y631107D01*
X1201744Y630857D01*
X1201883Y630663D01*
X1202022Y630496D01*
X1202105Y630358D01*
X1202161Y630302D01*
X1202188Y630274D01*
X1202549Y629913D01*
X1202938Y629608D01*
X1203327Y629358D01*
X1203715Y629108D01*
X1204104Y628914D01*
X1204520Y628775D01*
X1204881Y628636D01*
X1205270Y628525D01*
X1205603Y628442D01*
X1205936Y628386D01*
X1206214Y628331D01*
X1206464Y628303D01*
X1206658D01*
X1206797Y628275D01*
X1206936D01*
X1207463Y628303D01*
X1207963Y628359D01*
X1208407Y628470D01*
X1208851Y628581D01*
X1209268Y628747D01*
X1209657Y628914D01*
X1210017Y629081D01*
X1210351Y629275D01*
X1210628Y629469D01*
X1210878Y629636D01*
X1211100Y629802D01*
X1211294Y629969D01*
X1211433Y630080D01*
X1211544Y630191D01*
X1211600Y630247D01*
X1211628Y630274D01*
X1211961Y630663D01*
X1212238Y631079D01*
X1212488Y631524D01*
X1212710Y631968D01*
X1212877Y632440D01*
X1213044Y632884D01*
X1213266Y633772D01*
X1213321Y634161D01*
X1213377Y634550D01*
X1213432Y634883D01*
X1213460Y635160D01*
X1213488Y635410D01*
Y635605D01*
Y635716D01*
Y635743D01*
X1213460Y636521D01*
X1213404Y637243D01*
X1213321Y637937D01*
X1213182Y638548D01*
X1213044Y639103D01*
X1212877Y639602D01*
X1212683Y640074D01*
X1212516Y640463D01*
X1212322Y640824D01*
X1212155Y641129D01*
X1211989Y641379D01*
X1211850Y641573D01*
X1211711Y641740D01*
X1211628Y641851D01*
X1211572Y641907D01*
X1211544Y641935D01*
X1211183Y642268D01*
X1210795Y642545D01*
X1210406Y642795D01*
X1209990Y643017D01*
X1209601Y643184D01*
X1209212Y643350D01*
X1208491Y643572D01*
X1208157Y643628D01*
X1207852Y643683D01*
X1207602Y643739D01*
X1207352Y643767D01*
X1207158Y643794D01*
D02*
G37*
G36*
X1186281D02*
X1186031D01*
X1185337Y643767D01*
X1184670Y643656D01*
X1184088Y643489D01*
X1183588Y643323D01*
X1183171Y643128D01*
X1183005Y643045D01*
X1182866Y642989D01*
X1182727Y642906D01*
X1182644Y642878D01*
X1182616Y642823D01*
X1182588D01*
X1182061Y642434D01*
X1181589Y641990D01*
X1181172Y641546D01*
X1180839Y641102D01*
X1180590Y640713D01*
X1180395Y640380D01*
X1180340Y640269D01*
X1180284Y640185D01*
X1180256Y640130D01*
Y640102D01*
X1179979Y639436D01*
X1179784Y638714D01*
X1179646Y638048D01*
X1179562Y637409D01*
X1179507Y637104D01*
X1179479Y636854D01*
Y636604D01*
X1179451Y636410D01*
Y636243D01*
Y636132D01*
Y636049D01*
Y636021D01*
X1179479Y635355D01*
X1179535Y634716D01*
X1179618Y634105D01*
X1179729Y633550D01*
X1179895Y633050D01*
X1180034Y632579D01*
X1180201Y632134D01*
X1180367Y631746D01*
X1180562Y631413D01*
X1180728Y631107D01*
X1180867Y630857D01*
X1181006Y630663D01*
X1181145Y630496D01*
X1181228Y630358D01*
X1181283Y630302D01*
X1181311Y630274D01*
X1181672Y629913D01*
X1182061Y629608D01*
X1182450Y629358D01*
X1182838Y629108D01*
X1183227Y628914D01*
X1183643Y628775D01*
X1184004Y628636D01*
X1184393Y628525D01*
X1184726Y628442D01*
X1185059Y628386D01*
X1185337Y628331D01*
X1185587Y628303D01*
X1185781D01*
X1185920Y628275D01*
X1186059D01*
X1186586Y628303D01*
X1187086Y628359D01*
X1187530Y628470D01*
X1187974Y628581D01*
X1188391Y628747D01*
X1188779Y628914D01*
X1189140Y629081D01*
X1189473Y629275D01*
X1189751Y629469D01*
X1190001Y629636D01*
X1190223Y629802D01*
X1190417Y629969D01*
X1190556Y630080D01*
X1190667Y630191D01*
X1190723Y630247D01*
X1190751Y630274D01*
X1191084Y630663D01*
X1191361Y631079D01*
X1191611Y631524D01*
X1191833Y631968D01*
X1192000Y632440D01*
X1192166Y632884D01*
X1192388Y633772D01*
X1192444Y634161D01*
X1192499Y634550D01*
X1192555Y634883D01*
X1192583Y635160D01*
X1192610Y635410D01*
Y635605D01*
Y635716D01*
Y635743D01*
X1192583Y636521D01*
X1192527Y637243D01*
X1192444Y637937D01*
X1192305Y638548D01*
X1192166Y639103D01*
X1192000Y639602D01*
X1191805Y640074D01*
X1191639Y640463D01*
X1191444Y640824D01*
X1191278Y641129D01*
X1191111Y641379D01*
X1190973Y641573D01*
X1190834Y641740D01*
X1190751Y641851D01*
X1190695Y641907D01*
X1190667Y641935D01*
X1190306Y642268D01*
X1189918Y642545D01*
X1189529Y642795D01*
X1189112Y643017D01*
X1188724Y643184D01*
X1188335Y643350D01*
X1187613Y643572D01*
X1187280Y643628D01*
X1186975Y643683D01*
X1186725Y643739D01*
X1186475Y643767D01*
X1186281Y643794D01*
D02*
G37*
G36*
X1099774D02*
X1099524D01*
X1098830Y643767D01*
X1098164Y643656D01*
X1097580Y643489D01*
X1097081Y643323D01*
X1096664Y643128D01*
X1096498Y643045D01*
X1096359Y642989D01*
X1096220Y642906D01*
X1096137Y642878D01*
X1096109Y642823D01*
X1096081D01*
X1095554Y642434D01*
X1095082Y641990D01*
X1094666Y641546D01*
X1094332Y641102D01*
X1094082Y640713D01*
X1093888Y640380D01*
X1093833Y640269D01*
X1093777Y640185D01*
X1093749Y640130D01*
Y640102D01*
X1093472Y639436D01*
X1093277Y638714D01*
X1093139Y638048D01*
X1093055Y637409D01*
X1093000Y637104D01*
X1092972Y636854D01*
Y636604D01*
X1092944Y636410D01*
Y636243D01*
Y636132D01*
Y636049D01*
Y636021D01*
X1092972Y635355D01*
X1093027Y634716D01*
X1093111Y634105D01*
X1093222Y633550D01*
X1093388Y633050D01*
X1093527Y632579D01*
X1093694Y632134D01*
X1093860Y631746D01*
X1094055Y631413D01*
X1094221Y631107D01*
X1094360Y630857D01*
X1094499Y630663D01*
X1094638Y630496D01*
X1094721Y630358D01*
X1094777Y630302D01*
X1094804Y630274D01*
X1095165Y629913D01*
X1095554Y629608D01*
X1095943Y629358D01*
X1096331Y629108D01*
X1096720Y628914D01*
X1097136Y628775D01*
X1097497Y628636D01*
X1097886Y628525D01*
X1098219Y628442D01*
X1098552Y628386D01*
X1098830Y628331D01*
X1099080Y628303D01*
X1099274D01*
X1099413Y628275D01*
X1099552D01*
X1100079Y628303D01*
X1100579Y628359D01*
X1101023Y628470D01*
X1101467Y628581D01*
X1101884Y628747D01*
X1102272Y628914D01*
X1102633Y629081D01*
X1102966Y629275D01*
X1103244Y629469D01*
X1103494Y629636D01*
X1103716Y629802D01*
X1103910Y629969D01*
X1104049Y630080D01*
X1104160Y630191D01*
X1104216Y630247D01*
X1104243Y630274D01*
X1104577Y630663D01*
X1104854Y631079D01*
X1105104Y631524D01*
X1105326Y631968D01*
X1105493Y632440D01*
X1105659Y632884D01*
X1105881Y633772D01*
X1105937Y634161D01*
X1105993Y634550D01*
X1106048Y634883D01*
X1106076Y635160D01*
X1106104Y635410D01*
Y635605D01*
Y635716D01*
Y635743D01*
X1106076Y636521D01*
X1106020Y637243D01*
X1105937Y637937D01*
X1105798Y638548D01*
X1105659Y639103D01*
X1105493Y639602D01*
X1105298Y640074D01*
X1105132Y640463D01*
X1104938Y640824D01*
X1104771Y641129D01*
X1104604Y641379D01*
X1104465Y641573D01*
X1104327Y641740D01*
X1104243Y641851D01*
X1104188Y641907D01*
X1104160Y641935D01*
X1103799Y642268D01*
X1103411Y642545D01*
X1103022Y642795D01*
X1102606Y643017D01*
X1102217Y643184D01*
X1101828Y643350D01*
X1101106Y643572D01*
X1100773Y643628D01*
X1100468Y643683D01*
X1100218Y643739D01*
X1099968Y643767D01*
X1099774Y643794D01*
D02*
G37*
G36*
X1137277Y581814D02*
X1136860D01*
X1136582Y581759D01*
X1136055Y581620D01*
X1135611Y581398D01*
X1135222Y581176D01*
X1134917Y580926D01*
X1134695Y580704D01*
X1134556Y580565D01*
X1134500Y580537D01*
Y580510D01*
X1134306Y580260D01*
X1134139Y579954D01*
X1133862Y579343D01*
X1133667Y578649D01*
X1133556Y578011D01*
X1133473Y577428D01*
X1133445Y577150D01*
Y576928D01*
X1133418Y576734D01*
Y576595D01*
Y576512D01*
Y576484D01*
Y576012D01*
X1133473Y575540D01*
X1133529Y575124D01*
X1133584Y574735D01*
X1133667Y574374D01*
X1133778Y574041D01*
X1133889Y573763D01*
X1133973Y573486D01*
X1134084Y573264D01*
X1134195Y573041D01*
X1134278Y572875D01*
X1134389Y572736D01*
X1134445Y572625D01*
X1134500Y572542D01*
X1134556Y572514D01*
Y572486D01*
X1134778Y572264D01*
X1135000Y572042D01*
X1135444Y571709D01*
X1135888Y571487D01*
X1136305Y571320D01*
X1136666Y571237D01*
X1136971Y571181D01*
X1137082Y571154D01*
X1137221D01*
X1137582Y571181D01*
X1137887Y571237D01*
X1138220Y571320D01*
X1138498Y571431D01*
X1139025Y571737D01*
X1139442Y572070D01*
X1139803Y572375D01*
X1140053Y572681D01*
X1140136Y572792D01*
X1140191Y572875D01*
X1140247Y572930D01*
Y572958D01*
X1140358Y573180D01*
X1140469Y573430D01*
X1140636Y573985D01*
X1140747Y574596D01*
X1140830Y575179D01*
X1140886Y575707D01*
Y575957D01*
X1140913Y576151D01*
Y576317D01*
Y576456D01*
Y576540D01*
Y576567D01*
Y577039D01*
X1140858Y577456D01*
X1140802Y577872D01*
X1140747Y578261D01*
X1140664Y578594D01*
X1140552Y578927D01*
X1140469Y579205D01*
X1140358Y579482D01*
X1140247Y579705D01*
X1140164Y579899D01*
X1140053Y580065D01*
X1139969Y580204D01*
X1139914Y580315D01*
X1139858Y580398D01*
X1139803Y580426D01*
Y580454D01*
X1139581Y580704D01*
X1139359Y580898D01*
X1139137Y581093D01*
X1138914Y581231D01*
X1138470Y581481D01*
X1138054Y581648D01*
X1137693Y581731D01*
X1137387Y581787D01*
X1137277Y581814D01*
D02*
G37*
G36*
X1205099D02*
X1204655D01*
X1204378Y581759D01*
X1203850Y581620D01*
X1203378Y581398D01*
X1202990Y581176D01*
X1202656Y580926D01*
X1202407Y580704D01*
X1202268Y580565D01*
X1202212Y580537D01*
Y580510D01*
X1202018Y580260D01*
X1201824Y579982D01*
X1201546Y579343D01*
X1201352Y578705D01*
X1201213Y578066D01*
X1201130Y577511D01*
X1201102Y577261D01*
Y577039D01*
X1201074Y576873D01*
Y576734D01*
Y576651D01*
Y576623D01*
Y576151D01*
X1201130Y575679D01*
X1201185Y575262D01*
X1201241Y574902D01*
X1201324Y574541D01*
X1201435Y574207D01*
X1201518Y573930D01*
X1201629Y573680D01*
X1201740Y573430D01*
X1201824Y573236D01*
X1201935Y573069D01*
X1202018Y572958D01*
X1202073Y572847D01*
X1202129Y572764D01*
X1202185Y572736D01*
Y572708D01*
X1202407Y572486D01*
X1202629Y572292D01*
X1203073Y571987D01*
X1203545Y571764D01*
X1203961Y571626D01*
X1204350Y571515D01*
X1204655Y571487D01*
X1204766Y571459D01*
X1204933D01*
X1205238Y571487D01*
X1205516Y571515D01*
X1206043Y571653D01*
X1206515Y571848D01*
X1206904Y572098D01*
X1207237Y572320D01*
X1207459Y572514D01*
X1207598Y572653D01*
X1207654Y572708D01*
X1207848Y572958D01*
X1208015Y573236D01*
X1208292Y573874D01*
X1208459Y574513D01*
X1208598Y575179D01*
X1208681Y575762D01*
X1208709Y576040D01*
Y576262D01*
X1208736Y576456D01*
Y576595D01*
Y576678D01*
Y576706D01*
Y577178D01*
X1208681Y577594D01*
X1208625Y577983D01*
X1208570Y578372D01*
X1208486Y578705D01*
X1208403Y579010D01*
X1208292Y579316D01*
X1208181Y579566D01*
X1208098Y579788D01*
X1207987Y579982D01*
X1207904Y580149D01*
X1207820Y580260D01*
X1207765Y580371D01*
X1207709Y580454D01*
X1207654Y580482D01*
Y580510D01*
X1207431Y580732D01*
X1207209Y580954D01*
X1206765Y581259D01*
X1206321Y581509D01*
X1205877Y581648D01*
X1205516Y581759D01*
X1205211Y581787D01*
X1205099Y581814D01*
D02*
G37*
G36*
X1239025D02*
X1238858D01*
X1238525Y581787D01*
X1238220Y581759D01*
X1237637Y581592D01*
X1237137Y581370D01*
X1236721Y581120D01*
X1236387Y580871D01*
X1236138Y580648D01*
X1235999Y580482D01*
X1235943Y580454D01*
Y580426D01*
X1235694Y580065D01*
X1235471Y579649D01*
X1235333Y579232D01*
X1235194Y578788D01*
X1235110Y578427D01*
X1235055Y578094D01*
Y577983D01*
X1235027Y577900D01*
Y577844D01*
Y577817D01*
X1242828D01*
X1242745Y578455D01*
X1242579Y579038D01*
X1242384Y579538D01*
X1242162Y579927D01*
X1241968Y580260D01*
X1241773Y580510D01*
X1241662Y580648D01*
X1241607Y580704D01*
X1241163Y581065D01*
X1240718Y581342D01*
X1240247Y581537D01*
X1239802Y581676D01*
X1239441Y581759D01*
X1239136Y581787D01*
X1239025Y581814D01*
D02*
G37*
G36*
X1174811D02*
X1174644D01*
X1174311Y581787D01*
X1174006Y581759D01*
X1173423Y581592D01*
X1172923Y581370D01*
X1172507Y581120D01*
X1172174Y580871D01*
X1171924Y580648D01*
X1171785Y580482D01*
X1171729Y580454D01*
Y580426D01*
X1171479Y580065D01*
X1171257Y579649D01*
X1171119Y579232D01*
X1170980Y578788D01*
X1170897Y578427D01*
X1170841Y578094D01*
Y577983D01*
X1170813Y577900D01*
Y577844D01*
Y577817D01*
X1178614D01*
X1178531Y578455D01*
X1178364Y579038D01*
X1178170Y579538D01*
X1177948Y579927D01*
X1177754Y580260D01*
X1177559Y580510D01*
X1177448Y580648D01*
X1177393Y580704D01*
X1176949Y581065D01*
X1176505Y581342D01*
X1176032Y581537D01*
X1175588Y581676D01*
X1175227Y581759D01*
X1174922Y581787D01*
X1174811Y581814D01*
D02*
G37*
G36*
X1261096Y586451D02*
X1256654D01*
X1256293Y586423D01*
X1255932D01*
X1255599Y586395D01*
X1255044Y586312D01*
X1254600Y586256D01*
X1254239Y586173D01*
X1253989Y586090D01*
X1253850Y586062D01*
X1253794Y586034D01*
X1253295Y585784D01*
X1252823Y585479D01*
X1252406Y585118D01*
X1252045Y584757D01*
X1251768Y584424D01*
X1251546Y584146D01*
X1251490Y584035D01*
X1251435Y583952D01*
X1251379Y583896D01*
Y583869D01*
X1251212Y583563D01*
X1251046Y583203D01*
X1250796Y582481D01*
X1250630Y581703D01*
X1250491Y580954D01*
X1250463Y580621D01*
X1250435Y580288D01*
X1250407Y580010D01*
Y579760D01*
X1250380Y579538D01*
Y579399D01*
Y579288D01*
Y579260D01*
X1250407Y578483D01*
X1250463Y577761D01*
X1250546Y577123D01*
X1250630Y576567D01*
X1250685Y576345D01*
X1250741Y576151D01*
X1250796Y575957D01*
X1250824Y575818D01*
X1250852Y575707D01*
X1250879Y575623D01*
X1250907Y575568D01*
Y575540D01*
X1251102Y575013D01*
X1251324Y574541D01*
X1251573Y574124D01*
X1251796Y573763D01*
X1251990Y573486D01*
X1252156Y573291D01*
X1252268Y573180D01*
X1252295Y573125D01*
X1252573Y572903D01*
X1252850Y572708D01*
X1253128Y572542D01*
X1253406Y572375D01*
X1253656Y572264D01*
X1253850Y572181D01*
X1253989Y572153D01*
X1254044Y572125D01*
X1254461Y572014D01*
X1254960Y571931D01*
X1255460Y571875D01*
X1255932Y571848D01*
X1256348Y571820D01*
X1256543Y571792D01*
X1261096D01*
Y586451D01*
D02*
G37*
G36*
X1104434D02*
X1099881D01*
X1099270Y586395D01*
X1098798Y586367D01*
X1098382Y586312D01*
X1098076Y586256D01*
X1097882Y586229D01*
X1097743Y586173D01*
X1097715D01*
X1097410Y586062D01*
X1097132Y585895D01*
X1096910Y585729D01*
X1096716Y585562D01*
X1096577Y585424D01*
X1096466Y585285D01*
X1096411Y585201D01*
X1096383Y585174D01*
X1096216Y584896D01*
X1096105Y584618D01*
X1096022Y584341D01*
X1095966Y584063D01*
X1095938Y583841D01*
X1095911Y583674D01*
Y583563D01*
Y583508D01*
X1095938Y583147D01*
X1095994Y582814D01*
X1096077Y582536D01*
X1096161Y582314D01*
X1096244Y582120D01*
X1096327Y581953D01*
X1096383Y581870D01*
X1096411Y581842D01*
X1096605Y581620D01*
X1096855Y581398D01*
X1097105Y581231D01*
X1097327Y581120D01*
X1097549Y581009D01*
X1097715Y580926D01*
X1097826Y580898D01*
X1097882Y580871D01*
X1098187Y580815D01*
X1098576Y580759D01*
X1098965Y580732D01*
X1099353Y580704D01*
X1099714Y580676D01*
X1104434D01*
Y586451D01*
D02*
G37*
G36*
Y578400D02*
X1099381D01*
X1098798Y578344D01*
X1098326Y578289D01*
X1097937Y578233D01*
X1097632Y578177D01*
X1097382Y578122D01*
X1097271Y578094D01*
X1097216Y578066D01*
X1096855Y577928D01*
X1096549Y577761D01*
X1096272Y577567D01*
X1096050Y577372D01*
X1095883Y577206D01*
X1095772Y577067D01*
X1095689Y576956D01*
X1095661Y576928D01*
X1095467Y576623D01*
X1095328Y576317D01*
X1095217Y576012D01*
X1095161Y575734D01*
X1095106Y575485D01*
X1095078Y575262D01*
Y575151D01*
Y575096D01*
X1095106Y574763D01*
X1095133Y574430D01*
X1095189Y574152D01*
X1095272Y573930D01*
X1095356Y573736D01*
X1095411Y573569D01*
X1095439Y573486D01*
X1095467Y573458D01*
X1095633Y573208D01*
X1095772Y572986D01*
X1095966Y572819D01*
X1096105Y572653D01*
X1096244Y572542D01*
X1096355Y572458D01*
X1096438Y572403D01*
X1096466Y572375D01*
X1096938Y572153D01*
X1097410Y571987D01*
X1097604Y571931D01*
X1097771Y571903D01*
X1097882Y571875D01*
X1097910D01*
X1098132Y571848D01*
X1098382Y571820D01*
X1098965Y571792D01*
X1104434D01*
Y578400D01*
D02*
G37*
G36*
X1160347Y581814D02*
X1160208D01*
X1159903Y581787D01*
X1159625Y581759D01*
X1159098Y581592D01*
X1158626Y581398D01*
X1158237Y581148D01*
X1157932Y580898D01*
X1157682Y580676D01*
X1157543Y580510D01*
X1157487Y580482D01*
Y580454D01*
X1157293Y580176D01*
X1157126Y579899D01*
X1156849Y579232D01*
X1156655Y578538D01*
X1156516Y577872D01*
X1156460Y577539D01*
X1156432Y577234D01*
X1156405Y576956D01*
Y576734D01*
X1156377Y576540D01*
Y576401D01*
Y576290D01*
Y576262D01*
Y575790D01*
X1156432Y575346D01*
X1156488Y574957D01*
X1156543Y574568D01*
X1156627Y574235D01*
X1156738Y573902D01*
X1156821Y573624D01*
X1156932Y573375D01*
X1157043Y573153D01*
X1157126Y572930D01*
X1157237Y572792D01*
X1157321Y572653D01*
X1157376Y572542D01*
X1157432Y572458D01*
X1157487Y572431D01*
Y572403D01*
X1157682Y572181D01*
X1157904Y571987D01*
X1158348Y571681D01*
X1158792Y571459D01*
X1159209Y571320D01*
X1159569Y571209D01*
X1159875Y571181D01*
X1159986Y571154D01*
X1160125D01*
X1160402Y571181D01*
X1160680Y571209D01*
X1161180Y571348D01*
X1161652Y571570D01*
X1162040Y571820D01*
X1162346Y572042D01*
X1162596Y572264D01*
X1162734Y572403D01*
X1162762Y572458D01*
X1162790D01*
X1162984Y572736D01*
X1163151Y573014D01*
X1163428Y573652D01*
X1163623Y574319D01*
X1163762Y574957D01*
X1163845Y575540D01*
X1163873Y575790D01*
Y576012D01*
X1163900Y576206D01*
Y576345D01*
Y576428D01*
Y576456D01*
Y576956D01*
X1163845Y577428D01*
X1163789Y577872D01*
X1163734Y578261D01*
X1163651Y578622D01*
X1163567Y578955D01*
X1163484Y579260D01*
X1163373Y579538D01*
X1163262Y579760D01*
X1163179Y579954D01*
X1163095Y580121D01*
X1163012Y580260D01*
X1162929Y580371D01*
X1162901Y580454D01*
X1162846Y580482D01*
Y580510D01*
X1162651Y580732D01*
X1162429Y580954D01*
X1161985Y581259D01*
X1161541Y581509D01*
X1161124Y581648D01*
X1160763Y581759D01*
X1160458Y581787D01*
X1160347Y581814D01*
D02*
G37*
%LPD*%
M02*
