G04*
G04 #@! TF.GenerationSoftware,Altium Limited,Altium Designer,25.2.1 (25)*
G04*
G04 Layer_Physical_Order=1*
G04 Layer_Color=255*
%FSLAX44Y44*%
%MOMM*%
G71*
G04*
G04 #@! TF.SameCoordinates,E3D469A8-3601-4E52-BDEA-DD632D880B34*
G04*
G04*
G04 #@! TF.FilePolarity,Positive*
G04*
G01*
G75*
%ADD12C,0.2500*%
%ADD17C,0.2540*%
%ADD18R,1.2000X1.2000*%
%ADD19R,0.4000X0.8000*%
%ADD20R,0.8000X0.4000*%
%ADD21R,0.8000X0.8000*%
%ADD22R,0.7000X0.9000*%
%ADD23R,1.3500X1.1500*%
%ADD24R,1.6000X2.8000*%
%ADD25R,1.3000X1.4000*%
G04:AMPARAMS|DCode=26|XSize=1.41mm|YSize=1.47mm|CornerRadius=0.1763mm|HoleSize=0mm|Usage=FLASHONLY|Rotation=0.000|XOffset=0mm|YOffset=0mm|HoleType=Round|Shape=RoundedRectangle|*
%AMROUNDEDRECTD26*
21,1,1.4100,1.1175,0,0,0.0*
21,1,1.0575,1.4700,0,0,0.0*
1,1,0.3525,0.5288,-0.5587*
1,1,0.3525,-0.5288,-0.5587*
1,1,0.3525,-0.5288,0.5587*
1,1,0.3525,0.5288,0.5587*
%
%ADD26ROUNDEDRECTD26*%
%ADD27R,1.1500X1.3500*%
G04:AMPARAMS|DCode=28|XSize=1.57mm|YSize=0.41mm|CornerRadius=0.0513mm|HoleSize=0mm|Usage=FLASHONLY|Rotation=270.000|XOffset=0mm|YOffset=0mm|HoleType=Round|Shape=RoundedRectangle|*
%AMROUNDEDRECTD28*
21,1,1.5700,0.3075,0,0,270.0*
21,1,1.4675,0.4100,0,0,270.0*
1,1,0.1025,-0.1538,-0.7338*
1,1,0.1025,-0.1538,0.7338*
1,1,0.1025,0.1538,0.7338*
1,1,0.1025,0.1538,-0.7338*
%
%ADD28ROUNDEDRECTD28*%
%ADD29R,0.9900X3.7900*%
%ADD30R,1.6000X2.4000*%
%ADD31R,2.2000X0.6000*%
%ADD32R,1.4000X1.3000*%
G04:AMPARAMS|DCode=33|XSize=0.28mm|YSize=1.56mm|CornerRadius=0.07mm|HoleSize=0mm|Usage=FLASHONLY|Rotation=90.000|XOffset=0mm|YOffset=0mm|HoleType=Round|Shape=RoundedRectangle|*
%AMROUNDEDRECTD33*
21,1,0.2800,1.4200,0,0,90.0*
21,1,0.1400,1.5600,0,0,90.0*
1,1,0.1400,0.7100,0.0700*
1,1,0.1400,0.7100,-0.0700*
1,1,0.1400,-0.7100,-0.0700*
1,1,0.1400,-0.7100,0.0700*
%
%ADD33ROUNDEDRECTD33*%
G04:AMPARAMS|DCode=34|XSize=0.28mm|YSize=1.56mm|CornerRadius=0.07mm|HoleSize=0mm|Usage=FLASHONLY|Rotation=0.000|XOffset=0mm|YOffset=0mm|HoleType=Round|Shape=RoundedRectangle|*
%AMROUNDEDRECTD34*
21,1,0.2800,1.4200,0,0,0.0*
21,1,0.1400,1.5600,0,0,0.0*
1,1,0.1400,0.0700,-0.7100*
1,1,0.1400,-0.0700,-0.7100*
1,1,0.1400,-0.0700,0.7100*
1,1,0.1400,0.0700,0.7100*
%
%ADD34ROUNDEDRECTD34*%
G04:AMPARAMS|DCode=35|XSize=1.31mm|YSize=0.93mm|CornerRadius=0.0698mm|HoleSize=0mm|Usage=FLASHONLY|Rotation=270.000|XOffset=0mm|YOffset=0mm|HoleType=Round|Shape=RoundedRectangle|*
%AMROUNDEDRECTD35*
21,1,1.3100,0.7905,0,0,270.0*
21,1,1.1705,0.9300,0,0,270.0*
1,1,0.1395,-0.3953,-0.5853*
1,1,0.1395,-0.3953,0.5853*
1,1,0.1395,0.3953,0.5853*
1,1,0.1395,0.3953,-0.5853*
%
%ADD35ROUNDEDRECTD35*%
G04:AMPARAMS|DCode=36|XSize=1.31mm|YSize=3.24mm|CornerRadius=0.0983mm|HoleSize=0mm|Usage=FLASHONLY|Rotation=270.000|XOffset=0mm|YOffset=0mm|HoleType=Round|Shape=RoundedRectangle|*
%AMROUNDEDRECTD36*
21,1,1.3100,3.0435,0,0,270.0*
21,1,1.1135,3.2400,0,0,270.0*
1,1,0.1965,-1.5218,-0.5568*
1,1,0.1965,-1.5218,0.5568*
1,1,0.1965,1.5218,0.5568*
1,1,0.1965,1.5218,-0.5568*
%
%ADD36ROUNDEDRECTD36*%
%ADD37R,1.8000X1.3000*%
%ADD38R,2.1200X2.2800*%
%ADD39R,1.3000X1.8000*%
%ADD40R,2.4000X2.0000*%
%ADD41R,0.7500X1.4000*%
%ADD42R,0.7900X0.2800*%
%ADD43R,0.2800X0.7900*%
%ADD44R,1.2000X0.9000*%
%ADD45R,1.0800X1.0900*%
%ADD46R,1.2000X1.2000*%
%ADD47R,5.4000X2.9000*%
%ADD48R,5.6134X2.3114*%
%ADD49R,2.0000X4.0000*%
G04:AMPARAMS|DCode=50|XSize=1.41mm|YSize=1.47mm|CornerRadius=0.1763mm|HoleSize=0mm|Usage=FLASHONLY|Rotation=90.000|XOffset=0mm|YOffset=0mm|HoleType=Round|Shape=RoundedRectangle|*
%AMROUNDEDRECTD50*
21,1,1.4100,1.1175,0,0,90.0*
21,1,1.0575,1.4700,0,0,90.0*
1,1,0.3525,0.5587,0.5288*
1,1,0.3525,0.5587,-0.5288*
1,1,0.3525,-0.5587,-0.5288*
1,1,0.3525,-0.5587,0.5288*
%
%ADD50ROUNDEDRECTD50*%
%ADD51R,0.9000X0.7000*%
%ADD116R,0.4000X0.4000*%
%ADD117R,10.8400X7.8800*%
%ADD118C,0.9000*%
%ADD119C,1.3000*%
%ADD120C,0.5000*%
%ADD121C,1.5000*%
%ADD122C,0.7000*%
%ADD123C,1.0000*%
%ADD124C,2.0000*%
%ADD125R,0.9850X0.9850*%
%ADD126C,0.9850*%
%ADD127C,1.1628*%
%ADD128R,1.1628X1.1628*%
%ADD129R,1.3700X1.3700*%
%ADD130C,1.3700*%
%ADD131C,1.5080*%
%ADD132R,1.5080X1.5080*%
%ADD133C,2.2500*%
%ADD134C,1.7550*%
%ADD135C,1.9500*%
G04:AMPARAMS|DCode=136|XSize=1.95mm|YSize=1.95mm|CornerRadius=0.4875mm|HoleSize=0mm|Usage=FLASHONLY|Rotation=90.000|XOffset=0mm|YOffset=0mm|HoleType=Round|Shape=RoundedRectangle|*
%AMROUNDEDRECTD136*
21,1,1.9500,0.9750,0,0,90.0*
21,1,0.9750,1.9500,0,0,90.0*
1,1,0.9750,0.4875,0.4875*
1,1,0.9750,0.4875,-0.4875*
1,1,0.9750,-0.4875,-0.4875*
1,1,0.9750,-0.4875,0.4875*
%
%ADD136ROUNDEDRECTD136*%
%ADD137R,1.4980X1.4980*%
%ADD138C,1.4980*%
%ADD139R,2.5000X2.5000*%
%ADD140C,2.5000*%
%ADD141R,1.9800X1.9800*%
%ADD142C,1.9350*%
%ADD143C,1.9800*%
%ADD144C,1.3080*%
%ADD145C,3.0000*%
%ADD146C,0.5000*%
%ADD147C,0.9000*%
%ADD148C,1.0000*%
%ADD149C,0.7000*%
%ADD150C,1.2700*%
%ADD151C,0.3000*%
%ADD152C,1.5000*%
%ADD153C,0.2540*%
G36*
X563880Y1457960D02*
Y1426210D01*
X457200D01*
Y1461770D01*
X560070D01*
X563880Y1457960D01*
D02*
G37*
G36*
X666750Y987678D02*
X666750Y943610D01*
X659087D01*
X658236Y945049D01*
X658242Y945130D01*
X658445Y946150D01*
Y958850D01*
Y971550D01*
Y984250D01*
X658228Y985339D01*
X657611Y986262D01*
X657195Y986540D01*
X657656Y988060D01*
X666368D01*
X666750Y987678D01*
D02*
G37*
G36*
X562005Y986540D02*
X561589Y986262D01*
X560972Y985339D01*
X560755Y984250D01*
Y971550D01*
Y958850D01*
Y946150D01*
Y936295D01*
X547370D01*
X546281Y936078D01*
X545359Y935462D01*
X545080Y935045D01*
X543560Y935506D01*
Y981710D01*
X549910Y988060D01*
X561544D01*
X562005Y986540D01*
D02*
G37*
G36*
X652755Y971550D02*
Y958850D01*
Y946150D01*
X652958Y945130D01*
X652964Y945049D01*
X652114Y943610D01*
X635000D01*
X620648Y929258D01*
X564620D01*
X564470Y930778D01*
X564689Y930822D01*
X565611Y931439D01*
X566228Y932361D01*
X566445Y933450D01*
Y946150D01*
Y958850D01*
Y971550D01*
Y981405D01*
X652755D01*
Y971550D01*
D02*
G37*
G36*
X967380Y601980D02*
X961380Y595980D01*
X955380D01*
Y607980D01*
X967380D01*
Y601980D01*
D02*
G37*
D12*
X488950Y985909D02*
Y993140D01*
D17*
X1045630Y782538D02*
X1047118Y781050D01*
X1045630Y782538D02*
Y887381D01*
X1023340Y885190D02*
X1040340D01*
X722630Y919480D02*
X1013531D01*
X1047118Y781050D02*
X1107440D01*
X1013531Y919480D02*
X1045630Y887381D01*
X1087120Y876440D02*
Y894080D01*
Y876440D02*
X1087260Y876300D01*
X595630Y767080D02*
X613410D01*
X543560Y742950D02*
X543820Y742690D01*
Y719580D02*
Y742690D01*
X284480Y627380D02*
Y628046D01*
X285440Y629006D02*
Y639020D01*
X550576D02*
X552056Y637540D01*
X666889D01*
X550320Y646091D02*
X554811Y641600D01*
X549910Y639020D02*
X550576D01*
X554811Y641600D02*
X664161D01*
X550320Y646091D02*
Y662180D01*
X284480Y628046D02*
X285440Y629006D01*
X744220Y975360D02*
X889650D01*
X892190Y972820D02*
X1036955D01*
X889650Y975360D02*
X892190Y972820D01*
X1036955D02*
X1061085Y996950D01*
X604470Y1024890D02*
X645053D01*
X697230Y972713D01*
X665280Y1012144D02*
X706120Y971305D01*
X712470Y909740D02*
Y972436D01*
X643648Y1047000D02*
X763548Y927100D01*
X770890D01*
X697230Y778510D02*
Y972713D01*
X706120Y784860D02*
Y971305D01*
X712050Y909320D02*
X712470Y909740D01*
X664852Y1020054D02*
X712470Y972436D01*
X632460Y1039710D02*
X645196D01*
X552148Y1047000D02*
X643648D01*
X647069Y1051060D02*
X668724Y1029404D01*
X582160Y1051060D02*
X647069D01*
X763270Y942340D02*
X1005840D01*
X595880Y1055120D02*
X650490D01*
X763270Y942340D01*
X645196Y1039710D02*
X664852Y1020054D01*
X1061085Y996950D02*
X1328420D01*
X1350010Y975360D01*
Y693420D02*
Y975360D01*
X1323340Y666750D02*
X1350010Y693420D01*
X1230448Y666750D02*
X1323340D01*
X1228960Y665262D02*
X1230448Y666750D01*
X1228960Y609430D02*
Y665262D01*
X660400Y1065530D02*
X736600Y989330D01*
Y989330D02*
Y989330D01*
X754380Y985520D02*
X1038860D01*
X1055370Y1002030D01*
Y1108710D01*
X732790Y1007110D02*
X754380Y985520D01*
X732790Y1007110D02*
Y1051560D01*
X1075690Y730250D02*
X1085990D01*
X563600Y733780D02*
X563880Y734060D01*
X563600Y719860D02*
Y733780D01*
X556820Y719580D02*
X557152Y719912D01*
X563320Y719580D02*
X563600Y719860D01*
X557152Y734997D02*
X557485Y735330D01*
X557152Y719912D02*
Y734997D01*
X1072260Y560450D02*
Y575310D01*
Y613410D01*
X1085850Y564098D02*
Y704632D01*
X1083092Y707390D02*
X1085850Y704632D01*
Y564098D02*
X1087338Y562610D01*
X1252002D01*
X957818Y858520D02*
X1016000D01*
X955040Y861298D02*
X957818Y858520D01*
X955040Y861298D02*
Y886460D01*
X1113230Y610918D02*
Y775260D01*
Y610918D02*
X1114718Y609430D01*
X1107440Y781050D02*
X1113230Y775260D01*
X708660Y754380D02*
X716280Y762000D01*
Y891540D01*
X569820Y736621D02*
X573609Y740410D01*
X612280Y735330D02*
Y735930D01*
X607800Y740410D02*
X612280Y735930D01*
X573609Y740410D02*
X607800D01*
X550320Y737652D02*
X553288Y740620D01*
X565821D01*
X569820Y736621D01*
X576450Y732660D02*
X576580Y732790D01*
X576450Y719710D02*
Y732660D01*
X576320Y719580D02*
X576450Y719710D01*
X1114718Y609430D02*
X1153960D01*
X1005840Y942340D02*
X1060450Y887730D01*
Y792698D02*
Y887730D01*
Y792698D02*
X1061938Y791210D01*
X1103390D01*
X1253490Y608960D02*
X1253960Y609430D01*
X1253490Y564098D02*
Y608960D01*
X1252002Y562610D02*
X1253490Y564098D01*
X1069340Y707390D02*
X1083092D01*
X129546Y570135D02*
X131034Y571623D01*
Y576804D02*
X132080Y577850D01*
X131034Y571623D02*
Y576804D01*
X94198Y570135D02*
X129546D01*
X81280Y564098D02*
X85308Y560070D01*
X171232D02*
X175260Y564098D01*
X85308Y560070D02*
X171232D01*
X169839Y570107D02*
Y584521D01*
X168352Y568619D02*
X169839Y570107D01*
X152740Y568619D02*
X168352D01*
X133350Y588010D02*
X152740Y568619D01*
X109438Y588010D02*
X133350D01*
X465185Y589435D02*
X484484Y570135D01*
X169839Y584521D02*
X179017Y593698D01*
X428546Y589435D02*
X465185D01*
X180685Y589625D02*
X365557D01*
X179017Y593698D02*
X418997D01*
X419449Y594150D01*
X175165Y574654D02*
Y584105D01*
X180685Y589625D01*
X423831Y594150D02*
X428546Y589435D01*
X175165Y574654D02*
X175260Y574559D01*
Y564098D02*
Y574559D01*
X81280Y564098D02*
Y577850D01*
X518594Y585190D02*
Y586618D01*
X513553Y591658D02*
X518594Y586618D01*
Y585190D02*
X523240Y580544D01*
X563880Y591158D02*
X574244Y601522D01*
X522188Y610909D02*
X522648D01*
X583103Y609642D02*
X586372Y612910D01*
X511195Y603500D02*
X512665Y602029D01*
X518304D01*
X586467Y601522D02*
X589629Y604684D01*
X574244Y601522D02*
X586467D01*
X588490Y592004D02*
Y595398D01*
X591820Y598728D02*
Y599394D01*
X421640Y603500D02*
X511195D01*
X520700Y612397D02*
Y752892D01*
X522648Y610909D02*
X523915Y609642D01*
X522233Y605582D02*
X584785D01*
X602228Y597148D02*
Y598203D01*
X588490Y595398D02*
X591820Y598728D01*
X586781Y590295D02*
X588490Y592004D01*
X523915Y609642D02*
X583103D01*
X590096Y608744D02*
X602632Y621280D01*
X584785Y605582D02*
X587947Y608744D01*
X502638Y619760D02*
X515550Y606849D01*
X586372Y612910D02*
Y623202D01*
X587947Y608744D02*
X590096D01*
X515550Y606849D02*
X520966D01*
X602228Y598203D02*
X607060Y603035D01*
X596995Y591915D02*
X602228Y597148D01*
X520700Y612397D02*
X522188Y610909D01*
X589629Y604684D02*
X593552D01*
X520966Y606849D02*
X522233Y605582D01*
X518304Y602029D02*
X518775Y601559D01*
X586372Y623202D02*
X586740Y623570D01*
X593552Y604684D02*
X606089Y617220D01*
X106680Y612140D02*
X501650D01*
X586781Y582327D02*
Y590295D01*
Y582327D02*
X589280Y579828D01*
Y577850D02*
Y579828D01*
X596995Y574654D02*
Y591915D01*
X624273Y621280D02*
X630523Y627530D01*
X606089Y617220D02*
X625955D01*
X632205Y623470D02*
X650482D01*
X662023Y611930D01*
X630523Y627530D02*
X652164D01*
X602632Y621280D02*
X624273D01*
X625955Y617220D02*
X632205Y623470D01*
X633055Y611155D02*
X640080Y618180D01*
X626613Y611155D02*
X633055D01*
X652164Y627530D02*
X662474Y617220D01*
X768310Y600750D02*
X799698D01*
X759135Y609925D02*
X768310Y600750D01*
X799698D02*
X810130Y611181D01*
X786130Y606040D02*
Y617220D01*
X678979Y632931D02*
X688078D01*
X692048Y628960D01*
X692714D01*
X670976Y640934D02*
X678979Y632931D01*
X664161Y641600D02*
X669290Y646729D01*
X693381Y618380D02*
Y619046D01*
X691090Y621336D02*
Y623103D01*
X687424Y626769D02*
X691090Y623103D01*
Y621336D02*
X693381Y619046D01*
X687424Y626769D02*
Y626777D01*
X685330Y628871D02*
X687424Y626777D01*
X792666Y612694D02*
Y648215D01*
Y612694D02*
X797560Y607800D01*
X689936Y595900D02*
X701349D01*
X686573Y604020D02*
X697986D01*
X713528Y619562D02*
X780006D01*
X703031Y591840D02*
X712996Y601805D01*
X683533Y608080D02*
X696304D01*
X697986Y604020D02*
X713528Y619562D01*
X701349Y595900D02*
X711314Y605865D01*
X688254Y599960D02*
X699667D01*
X709632Y609925D02*
X759135D01*
X692368Y591840D02*
X703031D01*
X681851Y612140D02*
X694622D01*
X712996Y601805D02*
X754756D01*
X714712Y632230D02*
X758223D01*
X711314Y605865D02*
X756845D01*
X716394Y628170D02*
X759904D01*
X696304Y608080D02*
X716394Y628170D01*
X699667Y599960D02*
X709632Y609925D01*
X694622Y612140D02*
X714712Y632230D01*
X609821Y630181D02*
X612100Y632460D01*
X604991Y630181D02*
X609821D01*
X604520Y629710D02*
X604991Y630181D01*
X675558Y628871D02*
X685330D01*
X666227Y632460D02*
X673876Y624811D01*
X666889Y637540D02*
X675558Y628871D01*
X673876Y624811D02*
X681200D01*
X612100Y632460D02*
X666227D01*
X681200Y624811D02*
X685800Y620211D01*
X669290Y646729D02*
Y656970D01*
X814070Y764540D02*
X814190Y764420D01*
Y637251D02*
Y764420D01*
X803040Y643849D02*
X810130Y636759D01*
Y611181D02*
Y636759D01*
X814190Y637251D02*
X816650Y634791D01*
X758223Y632230D02*
X789254Y663261D01*
Y703104D02*
X794810Y708660D01*
X789254Y663261D02*
Y703104D01*
X794810Y663075D02*
Y694690D01*
X759904Y628170D02*
X794810Y663075D01*
X786707Y626263D02*
Y645752D01*
X786905Y645950D02*
Y647689D01*
X787376Y648160D01*
X786707Y645752D02*
X786905Y645950D01*
X792666Y648215D02*
X800100Y655649D01*
X780006Y619562D02*
X786707Y626263D01*
X797750Y641380D02*
Y646705D01*
X800186Y638278D02*
Y638944D01*
X797750Y641380D02*
X800186Y638944D01*
X803040Y643849D02*
Y644514D01*
X797750Y646705D02*
X801284Y650240D01*
X808900D01*
X800100Y655649D02*
Y761939D01*
X784799Y777240D02*
X800100Y761939D01*
X810350Y603920D02*
X816650Y610220D01*
X803276Y597920D02*
X803986Y598630D01*
X804958Y593860D02*
X805668Y594570D01*
X803137Y597920D02*
X803276D01*
X805668Y594570D02*
X809911D01*
X804819Y593860D02*
X804958D01*
X803986Y598630D02*
X813207D01*
X800847Y595630D02*
X803137Y597920D01*
X802529Y591570D02*
X804819Y593860D01*
X764991Y591570D02*
X802529D01*
X815340Y589280D02*
X828830Y602770D01*
X807720Y589280D02*
X815340D01*
X767080Y595630D02*
X800847D01*
X816650Y610220D02*
Y634791D01*
X813207Y598630D02*
X820710Y606133D01*
X810001Y594480D02*
X814798D01*
X820710Y606133D02*
Y636473D01*
X824770Y604452D02*
Y647408D01*
X814798Y594480D02*
X824770Y604452D01*
X828830Y602770D02*
Y649089D01*
X829210Y594753D02*
Y595418D01*
X832890Y599098D01*
Y650771D01*
X809911Y594570D02*
X810001Y594480D01*
X756845Y605865D02*
X767080Y595630D01*
X754756Y601805D02*
X764991Y591570D01*
X764369Y579930D02*
X834591D01*
X758030Y567305D02*
X758501Y566834D01*
X764011D02*
X765696Y565150D01*
X760221Y572595D02*
X761006Y571810D01*
X766051Y583990D02*
X832697D01*
X758501Y566834D02*
X764011D01*
X761209Y580715D02*
X763584D01*
X759527Y576655D02*
X761903D01*
X762688Y575870D01*
X763584Y580715D02*
X764369Y579930D01*
X761006Y571810D02*
X837955D01*
X749921Y597745D02*
X762891Y584775D01*
X765266D02*
X766051Y583990D01*
X762688Y575870D02*
X836273D01*
X762891Y584775D02*
X765266D01*
X757846Y572595D02*
X760221D01*
X765696Y565150D02*
X842010D01*
X724654Y585886D02*
Y586697D01*
X723424Y584656D02*
X724654Y585886D01*
Y586697D02*
X731642Y593685D01*
X723424Y583990D02*
Y584656D01*
X748239Y593685D02*
X761209Y580715D01*
X832697Y583990D02*
X837802Y589096D01*
X837955Y571810D02*
X853190Y587045D01*
X834591Y579930D02*
X845070Y590409D01*
X836273Y575870D02*
X849130Y588727D01*
X847480Y659148D02*
Y690251D01*
X851540Y660830D02*
Y688523D01*
X744876Y585565D02*
X757846Y572595D01*
X746557Y589625D02*
X759527Y576655D01*
X842010Y565150D02*
X854677Y577817D01*
X747010Y561090D02*
X845570D01*
X741680Y566420D02*
X747010Y561090D01*
X741680Y566420D02*
Y577850D01*
X845570Y561090D02*
X859480Y575000D01*
X368395Y578883D02*
X390248Y557030D01*
X360680Y560308D02*
X368018Y552970D01*
X851670Y557030D02*
X863540Y568900D01*
X368018Y552970D02*
X858370D01*
X872880Y567480D01*
X390248Y557030D02*
X851670D01*
X199210Y558980D02*
X209280Y548910D01*
X862810D01*
X872150Y558250D01*
X874780Y678080D02*
X874880Y677980D01*
X867830Y678180D02*
X867930Y678080D01*
X874780D01*
X861310Y583682D02*
Y681529D01*
X859480Y581852D02*
X861310Y583682D01*
X862120Y682339D02*
Y686721D01*
X861310Y681529D02*
X862120Y682339D01*
X822435Y649742D02*
Y714102D01*
Y649742D02*
X824770Y647408D01*
X845937Y730520D02*
X874112D01*
X827180Y711763D02*
X845937Y730520D01*
X827180Y650739D02*
Y711763D01*
X853360Y690343D02*
Y690389D01*
X851540Y688523D02*
X853360Y690343D01*
Y690389D02*
X868281Y705310D01*
X861310Y687531D02*
X862120Y686721D01*
X861310Y692597D02*
X869963Y701250D01*
X856790Y684490D02*
X856830Y684530D01*
X856790Y661321D02*
Y684490D01*
X861310Y687531D02*
Y692597D01*
X874833Y669433D02*
X874880Y669480D01*
X866600Y669385D02*
X866647Y669433D01*
X874833D01*
X856790Y661321D02*
X857250Y660861D01*
X831240Y652421D02*
X832890Y650771D01*
X837911Y589096D02*
X841010Y592195D01*
X851540Y660830D02*
X853190Y659180D01*
X835300Y654103D02*
X836950Y652453D01*
X843420Y657466D02*
Y698032D01*
X839360Y655785D02*
Y699713D01*
X854677Y582791D02*
X857250Y585364D01*
X831240Y652421D02*
Y708050D01*
X853190Y587045D02*
Y659180D01*
X841010Y592195D02*
Y654135D01*
X849130Y588727D02*
Y657498D01*
X845070Y590409D02*
Y655816D01*
X827180Y650739D02*
X828830Y649089D01*
X843420Y657466D02*
X845070Y655816D01*
X835300Y654103D02*
Y701395D01*
X839360Y655785D02*
X841010Y654135D01*
X847480Y659148D02*
X849130Y657498D01*
X857250Y585364D02*
Y660861D01*
X836950Y597416D02*
Y652453D01*
X184150Y619760D02*
X502638D01*
X556399Y623570D02*
X586740D01*
X543820Y636149D02*
X556399Y623570D01*
X543820Y636149D02*
Y662180D01*
X557175Y647245D02*
X557530Y646890D01*
X557175Y647245D02*
Y661825D01*
X819480Y637703D02*
X820710Y636473D01*
X819480Y637703D02*
Y645217D01*
X835300Y701395D02*
X856305Y722400D01*
X839360Y699713D02*
X857877Y718231D01*
X847480Y690251D02*
X866599Y709370D01*
X831240Y708050D02*
X849650Y726460D01*
X843420Y698032D02*
X859338Y713950D01*
X837802Y589096D02*
X837911D01*
X836191Y596657D02*
X836950Y597416D01*
X835720Y594386D02*
X836191Y594857D01*
Y596657D01*
X868496Y654050D02*
X869336Y653210D01*
X874150D01*
X868088Y592980D02*
X874880D01*
X868175Y661325D02*
X874535D01*
X867830Y601480D02*
X874880D01*
X867830Y654050D02*
X868496D01*
X866600Y591492D02*
X868088Y592980D01*
X867830Y661670D02*
X868175Y661325D01*
X863540Y580170D02*
X866600Y583230D01*
Y591492D01*
X874535Y661325D02*
X874880Y660980D01*
X874150Y653210D02*
X874880Y652480D01*
X854677Y577817D02*
Y582791D01*
X556820Y662180D02*
X557175Y661825D01*
X662023Y611930D02*
X681641D01*
X662474Y617220D02*
X679450D01*
X511896Y585834D02*
X512367Y585363D01*
Y578563D02*
X513080Y577850D01*
X512367Y578563D02*
Y585363D01*
X513553Y591658D02*
Y596288D01*
X512083Y597758D02*
X513553Y596288D01*
X563880Y577850D02*
Y591158D01*
X425965Y597758D02*
X512083D01*
X417315D02*
X417767Y598210D01*
X425513D01*
X157480Y590550D02*
X164688Y597758D01*
X417315D01*
X425513Y598210D02*
X425965Y597758D01*
X157480Y577850D02*
Y590550D01*
X683323Y607870D02*
X683533Y608080D01*
X673408Y590855D02*
X686573Y604020D01*
X681641Y611930D02*
X681851Y612140D01*
X663718Y607870D02*
X683323D01*
X665480Y590855D02*
X673408D01*
X657860Y602012D02*
X663718Y607870D01*
X673859Y585565D02*
X688254Y599960D01*
X682764Y588727D02*
X689936Y595900D01*
X690880Y590352D02*
X692368Y591840D01*
X690880Y577850D02*
Y590352D01*
X866599Y709370D02*
X924420D01*
X869963Y701250D02*
X917720D01*
X868281Y705310D02*
X919402D01*
X874880Y688480D02*
X882867Y680493D01*
Y680493D02*
Y680493D01*
X1028834Y700977D02*
X1045630Y684181D01*
X924342Y700370D02*
X930567D01*
X935507Y705310D02*
X990003D01*
X930567Y700370D02*
X935507Y705310D01*
X924420Y709370D02*
X928130Y705660D01*
X869036Y608136D02*
X870149Y609250D01*
X874150D01*
X868370Y608136D02*
X869036D01*
X917720Y701250D02*
X922660Y696310D01*
X919402Y705310D02*
X924342Y700370D01*
X990003Y705310D02*
X990960Y706267D01*
X922660Y696310D02*
X932249D01*
X936916Y700977D01*
X1028834D01*
X489079Y576451D02*
X494774D01*
X495349Y575876D01*
X496015D01*
X551215Y578124D02*
X551489Y578398D01*
X538754Y578124D02*
X551215D01*
X538480Y577850D02*
X538754Y578124D01*
X731642Y593685D02*
X748239D01*
X711724Y590044D02*
X722259D01*
X729960Y597745D01*
X749921D01*
X735063Y589625D02*
X746557D01*
X729944Y584506D02*
X735063Y589625D01*
X704393Y582712D02*
X711724Y590044D01*
X738484Y585565D02*
X744876D01*
X730769Y577850D02*
X738484Y585565D01*
X716280Y577850D02*
X730769D01*
X360680Y560308D02*
Y577850D01*
X863540Y568900D02*
Y580170D01*
X859480Y575000D02*
Y581852D01*
X893880Y688480D02*
Y690373D01*
X893059Y691194D02*
X893880Y690373D01*
X910880Y688480D02*
Y692250D01*
X919239Y688621D02*
Y692250D01*
X874150Y609250D02*
X874880Y609980D01*
X902380Y688480D02*
Y692250D01*
X92710Y598170D02*
X106680Y612140D01*
X92710Y571623D02*
Y598170D01*
Y571623D02*
X94198Y570135D01*
X522188Y754380D02*
X708660D01*
X520700Y752892D02*
X522188Y754380D01*
X106680Y577850D02*
X107950Y579120D01*
Y586522D01*
X109438Y588010D01*
X419449Y594150D02*
X423831D01*
X484484Y570135D02*
X592476D01*
X596995Y574654D01*
X478743Y570135D02*
X482803Y566075D01*
X477061D02*
X481121Y562015D01*
X595839D02*
X603959Y570135D01*
X482803Y566075D02*
X594157D01*
X481121Y562015D02*
X595839D01*
X601055Y575540D02*
X603510Y577994D01*
Y578660D01*
X601055Y572973D02*
Y575540D01*
X603959Y570135D02*
X646854D01*
X594157Y566075D02*
X601055Y572973D01*
X444595Y570135D02*
X478743D01*
X386944Y566075D02*
X477061D01*
X614680Y599222D02*
X626613Y611155D01*
X823641Y729661D02*
X828560Y734580D01*
X823641Y724371D02*
Y729661D01*
X823170Y723900D02*
X823641Y724371D01*
X927880Y688480D02*
Y691020D01*
X919239Y688621D02*
X919380Y688480D01*
X859338Y713950D02*
X957370D01*
X959911Y711408D02*
X960088D01*
X957370Y713950D02*
X959911Y711408D01*
X342995Y585565D02*
X361713D01*
X363876D01*
X368395Y578883D02*
Y578883D01*
X363876Y585565D02*
X368395Y581046D01*
X365557Y589625D02*
X372455Y582727D01*
Y580564D02*
Y582727D01*
X368395Y578883D02*
Y581046D01*
X335280Y577850D02*
X342995Y585565D01*
X372455Y580564D02*
X386944Y566075D01*
X646854Y570135D02*
X662284Y585565D01*
X673859D01*
X682764Y584973D02*
Y588727D01*
X674370Y576580D02*
X682764Y584973D01*
X640080Y577850D02*
X648828D01*
X657860Y586882D02*
Y602012D01*
X648828Y577850D02*
X657860Y586882D01*
X666968Y568960D02*
X701040D01*
X828560Y734580D02*
X875794D01*
X875854Y734520D02*
X1000300D01*
X984322Y730460D02*
X986790Y727992D01*
X960746Y718231D02*
X965090Y713887D01*
X872490Y726400D02*
X976702D01*
X979170Y723932D01*
X870809Y722340D02*
X966680D01*
X1000300Y734520D02*
X1004570Y730250D01*
X857877Y718231D02*
X960746D01*
X966680Y722340D02*
X969909Y719111D01*
X874172Y730460D02*
X984322D01*
X420152Y577850D02*
X421640Y579338D01*
Y588860D01*
X411480Y577850D02*
X420152D01*
X614680D02*
Y599222D01*
X436880Y577850D02*
X444595Y570135D01*
X944880Y688480D02*
Y692960D01*
X953380Y688480D02*
Y692960D01*
X961880Y688480D02*
Y692960D01*
X987380Y688480D02*
Y692960D01*
X936380Y688480D02*
Y692960D01*
X978880Y688480D02*
Y692960D01*
X970380Y688480D02*
Y692960D01*
X988981Y710030D02*
X989278Y710327D01*
X965090Y713129D02*
Y713887D01*
X968189Y710030D02*
X988981D01*
X965090Y713129D02*
X968189Y710030D01*
X1006098Y710327D02*
X1007328Y711557D01*
X969909Y715791D02*
X970380Y715320D01*
X989278Y710327D02*
X1006098D01*
X986790Y715320D02*
Y727992D01*
X990960Y706267D02*
X1025456D01*
X979170Y715320D02*
Y723932D01*
X1030633Y711557D02*
X1041820Y700370D01*
X969909Y715791D02*
Y719111D01*
X487680Y577850D02*
X489079Y576451D01*
X701040Y568960D02*
X704393Y572313D01*
Y582712D01*
X874150Y558250D02*
X874880Y558980D01*
X872150Y558250D02*
X874150D01*
X718250Y903540D02*
X822300D01*
X736600Y760730D02*
Y894080D01*
X822300Y903540D02*
X829030Y896810D01*
Y892810D02*
Y896810D01*
X712470Y909320D02*
X718250Y903540D01*
X209550Y562610D02*
Y563276D01*
X208280Y564546D02*
Y577850D01*
Y564546D02*
X209550Y563276D01*
X1007328Y711557D02*
X1030633D01*
X1004570Y716280D02*
Y730250D01*
X1005110Y692204D02*
X1006050Y693144D01*
Y693810D01*
X1004380Y688480D02*
X1005110Y689210D01*
Y692204D01*
X993990Y695021D02*
X995150Y693861D01*
X993990Y695021D02*
Y695687D01*
X995150Y689210D02*
X995880Y688480D01*
X995150Y689210D02*
Y693861D01*
X849650Y726460D02*
X872430D01*
X874112Y730520D02*
X874172Y730460D01*
X875794Y734580D02*
X875854Y734520D01*
X856305Y722400D02*
X870749D01*
X872430Y726460D02*
X872490Y726400D01*
X870749Y722400D02*
X870809Y722340D01*
X955180Y752058D02*
Y764540D01*
X1025722Y750570D02*
X1062780Y713512D01*
X955180Y752058D02*
X956668Y750570D01*
X1025722D01*
X1002656Y677630D02*
X1014530D01*
X1001426Y676400D02*
X1002656Y677630D01*
X1000760Y676400D02*
X1001426D01*
X1014880Y626980D02*
X1037422D01*
X1045630Y635188D02*
Y684181D01*
X1039476Y620681D02*
Y621553D01*
X1039382Y620281D02*
Y620587D01*
X1037422Y626980D02*
X1045630Y635188D01*
X1039382Y620587D02*
X1039476Y620681D01*
Y621553D02*
X1044400Y626477D01*
X1037586Y618485D02*
X1039382Y620281D01*
X1031490Y676077D02*
Y686212D01*
X1031095Y686607D02*
Y688524D01*
X1030624Y688994D02*
X1031095Y688524D01*
Y686607D02*
X1031490Y686212D01*
X1027430Y674370D02*
Y684530D01*
X1023620Y688340D02*
X1027430Y684530D01*
X665480Y570448D02*
X666968Y568960D01*
X665480Y570448D02*
Y577850D01*
X972520Y681690D02*
X1008090D01*
X961380Y670550D02*
X972520Y681690D01*
X1014530Y677630D02*
X1014880Y677980D01*
X1008090Y681690D02*
X1014880Y688480D01*
X1031490Y676077D02*
X1036570Y670996D01*
X1027430Y674370D02*
X1032510Y669290D01*
Y662468D02*
Y669290D01*
X1036570Y646988D02*
Y670996D01*
X1033562Y643980D02*
X1036570Y646988D01*
X1040340Y681990D02*
X1040630Y681700D01*
Y642516D02*
Y681700D01*
X746380Y695960D02*
Y709930D01*
X1005840Y669290D02*
X1005935Y669385D01*
X1014785D02*
X1014880Y669480D01*
X1005935Y669385D02*
X1014785D01*
X1033594Y635480D02*
X1040630Y642516D01*
X1031022Y660980D02*
X1032510Y662468D01*
X1014880Y660980D02*
X1031022D01*
X1014880Y643980D02*
X1033562D01*
X1046970Y621566D02*
X1049690Y624286D01*
Y707458D01*
X1044224Y712923D02*
X1049690Y707458D01*
X1044224Y712923D02*
Y713456D01*
X872880Y567480D02*
X874880D01*
X1014885Y618485D02*
X1037586D01*
X1014880Y609980D02*
X1037970D01*
X1046970Y618980D01*
Y621566D01*
X1015030Y652630D02*
X1024740D01*
X1024890Y652780D01*
X1014880Y652480D02*
X1015030Y652630D01*
X961380Y634980D02*
Y670550D01*
X1062780Y679374D02*
Y713512D01*
Y679374D02*
X1062990Y679164D01*
Y643890D02*
Y679164D01*
X1014880Y635480D02*
X1033594D01*
X1014880Y618480D02*
X1014885Y618485D01*
X885380Y548480D02*
Y574492D01*
X874880Y575980D02*
X883892D01*
X885380Y574492D01*
X768350Y777240D02*
X784799D01*
X725170Y749300D02*
X736600Y760730D01*
X531078Y749300D02*
X725170D01*
X550320Y719580D02*
Y737652D01*
X569820Y719580D02*
Y736621D01*
X547370Y933450D02*
X563600D01*
X659130Y1059180D02*
X674370Y1043940D01*
X597562Y1059180D02*
X659130D01*
X584370Y1066630D02*
X595880Y1055120D01*
X573830Y1059390D02*
X582160Y1051060D01*
X536710Y1062438D02*
X552148Y1047000D01*
X589370Y1067372D02*
X597562Y1059180D01*
X661430Y1090562D02*
Y1120162D01*
X682171Y1071560D02*
X711676D01*
X661430Y1090562D02*
X662001Y1089991D01*
X623570Y1065530D02*
X660400D01*
X506730Y873760D02*
Y980051D01*
Y873760D02*
X514350Y866140D01*
X503801Y982980D02*
X506730Y980051D01*
X523240Y920750D02*
X563600D01*
X421640Y974090D02*
X500380D01*
X491879Y982980D02*
X503801D01*
X515402Y993140D02*
X516890Y991652D01*
X518378Y906780D02*
X529730D01*
X516890Y908268D02*
Y991652D01*
Y908268D02*
X518378Y906780D01*
X532130Y909180D02*
X533260Y908050D01*
X529730Y906780D02*
X532130Y909180D01*
X495300Y993140D02*
X515402D01*
X255270Y1010920D02*
X566420D01*
X250190Y1016000D02*
X255270Y1010920D01*
X566420D02*
X579120Y1023620D01*
Y1029970D01*
X514350Y866140D02*
X561340D01*
X673100Y933450D02*
X680720Y925830D01*
X643680Y1017480D02*
X680720Y980440D01*
X588010Y1018968D02*
X589498Y1017480D01*
X643680D01*
X588010Y1018968D02*
Y1028700D01*
X633560Y1110150D02*
X685800Y1057910D01*
X633560Y1110150D02*
Y1119024D01*
X637926Y1094965D02*
Y1100042D01*
X629500Y1103083D02*
X634885D01*
X685800Y1057910D02*
X887730D01*
X634885Y1103083D02*
X637926Y1100042D01*
X659942Y1121650D02*
X661430Y1120162D01*
X643670Y1121650D02*
X659942D01*
X1014880Y601480D02*
X1015265Y601095D01*
X1028315D02*
X1028700Y600710D01*
X1015265Y601095D02*
X1028315D01*
X955040Y801370D02*
X955180Y801510D01*
Y830580D01*
X1014880Y575980D02*
X1055590D01*
X910515Y837615D02*
Y847015D01*
X910590Y847090D01*
X910440Y837540D02*
X910515Y837615D01*
X913055Y767765D02*
Y778435D01*
X912980Y767690D02*
X913055Y767765D01*
Y778435D02*
X913130Y778510D01*
X909245Y901115D02*
Y911785D01*
X909170Y901040D02*
X909245Y901115D01*
Y911785D02*
X909320Y911860D01*
X1023340Y885190D02*
X1023480Y885050D01*
Y829310D02*
Y885050D01*
Y764540D02*
Y829310D01*
X564100Y653226D02*
X565150Y652176D01*
X564100Y653226D02*
Y661400D01*
X565150Y651510D02*
Y652176D01*
X563320Y662180D02*
X564100Y661400D01*
X711671Y1065059D02*
X722119D01*
X711200Y1065530D02*
X711671Y1065059D01*
X722119D02*
X722590Y1065530D01*
X712416Y1070820D02*
X735290D01*
X737870Y1073400D01*
X711676Y1071560D02*
X712416Y1070820D01*
X887730Y1057910D02*
X914400Y1084580D01*
X927100Y1205230D02*
X965200D01*
X529590Y747812D02*
X531078Y749300D01*
X529590Y675710D02*
Y747812D01*
Y675710D02*
X536560Y668740D01*
Y662940D02*
Y668740D01*
Y662940D02*
X537320Y662180D01*
Y668740D02*
Y680392D01*
X572975Y650240D02*
X651121D01*
X595630Y697619D02*
Y716651D01*
Y697619D02*
X598559Y694690D01*
X612280D01*
X592701Y719580D02*
X595630Y716651D01*
X560070Y838200D02*
X674370D01*
X560070D02*
X567690Y830580D01*
X496078Y838200D02*
X560070D01*
X680720Y844550D02*
Y925830D01*
X746380Y709930D02*
X753110Y703200D01*
Y700950D02*
Y703200D01*
X612140Y656590D02*
X612280Y656730D01*
Y694690D01*
X537320Y624950D02*
Y662180D01*
X535940Y623570D02*
X537320Y624950D01*
X582820Y662180D02*
Y679560D01*
X580500Y681880D02*
X582820Y679560D01*
X538808Y681880D02*
X580500D01*
X537320Y680392D02*
X538808Y681880D01*
X543820Y662180D02*
Y674412D01*
X545308Y675900D01*
X574832D01*
X576320Y674412D01*
Y662180D02*
Y674412D01*
X570250Y652965D02*
Y655049D01*
Y652965D02*
X572975Y650240D01*
X569820Y655479D02*
X570250Y655049D01*
X569820Y655479D02*
Y662180D01*
X629780Y735330D02*
X642620D01*
X874880Y575980D02*
Y584480D01*
X1014880Y558980D02*
Y567480D01*
Y548480D02*
Y558980D01*
X1004380Y548480D02*
X1014880D01*
X995880D02*
X1004380D01*
X987380D02*
X995880D01*
X978880D02*
X987380D01*
X970380D02*
X978880D01*
X961880D02*
X970380D01*
X953380D02*
X961880D01*
X944880D02*
X953380D01*
X936380D02*
X944880D01*
X927880D02*
X936380D01*
X919380D02*
X927880D01*
X910880D02*
X919380D01*
X902380D02*
X910880D01*
X893880D02*
X902380D01*
X885380D02*
X893880D01*
X874880D02*
X885380D01*
X961380Y601980D02*
X961880Y601480D01*
Y548480D02*
Y601480D01*
X944880Y601980D02*
X961380D01*
X928380D02*
X944880D01*
X928380D02*
Y618480D01*
X944880D01*
X961380D01*
Y634980D01*
X944880D02*
X961380D01*
X928380D02*
X944880D01*
X629780Y694690D02*
X642620D01*
X1040130Y927100D02*
Y938312D01*
X1041618Y939800D02*
X1104660D01*
X1040130Y938312D02*
X1041618Y939800D01*
X651121Y650240D02*
X654050Y653169D01*
Y691761D01*
X656979Y694690D01*
X669290D01*
X670560Y695960D01*
X669290Y656970D02*
X670180Y657860D01*
X582820Y719580D02*
X592701D01*
X336000Y1185114D02*
X336550D01*
X337416Y1185980D01*
X347330D01*
X359530Y1193180D02*
Y1200940D01*
X361018Y1202428D02*
X366768D01*
X359530Y1200940D02*
X361018Y1202428D01*
X366768D02*
X367030Y1202690D01*
X374270Y1195990D02*
X374530Y1195730D01*
X374270Y1195990D02*
Y1215390D01*
X514821Y1127821D02*
X515230Y1127411D01*
Y1058790D02*
Y1127411D01*
X503255Y1120475D02*
X505195D01*
X509940Y1125220D01*
X499249Y1004570D02*
X505880D01*
X514350Y1132840D02*
X514821Y1132369D01*
X488950Y994271D02*
X499249Y1004570D01*
X514821Y1127821D02*
Y1132369D01*
X498220Y1041780D02*
X515230Y1058790D01*
X478905Y1096125D02*
X503255Y1120475D01*
X488950Y993140D02*
Y994271D01*
X376290Y998684D02*
X380906Y1003300D01*
X481330D01*
X492760Y841518D02*
X496078Y838200D01*
X674370D02*
X680720Y844550D01*
X492760Y841518D02*
Y906562D01*
X491272Y908050D02*
X492760Y906562D01*
X186690Y891540D02*
X203200Y908050D01*
X491272D01*
X722590Y1065530D02*
X880110D01*
X598170Y1031190D02*
X604470Y1024890D01*
X573830Y1059390D02*
Y1080539D01*
X579245Y1063115D02*
Y1107225D01*
X579370Y1107350D01*
X579120Y1062990D02*
X579245Y1063115D01*
X573830Y1080539D02*
X574370Y1081079D01*
Y1107350D01*
X684530Y1084580D02*
Y1087080D01*
X674121Y1092310D02*
X679300D01*
X670560Y1095871D02*
X674121Y1092310D01*
X679300D02*
X684530Y1087080D01*
X670560Y1095871D02*
Y1130162D01*
X965200Y1165860D02*
Y1179830D01*
X643800Y1151780D02*
X658730D01*
X643670Y1146650D02*
X664974D01*
X681180Y1136190D02*
X683260Y1134110D01*
X643670Y1151650D02*
X643800Y1151780D01*
X662417Y1136650D02*
X662877Y1136190D01*
X664559Y1140250D02*
X693630D01*
X663159Y1141650D02*
X664559Y1140250D01*
X643670Y1136650D02*
X662417D01*
X693630Y1140250D02*
X695200Y1138680D01*
X664974Y1146650D02*
X666084Y1145540D01*
X658730Y1151780D02*
X658890Y1151940D01*
X666084Y1145540D02*
X666750D01*
X643670Y1141650D02*
X663159D01*
X662877Y1136190D02*
X681180D01*
X655950Y1166490D02*
X669627Y1180167D01*
X651429Y1166490D02*
X655950D01*
X651399Y1166520D02*
X651429Y1166490D01*
X643670Y1166650D02*
X643800Y1166520D01*
X651399D01*
X629370Y1190950D02*
Y1208822D01*
X630858Y1210310D01*
X659130D01*
X589370Y1067372D02*
Y1107350D01*
X594360Y1084880D02*
X594660Y1084580D01*
X594360Y1084880D02*
Y1107340D01*
X584370Y1066630D02*
Y1107350D01*
X561340Y1083092D02*
X562828Y1084580D01*
X568960D01*
X561340Y1062990D02*
Y1083092D01*
X594360Y1107340D02*
X594370Y1107350D01*
X594150Y1218912D02*
X595988Y1220750D01*
X594150Y1203766D02*
X594370Y1203546D01*
X594150Y1203766D02*
Y1218912D01*
X599405Y1207735D02*
X599440Y1207770D01*
X599405Y1190985D02*
Y1207735D01*
X594370Y1190950D02*
Y1203546D01*
X599370Y1190950D02*
X599405Y1190985D01*
X589370Y1190950D02*
Y1203204D01*
X588010Y1204564D02*
X589370Y1203204D01*
X588010Y1204564D02*
Y1205230D01*
X584370Y1190950D02*
Y1201202D01*
X582882Y1202690D02*
X584370Y1201202D01*
X552450Y1202690D02*
X582882D01*
X543710Y1090060D02*
X575130Y1121480D01*
X542000Y1113790D02*
X557530D01*
X536710Y1125162D02*
X538198Y1126650D01*
X559940Y1121520D02*
X560070Y1121650D01*
X542160Y1121520D02*
X559940D01*
X542000Y1121360D02*
X542160Y1121520D01*
X538198Y1126650D02*
X560070D01*
X536710Y1062438D02*
Y1125162D01*
X450280Y1066480D02*
X478905Y1095105D01*
Y1096125D01*
X551199Y1135515D02*
X551524Y1135840D01*
X549699Y1140805D02*
X550169Y1141276D01*
X553266D02*
X553510Y1141520D01*
X559940D01*
X535275Y1135515D02*
X551199D01*
X543880Y1143747D02*
X544546D01*
X551524Y1135840D02*
X552860D01*
X544546Y1143747D02*
X547449Y1146650D01*
X559940Y1141520D02*
X560070Y1141650D01*
X542834Y1150182D02*
X543499D01*
X547449Y1146650D02*
X560070D01*
X530860Y1139930D02*
X535275Y1135515D01*
X543499Y1150182D02*
X544967Y1151650D01*
X552860Y1135840D02*
X553670Y1136650D01*
X544967Y1151650D02*
X560070D01*
X550169Y1141276D02*
X553266D01*
X560070Y1141650D02*
X577882D01*
X553670Y1136650D02*
X560070D01*
X546091Y1157013D02*
X546325Y1156780D01*
X559940D01*
X560070Y1156650D01*
X552860Y1162460D02*
X553670Y1161650D01*
X560070D01*
X530860Y1151890D02*
X538610Y1159640D01*
X543836Y1162460D02*
X552860D01*
X538610Y1159640D02*
X541016D01*
X501150Y1151890D02*
X530860D01*
X541016Y1159640D02*
X543836Y1162460D01*
X499880Y1150620D02*
X501150Y1151890D01*
X496570Y1180882D02*
X498058Y1182370D01*
X544830D02*
X547588Y1179612D01*
X498058Y1182370D02*
X544830D01*
X529590Y1190208D02*
Y1210310D01*
X441960Y1248740D02*
X477520Y1213180D01*
Y1212850D02*
Y1213180D01*
X669627Y1180167D02*
X684867D01*
X575130Y1121480D02*
X597882D01*
X599370Y1119992D01*
Y1107350D02*
Y1119992D01*
X593090Y797560D02*
Y830580D01*
X618490Y797560D02*
Y822742D01*
X619978Y824230D01*
X645160D01*
X695200Y1103120D02*
X697230Y1101090D01*
X695200Y1103120D02*
Y1138680D01*
X699770Y1136868D02*
Y1195070D01*
Y1136868D02*
X701258Y1135380D01*
X731520D01*
X567690Y797560D02*
Y830580D01*
X633080Y1119504D02*
Y1120790D01*
X619370Y1134500D02*
Y1190950D01*
Y1134500D02*
X633080Y1120790D01*
Y1119504D02*
X633560Y1119024D01*
X619370Y1069730D02*
X623570Y1065530D01*
X629370Y1103213D02*
X629500Y1103083D01*
X629370Y1103213D02*
Y1107350D01*
X731520Y1135380D02*
X737870Y1129030D01*
Y1073400D02*
Y1129030D01*
X563600Y984250D02*
X655600D01*
X305900Y1099828D02*
X307558Y1098170D01*
X305900Y1099828D02*
Y1144262D01*
X307558Y1145920D01*
Y1098170D02*
X412370D01*
X307558Y1145920D02*
X327660D01*
X419100Y1131760D02*
X426530Y1139190D01*
X624500Y1107480D02*
Y1117260D01*
X624370Y1107350D02*
X624500Y1107480D01*
X643800Y1171780D02*
X653620D01*
X643670Y1171650D02*
X643800Y1171780D01*
X699770Y1195070D02*
X708660Y1203960D01*
X180340Y726440D02*
X186690Y732790D01*
Y891540D01*
X97180Y726440D02*
X180340D01*
X115570Y792480D02*
X125730Y782320D01*
X93590Y792480D02*
X115570D01*
X91800Y794270D02*
X93590Y792480D01*
X125730Y759849D02*
Y782320D01*
X128659Y756920D02*
X139700D01*
X125730Y759849D02*
X128659Y756920D01*
X680720Y940018D02*
Y980440D01*
X481330Y785078D02*
Y901700D01*
X479842Y783590D02*
X481330Y785078D01*
X451790Y783590D02*
X479842D01*
X674152Y933450D02*
X680720Y940018D01*
X655600Y946150D02*
Y958850D01*
Y971550D01*
Y984250D01*
X563600Y933450D02*
Y946150D01*
Y958850D01*
Y971550D01*
Y984250D01*
X655600Y908050D02*
X674370D01*
X635000Y869950D02*
Y905510D01*
X637540Y908050D02*
X655600D01*
X635000Y905510D02*
X637540Y908050D01*
X631190Y866140D02*
X635000Y869950D01*
X578840Y866140D02*
X631190D01*
X390270Y1215390D02*
X390540Y1215660D01*
X386730Y1211850D02*
X390270Y1215390D01*
X90530Y719790D02*
X97180Y726440D01*
X655600Y933450D02*
X673100D01*
X619370Y1069730D02*
Y1107350D01*
X880110Y1065530D02*
X894080Y1079500D01*
Y1220252D01*
X895568Y1221740D01*
X977900D01*
X996810Y1240650D01*
Y1372792D01*
X998298Y1374280D01*
X1024890D01*
X604370Y1179830D02*
Y1190950D01*
X488950Y985909D02*
X491879Y982980D01*
X563070Y895350D02*
X563600D01*
X561340Y893620D02*
X563070Y895350D01*
X496888Y1187767D02*
X497205Y1188085D01*
X496570Y1187450D02*
X496888Y1187767D01*
X497205Y1188085D02*
X527467D01*
X529590Y1190208D01*
X496570Y1159510D02*
Y1180882D01*
X497840Y1202690D02*
X504190Y1196340D01*
X519430D01*
X250190Y1016000D02*
Y1049020D01*
X595988Y1220750D02*
X605790D01*
X669072Y1131650D02*
X670560Y1130162D01*
X638070Y1079500D02*
Y1094821D01*
X637926Y1094965D02*
X638070Y1094821D01*
X643670Y1131650D02*
X669072D01*
X683260Y1118870D02*
Y1134110D01*
X1051420Y1112660D02*
X1055370Y1108710D01*
X957938Y1112660D02*
X1051420D01*
X956450Y1111172D02*
X957938Y1112660D01*
X956450Y1096010D02*
Y1111172D01*
X914400Y1084580D02*
Y1192530D01*
X936130Y1262520D02*
Y1277620D01*
X930910Y1257300D02*
X936130Y1262520D01*
X746760Y1257300D02*
X930910D01*
X694586Y1205126D02*
X746760Y1257300D01*
X694586Y1189886D02*
Y1205126D01*
X684867Y1180167D02*
X694586Y1189886D01*
X708660Y1203960D02*
X721640D01*
X110210Y905510D02*
X124779D01*
X579370Y1143138D02*
Y1190950D01*
X577882Y1141650D02*
X579370Y1143138D01*
X547588Y1168138D02*
Y1179612D01*
X549076Y1166650D02*
X560070D01*
X547588Y1168138D02*
X549076Y1166650D01*
X250330Y1223010D02*
Y1233570D01*
X546840Y1199410D02*
Y1219200D01*
Y1199410D02*
X555300Y1190950D01*
X574370D01*
X250330Y1233570D02*
X265500Y1248740D01*
X441960D01*
X376290Y974090D02*
Y998684D01*
X436880Y1041780D02*
X498220D01*
X965200Y1165860D02*
X967740Y1163320D01*
X987070D01*
X914400Y1192530D02*
X927100Y1205230D01*
X366298Y1066480D02*
X450280D01*
X364810Y1064992D02*
X366298Y1066480D01*
X364810Y1041780D02*
Y1064992D01*
X90450Y745490D02*
X90530Y745410D01*
X374530Y1193180D02*
Y1195730D01*
X354530Y1193180D02*
Y1223210D01*
X412370Y1098170D02*
X419100Y1104900D01*
Y1131760D01*
X327660Y1117438D02*
Y1129920D01*
Y1117438D02*
X329148Y1115950D01*
X369570D01*
X386730Y1185980D02*
Y1211850D01*
Y1185980D02*
X421802D01*
X347330Y1227872D02*
X348818Y1229360D01*
X389052D01*
X347330Y1185980D02*
Y1227872D01*
X390540Y1215660D02*
Y1227872D01*
X389052Y1229360D02*
X390540Y1227872D01*
X330580Y1143000D02*
X354330D01*
X359491Y1148161D02*
Y1153741D01*
X359530Y1153780D01*
X354330Y1143000D02*
X359491Y1148161D01*
X327660Y1145920D02*
X330580Y1143000D01*
X364400Y1146720D02*
Y1153650D01*
X347600Y1129920D02*
X364400Y1146720D01*
X327660Y1129920D02*
X347600D01*
X383322Y1143218D02*
X384810Y1141730D01*
X374530Y1144706D02*
X376018Y1143218D01*
X383322D01*
X374530Y1144706D02*
Y1153780D01*
X384810Y1117619D02*
Y1141730D01*
X369570Y1115950D02*
X383141D01*
X384810Y1117619D01*
X421802Y1185980D02*
X423290Y1184492D01*
Y1160780D02*
Y1184492D01*
X369530Y1131990D02*
X369570Y1131950D01*
X369530Y1131990D02*
Y1153780D01*
X407090Y1160980D02*
X407290Y1160780D01*
X386730Y1160980D02*
X407090D01*
X645158Y1193580D02*
X672580D01*
X643670Y1192092D02*
X645158Y1193580D01*
X643670Y1176650D02*
Y1192092D01*
X672580Y1193580D02*
X674370Y1191790D01*
D18*
X961380Y618480D02*
D03*
Y634980D02*
D03*
X944880D02*
D03*
X928380D02*
D03*
Y618480D02*
D03*
Y601980D02*
D03*
X944880D02*
D03*
Y618480D02*
D03*
X1034110Y1192530D02*
D03*
X846480Y1201420D02*
D03*
D19*
X1004380Y548480D02*
D03*
X995880D02*
D03*
X987380D02*
D03*
X978880D02*
D03*
X970380D02*
D03*
X961880D02*
D03*
X953380D02*
D03*
X944880D02*
D03*
X936380D02*
D03*
X927880D02*
D03*
X919380D02*
D03*
X910880D02*
D03*
X902380D02*
D03*
X893880D02*
D03*
X885380D02*
D03*
Y688480D02*
D03*
X893880D02*
D03*
X902380D02*
D03*
X910880D02*
D03*
X919380D02*
D03*
X927880D02*
D03*
X936380D02*
D03*
X944880D02*
D03*
X953380D02*
D03*
X961880D02*
D03*
X970380D02*
D03*
X978880D02*
D03*
X987380D02*
D03*
X995880D02*
D03*
X1004380D02*
D03*
D20*
X874880Y558980D02*
D03*
Y567480D02*
D03*
Y575980D02*
D03*
Y584480D02*
D03*
Y592980D02*
D03*
Y601480D02*
D03*
Y609980D02*
D03*
Y618480D02*
D03*
Y626980D02*
D03*
Y635480D02*
D03*
Y643980D02*
D03*
Y652480D02*
D03*
Y660980D02*
D03*
Y669480D02*
D03*
Y677980D02*
D03*
X1014880D02*
D03*
Y669480D02*
D03*
Y660980D02*
D03*
Y652480D02*
D03*
Y643980D02*
D03*
Y635480D02*
D03*
Y626980D02*
D03*
Y618480D02*
D03*
Y609980D02*
D03*
Y601480D02*
D03*
Y592980D02*
D03*
Y584480D02*
D03*
Y575980D02*
D03*
Y567480D02*
D03*
Y558980D02*
D03*
D21*
X874880Y688480D02*
D03*
Y548480D02*
D03*
X1014880Y688480D02*
D03*
Y548480D02*
D03*
D22*
X915670Y882040D02*
D03*
X909170Y901040D02*
D03*
X922170D02*
D03*
X919480Y748690D02*
D03*
X912980Y767690D02*
D03*
X925980D02*
D03*
X916940Y818540D02*
D03*
X910440Y837540D02*
D03*
X923440D02*
D03*
X1035200Y1145490D02*
D03*
X1041700Y1126490D02*
D03*
X1028700D02*
D03*
X1004570Y1090270D02*
D03*
X1011070Y1071270D02*
D03*
X998070D02*
D03*
X943610Y1349350D02*
D03*
X950110Y1330350D02*
D03*
X937110D02*
D03*
D23*
X885190Y900290D02*
D03*
Y882790D02*
D03*
X886460Y836790D02*
D03*
Y819290D02*
D03*
Y767080D02*
D03*
Y749580D02*
D03*
X1036320Y1073430D02*
D03*
Y1090930D02*
D03*
X605790Y1238250D02*
D03*
Y1220750D02*
D03*
X1024890Y1374280D02*
D03*
Y1391780D02*
D03*
X250190Y1144130D02*
D03*
Y1126630D02*
D03*
X248920Y970140D02*
D03*
Y952640D02*
D03*
X532130Y909180D02*
D03*
Y891680D02*
D03*
D24*
X753110Y700950D02*
D03*
Y657950D02*
D03*
D25*
X686560Y695960D02*
D03*
X670560D02*
D03*
X686180Y657860D02*
D03*
X670180D02*
D03*
X1056260Y575310D02*
D03*
X1072260D02*
D03*
X1056260Y613410D02*
D03*
X1072260D02*
D03*
X390270Y1215390D02*
D03*
X374270D02*
D03*
X423290Y1160780D02*
D03*
X407290D02*
D03*
X783210Y1305560D02*
D03*
X799210D02*
D03*
X883030Y1388110D02*
D03*
X867030D02*
D03*
D26*
X1201660Y939800D02*
D03*
Y914400D02*
D03*
X1104660D02*
D03*
Y939800D02*
D03*
X1103390Y791210D02*
D03*
Y765810D02*
D03*
X1200390D02*
D03*
Y791210D02*
D03*
D27*
X629780Y735330D02*
D03*
X612280D02*
D03*
X629780Y694690D02*
D03*
X612280D02*
D03*
X955040Y886460D02*
D03*
X972540D02*
D03*
X1023340Y885190D02*
D03*
X1005840D02*
D03*
X955180Y830580D02*
D03*
X972680D02*
D03*
X1023480Y829310D02*
D03*
X1005980D02*
D03*
X1103490Y730250D02*
D03*
X1085990D02*
D03*
X955180Y764540D02*
D03*
X972680D02*
D03*
X1023480D02*
D03*
X1005980D02*
D03*
X1087260Y876300D02*
D03*
X1104760D02*
D03*
X110210Y905510D02*
D03*
X92710D02*
D03*
X561340Y866140D02*
D03*
X578840D02*
D03*
X721640Y1203960D02*
D03*
X739140D02*
D03*
X737870Y1167130D02*
D03*
X720370D02*
D03*
X1004430Y1126490D02*
D03*
X986930D02*
D03*
X987070Y1163320D02*
D03*
X1004570D02*
D03*
X956450Y1096010D02*
D03*
X973950D02*
D03*
X956450Y1070610D02*
D03*
X973950D02*
D03*
X107950Y745490D02*
D03*
X90450D02*
D03*
X956170Y1376680D02*
D03*
X938670D02*
D03*
X954760Y1304290D02*
D03*
X937260D02*
D03*
X936130Y1277620D02*
D03*
X953630D02*
D03*
X250330Y1223010D02*
D03*
X267830D02*
D03*
X250190Y1049020D02*
D03*
X267690D02*
D03*
D28*
X582820Y719580D02*
D03*
X576320D02*
D03*
X569820D02*
D03*
X563320D02*
D03*
X556820D02*
D03*
X550320D02*
D03*
X543820D02*
D03*
X537320D02*
D03*
Y662180D02*
D03*
X543820D02*
D03*
X550320D02*
D03*
X556820D02*
D03*
X563320D02*
D03*
X569820D02*
D03*
X576320D02*
D03*
X582820D02*
D03*
D29*
X544540Y1286010D02*
D03*
X527540D02*
D03*
X510540D02*
D03*
X493540D02*
D03*
X476540D02*
D03*
D30*
X858800Y830580D02*
D03*
X830300D02*
D03*
X857530Y892810D02*
D03*
X829030D02*
D03*
X858520Y760730D02*
D03*
X830020D02*
D03*
X1004290Y1028700D02*
D03*
X1032790D02*
D03*
X955320Y1414780D02*
D03*
X926820D02*
D03*
D31*
X655600Y908050D02*
D03*
X563600Y933450D02*
D03*
X655600Y895350D02*
D03*
Y920750D02*
D03*
Y933450D02*
D03*
X563600Y920750D02*
D03*
Y946150D02*
D03*
Y958850D02*
D03*
X655600D02*
D03*
X563600Y984250D02*
D03*
X655600Y946150D02*
D03*
Y971550D02*
D03*
X563600D02*
D03*
X655600Y984250D02*
D03*
X563600Y908050D02*
D03*
Y895350D02*
D03*
D32*
X347980Y958470D02*
D03*
Y974470D02*
D03*
X334010Y1025400D02*
D03*
Y1041400D02*
D03*
X436880Y1025780D02*
D03*
Y1041780D02*
D03*
X421640Y958090D02*
D03*
Y974090D02*
D03*
X369570Y1115950D02*
D03*
Y1131950D02*
D03*
X327660Y1129920D02*
D03*
Y1145920D02*
D03*
D33*
X560070Y1176650D02*
D03*
Y1171650D02*
D03*
Y1166650D02*
D03*
Y1161650D02*
D03*
Y1156650D02*
D03*
Y1151650D02*
D03*
Y1146650D02*
D03*
Y1141650D02*
D03*
Y1136650D02*
D03*
Y1131650D02*
D03*
Y1126650D02*
D03*
Y1121650D02*
D03*
X643670D02*
D03*
Y1126650D02*
D03*
Y1131650D02*
D03*
Y1136650D02*
D03*
Y1141650D02*
D03*
Y1146650D02*
D03*
Y1151650D02*
D03*
Y1156650D02*
D03*
Y1161650D02*
D03*
Y1166650D02*
D03*
Y1171650D02*
D03*
Y1176650D02*
D03*
D34*
X574370Y1107350D02*
D03*
X579370D02*
D03*
X584370D02*
D03*
X589370D02*
D03*
X594370D02*
D03*
X599370D02*
D03*
X604370D02*
D03*
X609370D02*
D03*
X614370D02*
D03*
X619370D02*
D03*
X624370D02*
D03*
X629370D02*
D03*
Y1190950D02*
D03*
X624370D02*
D03*
X619370D02*
D03*
X614370D02*
D03*
X609370D02*
D03*
X604370D02*
D03*
X599370D02*
D03*
X594370D02*
D03*
X589370D02*
D03*
X584370D02*
D03*
X579370D02*
D03*
X574370D02*
D03*
D35*
X890310Y1363140D02*
D03*
X867410D02*
D03*
X844510D02*
D03*
D36*
X867410Y1296240D02*
D03*
D37*
X300990Y1289790D02*
D03*
Y1318790D02*
D03*
X530860Y1168930D02*
D03*
Y1139930D02*
D03*
X674370Y1162790D02*
D03*
Y1191790D02*
D03*
D38*
X300990Y1351220D02*
D03*
Y1394520D02*
D03*
D39*
X712260Y1118870D02*
D03*
X683260D02*
D03*
X713530Y1084580D02*
D03*
X684530D02*
D03*
X575840Y1219200D02*
D03*
X546840D02*
D03*
X609070Y1079500D02*
D03*
X638070D02*
D03*
X770890Y1418590D02*
D03*
X799890D02*
D03*
X770890Y1380490D02*
D03*
X799890D02*
D03*
X771630Y1341120D02*
D03*
X800630D02*
D03*
X893870Y1418590D02*
D03*
X864870D02*
D03*
D40*
X364810Y1041780D02*
D03*
X404810D02*
D03*
D41*
X376290Y974090D02*
D03*
X390790D02*
D03*
D42*
X347330Y1185980D02*
D03*
Y1180980D02*
D03*
Y1175980D02*
D03*
Y1170980D02*
D03*
Y1165980D02*
D03*
Y1160980D02*
D03*
X386730D02*
D03*
Y1165980D02*
D03*
Y1170980D02*
D03*
Y1175980D02*
D03*
Y1180980D02*
D03*
Y1185980D02*
D03*
D43*
X354530Y1153780D02*
D03*
X359530D02*
D03*
X364530D02*
D03*
X369530D02*
D03*
X374530D02*
D03*
X379530D02*
D03*
Y1193180D02*
D03*
X374530D02*
D03*
X369530D02*
D03*
X364530D02*
D03*
X359530D02*
D03*
X354530D02*
D03*
D44*
X445770Y1154090D02*
D03*
Y1175090D02*
D03*
D45*
X493520Y1240790D02*
D03*
X525020D02*
D03*
D46*
X1005510Y1192530D02*
D03*
X817880Y1201420D02*
D03*
D47*
X668020Y1314210D02*
D03*
Y1411210D02*
D03*
D48*
X220980Y1320546D02*
D03*
Y1394714D02*
D03*
D49*
X383540Y1319590D02*
D03*
Y1390590D02*
D03*
D50*
X193040Y1127520D02*
D03*
X218440D02*
D03*
Y1224520D02*
D03*
X193040D02*
D03*
X189230Y952500D02*
D03*
X214630D02*
D03*
Y1049500D02*
D03*
X189230D02*
D03*
D51*
X788010Y1197610D02*
D03*
X769010Y1191110D02*
D03*
Y1204110D02*
D03*
D116*
X961380Y601980D02*
D03*
D117*
X510540Y1393510D02*
D03*
D118*
X753020Y657860D02*
X773238D01*
X778510Y663132D02*
Y730250D01*
X773238Y657860D02*
X778510Y663132D01*
X751840Y756920D02*
Y890270D01*
X753110Y891540D01*
X751840Y756920D02*
X778510Y730250D01*
X537822Y1039710D02*
X632460D01*
X640070Y1075690D02*
X652780D01*
X638070Y1077690D02*
Y1079500D01*
Y1077690D02*
X640070Y1075690D01*
X529420Y1048112D02*
X537822Y1039710D01*
X529420Y1138490D02*
X530860Y1139930D01*
X529420Y1048112D02*
Y1138490D01*
X487680Y1213928D02*
X492952Y1219200D01*
X487680Y1189990D02*
Y1213928D01*
X492952Y1219200D02*
X546840D01*
X577320Y1242800D02*
X595630Y1261110D01*
X546840Y1242800D02*
X577320D01*
X546840Y1219200D02*
Y1242800D01*
X821690Y1356168D02*
X828662Y1363140D01*
X821690Y1308100D02*
Y1356168D01*
X828662Y1363140D02*
X844510D01*
X487680Y1147202D02*
Y1189990D01*
X482403Y1195267D02*
X487680Y1189990D01*
X480060Y1197610D02*
X482403Y1195267D01*
X267690Y1049020D02*
X268191Y1049521D01*
X267830Y1066940D02*
X268191Y1066579D01*
X254000Y1080770D02*
X267830Y1066940D01*
Y1223010D01*
X268191Y1049521D02*
Y1066579D01*
X492952Y1141930D02*
X528860D01*
X487680Y1147202D02*
X492952Y1141930D01*
X373190Y974280D02*
X373380Y974090D01*
X348170Y974280D02*
X373190D01*
X71418Y1080770D02*
X254000D01*
X47166Y1056518D02*
X71418Y1080770D01*
X47166Y774892D02*
Y1056518D01*
Y774892D02*
X52438Y769620D01*
X102678D01*
X107950Y764348D01*
Y745490D02*
Y764348D01*
X435750Y1240650D02*
X447040Y1229360D01*
X457008Y1197610D02*
X480060D01*
X447040Y1207578D02*
Y1229360D01*
Y1207578D02*
X457008Y1197610D01*
X273102Y1240650D02*
X435750D01*
X462225Y1175090D02*
X482403Y1195267D01*
X445770Y1175090D02*
X462225D01*
X528860Y1141930D02*
X530860Y1139930D01*
X392430Y974090D02*
X421640D01*
X347980Y974470D02*
X348170Y974280D01*
X404810Y1041780D02*
X436880D01*
X404810Y1041780D02*
X404810Y1041780D01*
X364620Y1041590D02*
X364810Y1041780D01*
X334200Y1041590D02*
X364620D01*
X334010Y1041400D02*
X334200Y1041590D01*
X249950Y1049260D02*
X250190Y1049020D01*
X214870Y1049260D02*
X249950D01*
X214630Y1049500D02*
X214870Y1049260D01*
X267830Y1235378D02*
X273102Y1240650D01*
X267830Y1223010D02*
Y1235378D01*
X1024890Y1391780D02*
X1045018D01*
X1050290Y1397052D01*
Y1399540D01*
X911860Y1446530D02*
X1024890D01*
X1050290Y1421130D01*
X911860Y1446530D02*
X924669Y1433721D01*
X1050290Y1399540D02*
Y1421130D01*
X924669Y1416931D02*
X926820Y1414780D01*
X924669Y1416931D02*
Y1433721D01*
X875030Y1446530D02*
X911860D01*
X866870Y1438370D02*
X875030Y1446530D01*
X866870Y1420590D02*
Y1438370D01*
X674370Y1191790D02*
X675518Y1192938D01*
Y1230492D01*
X728337Y1283311D01*
X814681D01*
X595630Y1261110D02*
X644899D01*
X675518Y1230492D01*
X867410Y1363140D02*
Y1387730D01*
Y1336040D02*
Y1363140D01*
X814681Y1283311D02*
X867410Y1336040D01*
X864870Y1416090D02*
Y1418590D01*
X867288Y1388688D02*
Y1413672D01*
X864870Y1418590D02*
X866870Y1420590D01*
X864870Y1416090D02*
X867288Y1413672D01*
X955745Y1377105D02*
X956170Y1376680D01*
X955745Y1377105D02*
Y1414355D01*
X955320Y1414780D02*
X955745Y1414355D01*
X799890Y1380490D02*
X838302D01*
X844160Y1363490D02*
Y1374632D01*
X838302Y1380490D02*
X844160Y1374632D01*
Y1363490D02*
X844510Y1363140D01*
D119*
X1201660Y939800D02*
Y972825D01*
X1282837Y949423D02*
X1283970Y948290D01*
X1209275Y980440D02*
X1274845D01*
X1282837Y949423D02*
Y962523D01*
X1282460Y962900D02*
X1282837Y962523D01*
X1274845Y980440D02*
X1282460Y972825D01*
Y962900D02*
Y972825D01*
X1201660D02*
X1209275Y980440D01*
X1208555Y816130D02*
X1276355D01*
X1283970Y787000D02*
Y808515D01*
X1276355Y816130D02*
X1283970Y808515D01*
X1200940D02*
X1208555Y816130D01*
X1200940Y791760D02*
Y808515D01*
X1200390Y791210D02*
X1200940Y791760D01*
X1201660Y857245D02*
Y914400D01*
Y857245D02*
X1209275Y849630D01*
X1276355D01*
X1283970Y857245D01*
Y898290D01*
X686180Y657860D02*
X753020D01*
X149860Y942335D02*
Y1024895D01*
X188380Y942335D02*
Y951950D01*
X149860Y942335D02*
X157475Y934720D01*
X180765D02*
X188380Y942335D01*
X157475Y934720D02*
X180765D01*
X115570Y1032110D02*
X115970Y1032510D01*
X142245D01*
X149860Y1024895D01*
X118110Y1203560D02*
X154945D01*
X162560Y1195945D01*
Y1121410D02*
Y1195945D01*
Y1121410D02*
X171253Y1112717D01*
X193040D01*
X188930Y952500D02*
X189230D01*
X188380Y951950D02*
X188930Y952500D01*
X193040Y1112717D02*
Y1127520D01*
D120*
X926369Y853230D02*
X971311D01*
X974240Y832140D02*
Y850301D01*
X971311Y853230D02*
X974240Y850301D01*
X923440D02*
X926369Y853230D01*
X923440Y837540D02*
Y850301D01*
X877545Y740310D02*
X878045Y739810D01*
X830020Y743339D02*
X833049Y740310D01*
X877545D01*
X1027261Y739810D02*
X1056260Y710811D01*
X878045Y739810D02*
X1027261D01*
X830020Y743339D02*
Y760730D01*
X1056260Y575310D02*
Y613410D01*
Y710811D01*
X621030Y1238250D02*
X624840Y1234440D01*
X605790Y1238250D02*
X621030D01*
X928759Y783590D02*
X968481D01*
X925830Y767840D02*
Y780661D01*
X972680Y764540D02*
Y779391D01*
X925830Y767840D02*
X925980Y767690D01*
X968481Y783590D02*
X972680Y779391D01*
X925830Y780661D02*
X928759Y783590D01*
X972680Y830580D02*
X974240Y832140D01*
X198120Y560070D02*
X199210Y558980D01*
X926099Y910762D02*
X969611D01*
X972540Y886460D02*
Y907834D01*
X969611Y910762D02*
X972540Y907834D01*
X1055590Y575980D02*
X1056260Y575310D01*
X919035Y749135D02*
X919480Y748690D01*
X886905Y749135D02*
X919035D01*
X886460Y749580D02*
X886905Y749135D01*
X830020Y760730D02*
X830300Y761010D01*
Y830580D01*
X858520Y760730D02*
Y761580D01*
X864020Y767080D01*
X886460D01*
X972680Y764540D02*
X1005980D01*
X923170Y907834D02*
X926099Y910762D01*
X923170Y902040D02*
Y907834D01*
X922170Y901040D02*
X923170Y902040D01*
X915295Y882415D02*
X915670Y882040D01*
X885565Y882415D02*
X915295D01*
X885190Y882790D02*
X885565Y882415D01*
X886460Y819290D02*
X886835Y818915D01*
X916565D01*
X916940Y818540D01*
X1005345Y829945D02*
X1005980Y829310D01*
X973315Y829945D02*
X1005345D01*
X972680Y830580D02*
X973315Y829945D01*
X1005205Y885825D02*
X1005840Y885190D01*
X973175Y885825D02*
X1005205D01*
X972540Y886460D02*
X973175Y885825D01*
X858800Y831290D02*
X864300Y836790D01*
X858800Y830580D02*
Y831290D01*
X864300Y836790D02*
X886460D01*
X857530Y891120D02*
Y894790D01*
X863030Y900290D01*
X885190D01*
X829030Y831850D02*
X830300Y830580D01*
X829030Y831850D02*
Y892810D01*
X1011070Y1071270D02*
X1011730Y1070610D01*
X1017270D01*
X1041700Y1126490D02*
X1049020D01*
X950110Y1330350D02*
X958240D01*
X561340Y866140D02*
Y893620D01*
X533260Y908050D02*
X563600D01*
X953630Y1277620D02*
X973701D01*
X976630Y1280549D01*
Y1314450D01*
X971550Y1319530D02*
X976630Y1314450D01*
X937185Y1319530D02*
X971550D01*
X937185D02*
Y1330275D01*
X937110Y1330350D02*
X937185Y1330275D01*
Y1304365D02*
Y1319530D01*
Y1304365D02*
X937260Y1304290D01*
X923290Y1373751D02*
X926219Y1376680D01*
X923290Y1352279D02*
Y1373751D01*
X926219Y1376680D02*
X938670D01*
X923290Y1352279D02*
X926219Y1349350D01*
X943610D01*
D121*
X1200390Y707732D02*
X1219782Y688340D01*
X1275183D01*
X1200390Y707732D02*
Y765810D01*
X1275183Y688340D02*
X1283970Y697127D01*
Y737000D01*
X1239520Y1081545D02*
Y1186180D01*
X1230733Y1072758D02*
X1239520Y1081545D01*
X1205188Y1072758D02*
X1230733D01*
X1204270Y1071840D02*
X1205188Y1072758D01*
X1239520Y1186180D02*
X1248880Y1195540D01*
X1287780D01*
X1084270Y1035360D02*
Y1071840D01*
X1094740Y1024890D02*
X1270000D01*
X1084270Y1035360D02*
X1094740Y1024890D01*
X1270000D02*
X1287780Y1042670D01*
Y1095540D01*
Y1145540D02*
X1350113D01*
X1362710Y1158137D01*
Y1234543D01*
X1353923Y1243330D02*
X1362710Y1234543D01*
X1150128Y1243330D02*
X1353923D01*
X1035050Y1323340D02*
X1050290D01*
X383540Y1390590D02*
Y1424940D01*
X1144270Y1213840D02*
Y1237472D01*
X1150128Y1243330D01*
X300893Y1394617D02*
X300990Y1394520D01*
X221077Y1394617D02*
X300893D01*
X220980Y1394714D02*
X221077Y1394617D01*
D122*
X768350Y1182370D02*
Y1191110D01*
X707770Y695960D02*
X746380D01*
X768350Y1191110D02*
X769010D01*
X712260Y1118870D02*
X722630D01*
X720370Y1152170D02*
Y1167130D01*
X643890Y797560D02*
X669290D01*
X693060Y695960D02*
X707770D01*
X674370Y1162790D02*
X690350D01*
X713530Y1084580D02*
X723900D01*
X956450Y1055230D02*
Y1070610D01*
X975360Y1126490D02*
X986930D01*
X737870Y1167130D02*
X738505Y1167765D01*
Y1203325D01*
X739140Y1203960D01*
X739290Y1204110D01*
X769010D01*
X788010Y1197610D02*
Y1218590D01*
X842380Y1223010D02*
X846480Y1218910D01*
X792430Y1223010D02*
X842380D01*
X846480Y1201420D02*
Y1218910D01*
X788010Y1218590D02*
X792430Y1223010D01*
X998070Y1070610D02*
Y1071270D01*
X973950Y1070610D02*
X998070D01*
X973950D02*
Y1096010D01*
X1032790Y1028700D02*
X1034555Y1030465D01*
Y1071665D01*
X1036320Y1073430D01*
X1035990Y1090600D02*
X1036320Y1090930D01*
X1004570Y1090600D02*
X1035990D01*
X1004570Y1090270D02*
Y1090600D01*
X1034110Y1192530D02*
X1035200Y1191440D01*
Y1145490D02*
Y1191440D01*
X1004430Y1126490D02*
X1028700D01*
X1004430D02*
X1004500Y1126560D01*
Y1163250D01*
X1004570Y1163320D01*
D123*
X515620Y1168400D02*
X530860D01*
X578840Y866140D02*
X579120Y866420D01*
X578090Y866890D02*
X578840Y866140D01*
X532130Y852170D02*
X538200Y846100D01*
X572982D02*
X578840Y851958D01*
Y866140D01*
X538200Y846100D02*
X572982D01*
X1104660Y914400D02*
X1104760Y914300D01*
Y876300D02*
Y914300D01*
X1103390Y765810D02*
X1103440Y765760D01*
Y730300D02*
Y765760D01*
Y730300D02*
X1103490Y730250D01*
X207010Y774700D02*
X215900Y783590D01*
X251790D01*
X510540Y1258570D02*
Y1286010D01*
Y1247098D02*
Y1258570D01*
X576580Y1219940D02*
Y1227750D01*
X525020Y1240790D02*
Y1240840D01*
X524620Y1241240D02*
X525020Y1240840D01*
X516398Y1241240D02*
X524620D01*
X510540Y1247098D02*
X516398Y1241240D01*
X677150Y1323340D02*
X799920D01*
X668020Y1314210D02*
X677150Y1323340D01*
X768350Y1305560D02*
X783210D01*
X609600Y1066970D02*
Y1078970D01*
X589280Y1335548D02*
Y1405352D01*
X595138Y1411210D02*
X668020D01*
X583422Y1329690D02*
X589280Y1335548D01*
Y1405352D02*
X595138Y1411210D01*
X193040Y1224520D02*
Y1239520D01*
X189230Y1049500D02*
Y1062990D01*
X74930Y628650D02*
X90010D01*
X90530Y629170D01*
X249670Y969390D02*
X261240D01*
X248920Y970140D02*
X249670Y969390D01*
X423140Y956590D02*
X432790D01*
X421640Y958090D02*
X423140Y956590D01*
X349480Y956970D02*
X361290D01*
X347980Y958470D02*
X349480Y956970D01*
X436880Y1025780D02*
X437770Y1024890D01*
X450850D01*
X318770D02*
X333500D01*
X334010Y1025400D01*
X235330Y1143380D02*
X249440D01*
X250190Y1144130D01*
X326770Y1129030D02*
X327660Y1129920D01*
X313690Y1129030D02*
X326770D01*
X390270Y1215390D02*
X403860D01*
X439912Y1139190D02*
X445770Y1145048D01*
Y1154090D01*
X426530Y1139190D02*
X439912D01*
X423290Y1160780D02*
X433070D01*
X407290Y1145048D02*
X413148Y1139190D01*
X407290Y1145048D02*
Y1160780D01*
X413148Y1139190D02*
X426530D01*
X530860Y1168400D02*
Y1168930D01*
X609070Y1079500D02*
X609600Y1078970D01*
X575840Y1219200D02*
X576580Y1219940D01*
X954760Y1304290D02*
X967610D01*
X893870Y1418590D02*
X906780D01*
X893870D02*
X895140Y1417320D01*
X893870Y1393968D02*
Y1418590D01*
X888012Y1388110D02*
X893870Y1393968D01*
X883030Y1388110D02*
X888012D01*
X888888Y1363140D02*
X890310D01*
X883030Y1368998D02*
X888888Y1363140D01*
X883030Y1368998D02*
Y1388110D01*
X770890Y1418590D02*
Y1440180D01*
Y1380490D02*
Y1418590D01*
Y1380490D02*
X771260Y1380120D01*
Y1341490D02*
Y1380120D01*
Y1341490D02*
X771630Y1341120D01*
X544540Y1286010D02*
Y1314160D01*
X527540Y1263158D02*
Y1286010D01*
Y1263158D02*
X533398Y1257300D01*
X554990D01*
X300990Y1289790D02*
X320780D01*
X321310Y1290320D01*
X802620Y1102240D02*
X812022D01*
X795120Y1094740D02*
X802620Y1102240D01*
X817880Y1108098D02*
Y1201420D01*
X812022Y1102240D02*
X817880Y1108098D01*
X532130Y876300D02*
Y891680D01*
X90530Y719790D02*
Y745410D01*
Y694170D02*
Y719790D01*
X947420Y1192530D02*
X1005510D01*
X476540Y1265698D02*
Y1286010D01*
X383140Y1319190D02*
X383540Y1319590D01*
X381000Y1317050D02*
X383140Y1319190D01*
X846480Y1201420D02*
X867902D01*
X873760Y1097380D02*
Y1195562D01*
X867902Y1201420D02*
X873760Y1195562D01*
X248850Y952570D02*
X248920Y952640D01*
X214700Y952570D02*
X248850D01*
X214630Y952500D02*
X214700Y952570D01*
X386858Y1259840D02*
X470682D01*
X381000Y1265698D02*
Y1317050D01*
Y1265698D02*
X386858Y1259840D01*
X470682D02*
X476540Y1265698D01*
X92429Y905510D02*
X92710D01*
X92179Y905260D02*
X92429Y905510D01*
X92179Y859649D02*
Y905260D01*
X91800Y859270D02*
X92179Y859649D01*
X249190Y1126630D02*
X250190D01*
X248300Y1127520D02*
X249190Y1126630D01*
X218440Y1127520D02*
X248300D01*
X250330Y1223010D02*
Y1223770D01*
X249580Y1224520D02*
X250330Y1223770D01*
X218440Y1224520D02*
X249580D01*
X799920Y1323340D02*
Y1340410D01*
X554990Y1257300D02*
X576580Y1278890D01*
X662162D01*
X668020Y1284748D02*
Y1314210D01*
X662162Y1278890D02*
X668020Y1284748D01*
X871120Y1094740D02*
X873760Y1097380D01*
X1005510Y1192530D02*
Y1223172D01*
X1012928Y1230590D01*
X1100352D01*
X1106210Y1224732D01*
Y1199698D02*
Y1224732D01*
Y1199698D02*
X1112068Y1193840D01*
X1204270D01*
X933450Y1045210D02*
Y1178560D01*
Y1045210D02*
X949960Y1028700D01*
X1004290D01*
X933450Y1178560D02*
X947420Y1192530D01*
X1083615Y1193185D02*
X1084270Y1193840D01*
X1034765Y1193185D02*
X1083615D01*
X1034110Y1192530D02*
X1034765Y1193185D01*
X1050220Y1374210D02*
X1050290Y1374140D01*
X1024960Y1374210D02*
X1050220D01*
X1024890Y1374280D02*
X1024960Y1374210D01*
X799890Y1380490D02*
Y1418590D01*
X799210Y1305560D02*
X799920Y1306270D01*
Y1323340D01*
Y1340410D02*
X800630Y1341120D01*
X800260Y1341490D02*
X800630Y1341120D01*
X800260Y1341490D02*
Y1380120D01*
X799890Y1380490D02*
X800260Y1380120D01*
X507018Y1329690D02*
X583422D01*
X493540Y1316212D02*
X507018Y1329690D01*
X493540Y1286010D02*
Y1316212D01*
X493520Y1240790D02*
X493530Y1240800D01*
Y1286000D01*
X493540Y1286010D01*
X301390Y1319190D02*
X383140D01*
X300990Y1318790D02*
X301390Y1319190D01*
X300990Y1320800D02*
Y1351220D01*
D124*
X174276Y1321091D02*
X220435D01*
X162560Y1332807D02*
X174276Y1321091D01*
X150844Y1375010D02*
X162560Y1363294D01*
Y1332807D02*
Y1363294D01*
X121920Y1375010D02*
X150844D01*
X220435Y1321091D02*
X220980Y1320546D01*
D125*
X81280Y577850D02*
D03*
D126*
X106680D02*
D03*
X132080D02*
D03*
X157480D02*
D03*
X182880D02*
D03*
X208280D02*
D03*
X233680D02*
D03*
X259080D02*
D03*
X284480D02*
D03*
X309880D02*
D03*
X335280D02*
D03*
X360680D02*
D03*
X386080D02*
D03*
X411480D02*
D03*
X436880D02*
D03*
X462280D02*
D03*
X487680D02*
D03*
X513080D02*
D03*
X538480D02*
D03*
X563880D02*
D03*
X589280D02*
D03*
X614680D02*
D03*
X640080D02*
D03*
X665480D02*
D03*
X690880D02*
D03*
X716280D02*
D03*
X741680D02*
D03*
D127*
X567690Y797560D02*
D03*
X593090D02*
D03*
X618490D02*
D03*
D128*
X643890D02*
D03*
D129*
X535940Y623570D02*
D03*
D130*
X586740D02*
D03*
D131*
X1203960Y609430D02*
D03*
X1178960D02*
D03*
X1228960D02*
D03*
X1153960D02*
D03*
D132*
X1253960D02*
D03*
D133*
X451790Y783590D02*
D03*
D134*
X251790D02*
D03*
D135*
X1287780Y1145540D02*
D03*
Y1195540D02*
D03*
X121920Y1325010D02*
D03*
X1283970Y948290D02*
D03*
X118110Y1153560D02*
D03*
X1283970Y787000D02*
D03*
X115570Y982110D02*
D03*
D136*
X1287780Y1095540D02*
D03*
X121920Y1375010D02*
D03*
X1283970Y898290D02*
D03*
X118110Y1203560D02*
D03*
X1283970Y737000D02*
D03*
X115570Y1032110D02*
D03*
D137*
X136800Y859270D02*
D03*
X135530Y694170D02*
D03*
D138*
X136800Y794270D02*
D03*
X91800Y859270D02*
D03*
Y794270D02*
D03*
X135530Y629170D02*
D03*
X90530Y694170D02*
D03*
Y629170D02*
D03*
D139*
X795120Y1094740D02*
D03*
D140*
X871120D02*
D03*
D141*
X1204270Y1193840D02*
D03*
D142*
X1144270Y1213840D02*
D03*
D143*
X1084270Y1193840D02*
D03*
Y1071840D02*
D03*
X1204270D02*
D03*
D144*
X1050290Y1399540D02*
D03*
Y1374140D02*
D03*
Y1348740D02*
D03*
Y1323340D02*
D03*
D145*
X1297940Y1361440D02*
D03*
D146*
X1040340Y885190D02*
D03*
X1087120Y894080D02*
D03*
X595630Y767080D02*
D03*
X613410D02*
D03*
X543820Y742690D02*
D03*
X549910Y639020D02*
D03*
X285440D02*
D03*
X744220Y975360D02*
D03*
X665280Y1012144D02*
D03*
X668724Y1029404D02*
D03*
X736600Y989330D02*
D03*
X1075690Y730250D02*
D03*
X557485Y735330D02*
D03*
X563880Y734060D02*
D03*
X706120Y784860D02*
D03*
X1072260Y560450D02*
D03*
X1016000Y858520D02*
D03*
X722630Y919480D02*
D03*
X716280Y891540D02*
D03*
X576580Y732790D02*
D03*
X712050Y909320D02*
D03*
X523240Y580544D02*
D03*
X607060Y603035D02*
D03*
X591820Y599394D02*
D03*
X518775Y601559D02*
D03*
X501650Y612140D02*
D03*
X640080Y618180D02*
D03*
X786130Y606040D02*
D03*
X692714Y628960D02*
D03*
X786130Y617220D02*
D03*
X670976Y640934D02*
D03*
X693381Y618380D02*
D03*
X810350Y603920D02*
D03*
X797560Y607800D02*
D03*
X604520Y629710D02*
D03*
X814070Y764540D02*
D03*
X787376Y648160D02*
D03*
X800186Y638278D02*
D03*
X803040Y644514D02*
D03*
X808900Y650240D02*
D03*
X807720Y589280D02*
D03*
X829210Y594753D02*
D03*
X758030Y567305D02*
D03*
X723424Y583990D02*
D03*
X729944Y584506D02*
D03*
X867830Y678180D02*
D03*
X822435Y714102D02*
D03*
X856830Y684530D02*
D03*
X866600Y669385D02*
D03*
X284480Y627380D02*
D03*
X557530Y646890D02*
D03*
X685800Y620211D02*
D03*
X819480Y645217D02*
D03*
X835720Y594386D02*
D03*
X867830Y654050D02*
D03*
Y661670D02*
D03*
Y601480D02*
D03*
X184150Y619760D02*
D03*
X511896Y585834D02*
D03*
X679450Y617220D02*
D03*
X882867Y680493D02*
D03*
X868370Y608136D02*
D03*
X899160Y695960D02*
D03*
X496015Y575876D02*
D03*
X551489Y578398D02*
D03*
X902380Y692250D02*
D03*
X910880D02*
D03*
X919239D02*
D03*
X893059Y691194D02*
D03*
X421640Y603500D02*
D03*
X665480Y590855D02*
D03*
X794810Y708660D02*
D03*
Y694690D02*
D03*
X823170Y723900D02*
D03*
X927880Y691020D02*
D03*
X928130Y705660D02*
D03*
X674370Y576580D02*
D03*
X421640Y588860D02*
D03*
X603510Y578660D02*
D03*
X961880Y692960D02*
D03*
X970380D02*
D03*
X978880D02*
D03*
X936380D02*
D03*
X953380D02*
D03*
X944880D02*
D03*
X987380D02*
D03*
X979170Y715320D02*
D03*
X960088Y711408D02*
D03*
X970380Y715320D02*
D03*
X986790D02*
D03*
X736600Y894080D02*
D03*
X209550Y562610D02*
D03*
X1025456Y706267D02*
D03*
X1004570Y716280D02*
D03*
X1006050Y693810D02*
D03*
X993990Y695687D02*
D03*
X1000760Y676400D02*
D03*
X1044400Y626477D02*
D03*
X1030624Y688994D02*
D03*
X1023620Y688340D02*
D03*
X1040340Y681990D02*
D03*
X1005840Y669290D02*
D03*
X1044224Y713456D02*
D03*
X1041820Y700370D02*
D03*
X1024890Y652780D02*
D03*
X1069340Y707390D02*
D03*
X1062990Y643890D02*
D03*
X697230Y778510D02*
D03*
X768350Y777240D02*
D03*
X624840Y1234440D02*
D03*
X547370Y933450D02*
D03*
X661430Y1090562D02*
D03*
X682171Y1071560D02*
D03*
X500380Y974090D02*
D03*
X523240Y920750D02*
D03*
X1028700Y600710D02*
D03*
X955040Y801370D02*
D03*
X910590Y847090D02*
D03*
X913130Y778510D02*
D03*
X909320Y911860D02*
D03*
X565150Y651510D02*
D03*
X711200Y1065530D02*
D03*
X965200Y1205230D02*
D03*
X612140Y656590D02*
D03*
X642620Y735330D02*
D03*
Y694690D02*
D03*
X198120Y560070D02*
D03*
X1040130Y927100D02*
D03*
X367030Y1202690D02*
D03*
X509940Y1125220D02*
D03*
X505880Y1004570D02*
D03*
X495300Y993140D02*
D03*
X481330Y1003300D02*
D03*
X732790Y1051560D02*
D03*
X588010Y1028700D02*
D03*
X579120Y1029970D02*
D03*
X598170Y1031190D02*
D03*
X674370Y1043940D02*
D03*
X579120Y1062990D02*
D03*
X965200Y1179830D02*
D03*
X658890Y1151940D02*
D03*
X666750Y1145540D02*
D03*
X653620Y1171780D02*
D03*
X660400Y1210310D02*
D03*
X594660Y1084580D02*
D03*
X568960D02*
D03*
X599440Y1207770D02*
D03*
X588010Y1205230D02*
D03*
X543710Y1090060D02*
D03*
X557530Y1113790D02*
D03*
X542000D02*
D03*
Y1121360D02*
D03*
X514350Y1132840D02*
D03*
X542834Y1150182D02*
D03*
X549699Y1140805D02*
D03*
X543880Y1143747D02*
D03*
X546091Y1157013D02*
D03*
X499880Y1150620D02*
D03*
X529590Y1210310D02*
D03*
X477520Y1212850D02*
D03*
X481330Y901700D02*
D03*
X561340Y1062990D02*
D03*
X593090Y830580D02*
D03*
X645160Y824230D02*
D03*
X624500Y1117260D02*
D03*
X1017270Y1070610D02*
D03*
X1049020Y1126490D02*
D03*
X958240Y1330350D02*
D03*
X770890Y927100D02*
D03*
X139700Y756920D02*
D03*
X674370Y908050D02*
D03*
X604370Y1179830D02*
D03*
X496888Y1187767D02*
D03*
X497840Y1202690D02*
D03*
X519430Y1196340D02*
D03*
X552450Y1202690D02*
D03*
X496570Y1159510D02*
D03*
X354530Y1223210D02*
D03*
D147*
X753110Y891540D02*
D03*
X632460Y1039710D02*
D03*
X652780Y1075690D02*
D03*
X821690Y1308100D02*
D03*
D148*
X532130Y852170D02*
D03*
X207010Y774700D02*
D03*
X469900Y1259840D02*
D03*
X510540Y1258570D02*
D03*
X576580Y1227750D02*
D03*
X768350Y1305560D02*
D03*
X553720Y1433830D02*
D03*
X535940D02*
D03*
X518160D02*
D03*
X500380D02*
D03*
X482600D02*
D03*
X467360D02*
D03*
X552450Y1450340D02*
D03*
X535940D02*
D03*
X518160D02*
D03*
X500380D02*
D03*
X483870D02*
D03*
X468630D02*
D03*
X609600Y1066970D02*
D03*
X193040Y1239520D02*
D03*
X189230Y1065530D02*
D03*
X74930Y628650D02*
D03*
X261240Y969390D02*
D03*
X361290Y956970D02*
D03*
X432790Y956590D02*
D03*
X450850Y1024890D02*
D03*
X318770D02*
D03*
X235330Y1143380D02*
D03*
X313690Y1129030D02*
D03*
X403860Y1215390D02*
D03*
X433070Y1160780D02*
D03*
X515620Y1168400D02*
D03*
X967610Y1304290D02*
D03*
X906780Y1418590D02*
D03*
X770890Y1440180D02*
D03*
X544540Y1314160D02*
D03*
X321310Y1290320D02*
D03*
X532130Y876300D02*
D03*
D149*
X768350Y1182370D02*
D03*
X722630Y1118870D02*
D03*
X720370Y1152170D02*
D03*
X669290Y797560D02*
D03*
X707770Y695960D02*
D03*
X690350Y1162790D02*
D03*
X723900Y1084580D02*
D03*
X956450Y1055230D02*
D03*
X975360Y1126490D02*
D03*
D150*
X336000Y1185114D02*
D03*
D151*
X697230Y1101090D02*
D03*
D152*
X1031240Y1323340D02*
D03*
X383540Y1424940D02*
D03*
D153*
X124779Y905510D02*
D03*
M02*
