M48
;Layer_Color=9474304
;FILE_FORMAT=4:4
METRIC,TZ
;TYPE=PLATED
T01F00S00C0.1250
T02F00S00C0.2540
T03F00S00C0.3000
T04F00S00C0.5000
T05F00S00C0.6350
T06F00S00C0.7000
T07F00S00C0.7112
T08F00S00C0.8000
T09F00S00C0.8128
T10F00S00C0.9000
T11F00S00C0.9900
T12F00S00C1.0000
T13F00S00C1.0200
T14F00S00C1.1700
T15F00S00C1.2900
T16F00S00C1.3000
T17F00S00C1.3200
T18F00S00C1.5000
%
T01
X124779Y905510
T02
X1017270Y1070610
X1049020Y1126490
T03
X807720Y589280
X810350Y603920
X797560Y607800
X800186Y638278
X803040Y644514
X808900Y650240
X819480Y645217
X867830Y654050
Y661670
X866600Y669385
X867830Y678180
X882867Y680493
X893059Y691194
X902380Y692250
X899160Y695960
X910880Y692250
X919239
X927880Y691020
X936380Y692960
X944880
X953380
X961880
X970380
X978880
X987380
X993990Y695687
X1006050Y693810
X1000760Y676400
X1005840Y669290
X1024890Y652780
X1023620Y688340
X1030624Y688994
X1040340Y681990
X1041820Y700370
X1044224Y713456
X1025456Y706267
X1004570Y716280
X986790Y715320
X979170
X970380
X960088Y711408
X928130Y705660
X913130Y778510
X814070Y764540
X823170Y723900
X822435Y714102
X794810Y708660
Y694690
X856830Y684530
X868370Y608136
X867830Y601480
X835720Y594386
X829210Y594753
X1028700Y600710
X1044400Y626477
X1062990Y643890
X1069340Y707390
X1075690Y730250
X1072260Y560450
X758030Y567305
X729944Y584506
X723424Y583990
X674370Y576580
X665480Y590855
X679450Y617220
X685800Y620211
X693381Y618380
X692714Y628960
X670976Y640934
X640080Y618180
X604520Y629710
X607060Y603035
X591820Y599394
X603510Y578660
X551489Y578398
X523240Y580544
X511896Y585834
X518775Y601559
X501650Y612140
X496015Y575876
X421640Y588860
Y603500
X549910Y639020
X557530Y646890
X565150Y651510
X612140Y656590
X642620Y694690
Y735330
X613410Y767080
X595630
X576580Y732790
X563880Y734060
X557485Y735330
X543820Y742690
X697230Y778510
X706120Y784860
X768350Y777240
X787376Y648160
X786130Y617220
Y606040
X284480Y627380
X285440Y639020
X184150Y619760
X198120Y560070
X209550Y562610
X139700Y756920
X481330Y901700
X523240Y920750
X547370Y933450
X500380Y974090
X495300Y993140
X505880Y1004570
X481330Y1003300
X579120Y1029970
X588010Y1028700
X598170Y1031190
X579120Y1062990
X561340
X568960Y1084580
X594660
X543710Y1090060
X542000Y1113790
Y1121360
X557530Y1113790
X549699Y1140805
X543880Y1143747
X542834Y1150182
X546091Y1157013
X496570Y1159510
X499880Y1150620
X514350Y1132840
X509940Y1125220
X496888Y1187767
X604370Y1179830
X653620Y1171780
X658890Y1151940
X666750Y1145540
X661430Y1090562
X682171Y1071560
X711200Y1065530
X732790Y1051560
X736600Y989330
X744220Y975360
X770890Y927100
X722630Y919480
X712050Y909320
X716280Y891540
X736600Y894080
X674370Y908050
X645160Y824230
X593090Y830580
X665280Y1012144
X668724Y1029404
X674370Y1043940
X697230Y1101090
X624500Y1117260
X965200Y1179830
X909320Y911860
X910590Y847090
X955040Y801370
X1016000Y858520
X1040340Y885190
X1040130Y927100
X1087120Y894080
X965200Y1205230
X958240Y1330350
X660400Y1210310
X624840Y1234440
X599440Y1207770
X588010Y1205230
X552450Y1202690
X529590Y1210310
X519430Y1196340
X497840Y1202690
X477520Y1212850
X367030Y1202690
X354530Y1223210
T04
X707770Y695960
X669290Y797560
X723900Y1084580
X722630Y1118870
X720370Y1152170
X690350Y1162790
X768350Y1182370
X975360Y1126490
X956450Y1055230
T05
X411480Y577850
X436880
X462280
X487680
X513080
X538480
X563880
X589280
X614680
X640080
X665480
X690880
X716280
X741680
X386080
X360680
X335280
X309880
X284480
X259080
X233680
X208280
X182880
X157480
X132080
X106680
X81280
T06
X74930Y628650
X207010Y774700
X261240Y969390
X361290Y956970
X318770Y1024890
X313690Y1129030
X235330Y1143380
X189230Y1065530
X450850Y1024890
X432790Y956590
X532130Y876300
Y852170
X753110Y891540
X632460Y1039710
X609600Y1066970
X652780Y1075690
X515620Y1168400
X433070Y1160780
X821690Y1308100
X967610Y1304290
X906780Y1418590
X770890Y1440180
X768350Y1305560
X544540Y1314160
X510540Y1258570
X469900Y1259840
X403860Y1215390
X576580Y1227750
X553720Y1433830
X535940
Y1450340
X552450
X518160
Y1433830
X500380
Y1450340
X483870
X468630
X467360Y1433830
X482600
X321310Y1290320
X193040Y1239520
T07
X336000Y1185114
T08
X1050290Y1323340
Y1348740
Y1374140
Y1399540
T09
X567690Y797560
X593090
X618490
X643890
T10
X383540Y1424940
T11
X90530Y629170
X135530
Y694170
X90530
X91800Y794270
X136800
Y859270
X91800
T12
X1203960Y609430
X1228960
X1253960
X1178960
X1153960
X871120Y1094740
X795120
X1031240Y1323340
T13
X535940Y623570
X586740
T14
X251790Y783590
T15
X1144270Y1213840
T16
X1283970Y737000
Y787000
X115570Y982110
Y1032110
X118110Y1153560
X1287780Y1145540
Y1095540
X1283970Y948290
Y898290
X1287780Y1195540
X118110Y1203560
X121920Y1325010
Y1375010
T17
X1084270Y1071840
X1204270
Y1193840
X1084270
T18
X451790Y783590
M30
