G04*
G04 #@! TF.GenerationSoftware,Altium Limited,Altium Designer,25.2.1 (25)*
G04*
G04 Layer_Color=255*
%FSLAX44Y44*%
%MOMM*%
G71*
G04*
G04 #@! TF.SameCoordinates,E3D469A8-3601-4E52-BDEA-DD632D880B34*
G04*
G04*
G04 #@! TF.FilePolarity,Positive*
G04*
G01*
G75*
%ADD125R,0.9850X0.9850*%
%ADD126C,0.9850*%
%ADD127C,1.1628*%
%ADD128R,1.1628X1.1628*%
%ADD129R,1.3700X1.3700*%
%ADD130C,1.3700*%
%ADD131C,1.5080*%
%ADD132R,1.5080X1.5080*%
%ADD133C,2.2500*%
%ADD134C,1.7550*%
%ADD135C,1.9500*%
G04:AMPARAMS|DCode=136|XSize=1.95mm|YSize=1.95mm|CornerRadius=0.4875mm|HoleSize=0mm|Usage=FLASHONLY|Rotation=90.000|XOffset=0mm|YOffset=0mm|HoleType=Round|Shape=RoundedRectangle|*
%AMROUNDEDRECTD136*
21,1,1.9500,0.9750,0,0,90.0*
21,1,0.9750,1.9500,0,0,90.0*
1,1,0.9750,0.4875,0.4875*
1,1,0.9750,0.4875,-0.4875*
1,1,0.9750,-0.4875,-0.4875*
1,1,0.9750,-0.4875,0.4875*
%
%ADD136ROUNDEDRECTD136*%
%ADD137R,1.4980X1.4980*%
%ADD138C,1.4980*%
%ADD139R,2.5000X2.5000*%
%ADD140C,2.5000*%
%ADD141R,1.9800X1.9800*%
%ADD142C,1.9350*%
%ADD143C,1.9800*%
%ADD144C,1.3080*%
%ADD145C,3.0000*%
D125*
X81280Y577850D02*
D03*
D126*
X106680D02*
D03*
X132080D02*
D03*
X157480D02*
D03*
X182880D02*
D03*
X208280D02*
D03*
X233680D02*
D03*
X259080D02*
D03*
X284480D02*
D03*
X309880D02*
D03*
X335280D02*
D03*
X360680D02*
D03*
X386080D02*
D03*
X411480D02*
D03*
X436880D02*
D03*
X462280D02*
D03*
X487680D02*
D03*
X513080D02*
D03*
X538480D02*
D03*
X563880D02*
D03*
X589280D02*
D03*
X614680D02*
D03*
X640080D02*
D03*
X665480D02*
D03*
X690880D02*
D03*
X716280D02*
D03*
X741680D02*
D03*
D127*
X567690Y797560D02*
D03*
X593090D02*
D03*
X618490D02*
D03*
D128*
X643890D02*
D03*
D129*
X535940Y623570D02*
D03*
D130*
X586740D02*
D03*
D131*
X1203960Y609430D02*
D03*
X1178960D02*
D03*
X1228960D02*
D03*
X1153960D02*
D03*
D132*
X1253960D02*
D03*
D133*
X451790Y783590D02*
D03*
D134*
X251790D02*
D03*
D135*
X1287780Y1145540D02*
D03*
Y1195540D02*
D03*
X121920Y1325010D02*
D03*
X1283970Y948290D02*
D03*
X118110Y1153560D02*
D03*
X1283970Y787000D02*
D03*
X115570Y982110D02*
D03*
D136*
X1287780Y1095540D02*
D03*
X121920Y1375010D02*
D03*
X1283970Y898290D02*
D03*
X118110Y1203560D02*
D03*
X1283970Y737000D02*
D03*
X115570Y1032110D02*
D03*
D137*
X136800Y859270D02*
D03*
X135530Y694170D02*
D03*
D138*
X136800Y794270D02*
D03*
X91800Y859270D02*
D03*
Y794270D02*
D03*
X135530Y629170D02*
D03*
X90530Y694170D02*
D03*
Y629170D02*
D03*
D139*
X795120Y1094740D02*
D03*
D140*
X871120D02*
D03*
D141*
X1204270Y1193840D02*
D03*
D142*
X1144270Y1213840D02*
D03*
D143*
X1084270Y1193840D02*
D03*
Y1071840D02*
D03*
X1204270D02*
D03*
D144*
X1050290Y1399540D02*
D03*
Y1374140D02*
D03*
Y1348740D02*
D03*
Y1323340D02*
D03*
D145*
X1297940Y1361440D02*
D03*
M02*
