G04*
G04 #@! TF.GenerationSoftware,Altium Limited,Altium Designer,25.2.1 (25)*
G04*
G04 Layer_Color=32768*
%FSLAX44Y44*%
%MOMM*%
G71*
G04*
G04 #@! TF.SameCoordinates,E3D469A8-3601-4E52-BDEA-DD632D880B34*
G04*
G04*
G04 #@! TF.FilePolarity,Positive*
G04*
G01*
G75*
%ADD155C,0.1000*%
D155*
X1246280Y1070540D02*
Y1220540D01*
X1329280Y1070540D02*
Y1220540D01*
X1246280D02*
X1329280D01*
X1252530Y1064540D02*
X1259030D01*
X1257780Y1070540D02*
X1259030Y1064540D01*
X1252530D02*
X1253780Y1070540D01*
X1246280D02*
X1253780D01*
X1316530Y1064540D02*
X1323030D01*
X1321780Y1070540D02*
X1323030Y1064540D01*
X1316530D02*
X1317780Y1070540D01*
X1321780D02*
X1329280D01*
X1257780D02*
X1317780D01*
X91920Y1400010D02*
X151920D01*
X80420D02*
X87920D01*
X91920D02*
X93170Y1406010D01*
X86670D02*
X87920Y1400010D01*
X86670Y1406010D02*
X93170D01*
X155920Y1400010D02*
X163420D01*
X155920D02*
X157170Y1406010D01*
X150670D02*
X151920Y1400010D01*
X150670Y1406010D02*
X157170D01*
X80420Y1300010D02*
X163420D01*
X80420D02*
Y1400010D01*
X163420Y1300010D02*
Y1400010D01*
X1253970Y873290D02*
X1313970D01*
X1317970D02*
X1325470D01*
X1312720Y867290D02*
X1313970Y873290D01*
X1317970D02*
X1319220Y867290D01*
X1312720D02*
X1319220D01*
X1242470Y873290D02*
X1249970D01*
X1248720Y867290D02*
X1249970Y873290D01*
X1253970D02*
X1255220Y867290D01*
X1248720D02*
X1255220D01*
X1242470Y973290D02*
X1325470D01*
Y873290D02*
Y973290D01*
X1242470Y873290D02*
Y973290D01*
X88110Y1228560D02*
X148110D01*
X76610D02*
X84110D01*
X88110D02*
X89360Y1234560D01*
X82860D02*
X84110Y1228560D01*
X82860Y1234560D02*
X89360D01*
X152110Y1228560D02*
X159610D01*
X152110D02*
X153360Y1234560D01*
X146860D02*
X148110Y1228560D01*
X146860Y1234560D02*
X153360D01*
X76610Y1128560D02*
X159610D01*
X76610D02*
Y1228560D01*
X159610Y1128560D02*
Y1228560D01*
X1253970Y712000D02*
X1313970D01*
X1317970D02*
X1325470D01*
X1312720Y706000D02*
X1313970Y712000D01*
X1317970D02*
X1319220Y706000D01*
X1312720D02*
X1319220D01*
X1242470Y712000D02*
X1249970D01*
X1248720Y706000D02*
X1249970Y712000D01*
X1253970D02*
X1255220Y706000D01*
X1248720D02*
X1255220D01*
X1242470Y812000D02*
X1325470D01*
Y712000D02*
Y812000D01*
X1242470Y712000D02*
Y812000D01*
X85570Y1057110D02*
X145570D01*
X74070D02*
X81570D01*
X85570D02*
X86820Y1063110D01*
X80320D02*
X81570Y1057110D01*
X80320Y1063110D02*
X86820D01*
X149570Y1057110D02*
X157070D01*
X149570D02*
X150820Y1063110D01*
X144320D02*
X145570Y1057110D01*
X144320Y1063110D02*
X150820D01*
X74070Y957110D02*
X157070D01*
X74070D02*
Y1057110D01*
X157070Y957110D02*
Y1057110D01*
M02*
