G04*
G04 #@! TF.GenerationSoftware,Altium Limited,Altium Designer,25.2.1 (25)*
G04*
G04 Layer_Color=16711935*
%FSLAX44Y44*%
%MOMM*%
G71*
G04*
G04 #@! TF.SameCoordinates,E3D469A8-3601-4E52-BDEA-DD632D880B34*
G04*
G04*
G04 #@! TF.FilePolarity,Positive*
G04*
G01*
G75*
%ADD154C,0.0500*%
%ADD155C,0.1000*%
D154*
X844550Y825580D02*
Y835580D01*
X839550Y830580D02*
X849550D01*
X843280Y887810D02*
Y897810D01*
X838280Y892810D02*
X848280D01*
X844270Y755730D02*
Y765730D01*
X839270Y760730D02*
X849270D01*
X1018540Y1023700D02*
Y1033700D01*
X1013540Y1028700D02*
X1023540D01*
X941070Y1409780D02*
Y1419780D01*
X936070Y1414780D02*
X946070D01*
D155*
X1287780Y1140540D02*
Y1150540D01*
X1282780Y1145540D02*
X1292780D01*
X116920Y1350010D02*
X126920D01*
X121920Y1345010D02*
Y1355010D01*
X1278970Y923290D02*
X1288970D01*
X1283970Y918290D02*
Y928290D01*
X113110Y1178560D02*
X123110D01*
X118110Y1173560D02*
Y1183560D01*
X1278970Y762000D02*
X1288970D01*
X1283970Y757000D02*
Y767000D01*
X110570Y1007110D02*
X120570D01*
X115570Y1002110D02*
Y1012110D01*
M02*
