G04*
G04 #@! TF.GenerationSoftware,Altium Limited,Altium Designer,25.2.1 (25)*
G04*
G04 Layer_Color=255*
%FSLAX44Y44*%
%MOMM*%
G71*
G04*
G04 #@! TF.SameCoordinates,E3D469A8-3601-4E52-BDEA-DD632D880B34*
G04*
G04*
G04 #@! TF.FilePolarity,Positive*
G04*
G01*
G75*
%ADD18R,1.2000X1.2000*%
%ADD19R,0.4000X0.8000*%
%ADD20R,0.8000X0.4000*%
%ADD21R,0.8000X0.8000*%
%ADD22R,0.7000X0.9000*%
%ADD23R,1.3500X1.1500*%
%ADD24R,1.6000X2.8000*%
%ADD25R,1.3000X1.4000*%
G04:AMPARAMS|DCode=26|XSize=1.41mm|YSize=1.47mm|CornerRadius=0.1763mm|HoleSize=0mm|Usage=FLASHONLY|Rotation=0.000|XOffset=0mm|YOffset=0mm|HoleType=Round|Shape=RoundedRectangle|*
%AMROUNDEDRECTD26*
21,1,1.4100,1.1175,0,0,0.0*
21,1,1.0575,1.4700,0,0,0.0*
1,1,0.3525,0.5288,-0.5587*
1,1,0.3525,-0.5288,-0.5587*
1,1,0.3525,-0.5288,0.5587*
1,1,0.3525,0.5288,0.5587*
%
%ADD26ROUNDEDRECTD26*%
%ADD27R,1.1500X1.3500*%
G04:AMPARAMS|DCode=28|XSize=1.57mm|YSize=0.41mm|CornerRadius=0.0513mm|HoleSize=0mm|Usage=FLASHONLY|Rotation=270.000|XOffset=0mm|YOffset=0mm|HoleType=Round|Shape=RoundedRectangle|*
%AMROUNDEDRECTD28*
21,1,1.5700,0.3075,0,0,270.0*
21,1,1.4675,0.4100,0,0,270.0*
1,1,0.1025,-0.1538,-0.7338*
1,1,0.1025,-0.1538,0.7338*
1,1,0.1025,0.1538,0.7338*
1,1,0.1025,0.1538,-0.7338*
%
%ADD28ROUNDEDRECTD28*%
%ADD29R,0.9900X3.7900*%
%ADD30R,1.6000X2.4000*%
%ADD31R,2.2000X0.6000*%
%ADD32R,1.4000X1.3000*%
G04:AMPARAMS|DCode=33|XSize=0.28mm|YSize=1.56mm|CornerRadius=0.07mm|HoleSize=0mm|Usage=FLASHONLY|Rotation=90.000|XOffset=0mm|YOffset=0mm|HoleType=Round|Shape=RoundedRectangle|*
%AMROUNDEDRECTD33*
21,1,0.2800,1.4200,0,0,90.0*
21,1,0.1400,1.5600,0,0,90.0*
1,1,0.1400,0.7100,0.0700*
1,1,0.1400,0.7100,-0.0700*
1,1,0.1400,-0.7100,-0.0700*
1,1,0.1400,-0.7100,0.0700*
%
%ADD33ROUNDEDRECTD33*%
G04:AMPARAMS|DCode=34|XSize=0.28mm|YSize=1.56mm|CornerRadius=0.07mm|HoleSize=0mm|Usage=FLASHONLY|Rotation=0.000|XOffset=0mm|YOffset=0mm|HoleType=Round|Shape=RoundedRectangle|*
%AMROUNDEDRECTD34*
21,1,0.2800,1.4200,0,0,0.0*
21,1,0.1400,1.5600,0,0,0.0*
1,1,0.1400,0.0700,-0.7100*
1,1,0.1400,-0.0700,-0.7100*
1,1,0.1400,-0.0700,0.7100*
1,1,0.1400,0.0700,0.7100*
%
%ADD34ROUNDEDRECTD34*%
G04:AMPARAMS|DCode=35|XSize=1.31mm|YSize=0.93mm|CornerRadius=0.0698mm|HoleSize=0mm|Usage=FLASHONLY|Rotation=270.000|XOffset=0mm|YOffset=0mm|HoleType=Round|Shape=RoundedRectangle|*
%AMROUNDEDRECTD35*
21,1,1.3100,0.7905,0,0,270.0*
21,1,1.1705,0.9300,0,0,270.0*
1,1,0.1395,-0.3953,-0.5853*
1,1,0.1395,-0.3953,0.5853*
1,1,0.1395,0.3953,0.5853*
1,1,0.1395,0.3953,-0.5853*
%
%ADD35ROUNDEDRECTD35*%
G04:AMPARAMS|DCode=36|XSize=1.31mm|YSize=3.24mm|CornerRadius=0.0983mm|HoleSize=0mm|Usage=FLASHONLY|Rotation=270.000|XOffset=0mm|YOffset=0mm|HoleType=Round|Shape=RoundedRectangle|*
%AMROUNDEDRECTD36*
21,1,1.3100,3.0435,0,0,270.0*
21,1,1.1135,3.2400,0,0,270.0*
1,1,0.1965,-1.5218,-0.5568*
1,1,0.1965,-1.5218,0.5568*
1,1,0.1965,1.5218,0.5568*
1,1,0.1965,1.5218,-0.5568*
%
%ADD36ROUNDEDRECTD36*%
%ADD37R,1.8000X1.3000*%
%ADD38R,2.1200X2.2800*%
%ADD39R,1.3000X1.8000*%
%ADD40R,2.4000X2.0000*%
%ADD41R,0.7500X1.4000*%
%ADD42R,0.7900X0.2800*%
%ADD43R,0.2800X0.7900*%
%ADD44R,1.2000X0.9000*%
%ADD45R,1.0800X1.0900*%
%ADD46R,1.2000X1.2000*%
%ADD47R,5.4000X2.9000*%
%ADD48R,5.6134X2.3114*%
%ADD49R,2.0000X4.0000*%
G04:AMPARAMS|DCode=50|XSize=1.41mm|YSize=1.47mm|CornerRadius=0.1763mm|HoleSize=0mm|Usage=FLASHONLY|Rotation=90.000|XOffset=0mm|YOffset=0mm|HoleType=Round|Shape=RoundedRectangle|*
%AMROUNDEDRECTD50*
21,1,1.4100,1.1175,0,0,90.0*
21,1,1.0575,1.4700,0,0,90.0*
1,1,0.3525,0.5587,0.5288*
1,1,0.3525,0.5587,-0.5288*
1,1,0.3525,-0.5587,-0.5288*
1,1,0.3525,-0.5587,0.5288*
%
%ADD50ROUNDEDRECTD50*%
%ADD51R,0.9000X0.7000*%
%ADD116R,0.4000X0.4000*%
%ADD117R,10.8400X7.8800*%
%ADD125R,0.9850X0.9850*%
%ADD126C,0.9850*%
%ADD127C,1.1628*%
%ADD128R,1.1628X1.1628*%
%ADD129R,1.3700X1.3700*%
%ADD130C,1.3700*%
%ADD131C,1.5080*%
%ADD132R,1.5080X1.5080*%
%ADD133C,2.2500*%
%ADD134C,1.7550*%
%ADD135C,1.9500*%
G04:AMPARAMS|DCode=136|XSize=1.95mm|YSize=1.95mm|CornerRadius=0.4875mm|HoleSize=0mm|Usage=FLASHONLY|Rotation=90.000|XOffset=0mm|YOffset=0mm|HoleType=Round|Shape=RoundedRectangle|*
%AMROUNDEDRECTD136*
21,1,1.9500,0.9750,0,0,90.0*
21,1,0.9750,1.9500,0,0,90.0*
1,1,0.9750,0.4875,0.4875*
1,1,0.9750,0.4875,-0.4875*
1,1,0.9750,-0.4875,-0.4875*
1,1,0.9750,-0.4875,0.4875*
%
%ADD136ROUNDEDRECTD136*%
%ADD137R,1.4980X1.4980*%
%ADD138C,1.4980*%
%ADD139R,2.5000X2.5000*%
%ADD140C,2.5000*%
%ADD141R,1.9800X1.9800*%
%ADD142C,1.9350*%
%ADD143C,1.9800*%
%ADD144C,1.3080*%
%ADD145C,3.0000*%
D18*
X961380Y618480D02*
D03*
Y634980D02*
D03*
X944880D02*
D03*
X928380D02*
D03*
Y618480D02*
D03*
Y601980D02*
D03*
X944880D02*
D03*
Y618480D02*
D03*
X1034110Y1192530D02*
D03*
X846480Y1201420D02*
D03*
D19*
X1004380Y548480D02*
D03*
X995880D02*
D03*
X987380D02*
D03*
X978880D02*
D03*
X970380D02*
D03*
X961880D02*
D03*
X953380D02*
D03*
X944880D02*
D03*
X936380D02*
D03*
X927880D02*
D03*
X919380D02*
D03*
X910880D02*
D03*
X902380D02*
D03*
X893880D02*
D03*
X885380D02*
D03*
Y688480D02*
D03*
X893880D02*
D03*
X902380D02*
D03*
X910880D02*
D03*
X919380D02*
D03*
X927880D02*
D03*
X936380D02*
D03*
X944880D02*
D03*
X953380D02*
D03*
X961880D02*
D03*
X970380D02*
D03*
X978880D02*
D03*
X987380D02*
D03*
X995880D02*
D03*
X1004380D02*
D03*
D20*
X874880Y558980D02*
D03*
Y567480D02*
D03*
Y575980D02*
D03*
Y584480D02*
D03*
Y592980D02*
D03*
Y601480D02*
D03*
Y609980D02*
D03*
Y618480D02*
D03*
Y626980D02*
D03*
Y635480D02*
D03*
Y643980D02*
D03*
Y652480D02*
D03*
Y660980D02*
D03*
Y669480D02*
D03*
Y677980D02*
D03*
X1014880D02*
D03*
Y669480D02*
D03*
Y660980D02*
D03*
Y652480D02*
D03*
Y643980D02*
D03*
Y635480D02*
D03*
Y626980D02*
D03*
Y618480D02*
D03*
Y609980D02*
D03*
Y601480D02*
D03*
Y592980D02*
D03*
Y584480D02*
D03*
Y575980D02*
D03*
Y567480D02*
D03*
Y558980D02*
D03*
D21*
X874880Y688480D02*
D03*
Y548480D02*
D03*
X1014880Y688480D02*
D03*
Y548480D02*
D03*
D22*
X915670Y882040D02*
D03*
X909170Y901040D02*
D03*
X922170D02*
D03*
X919480Y748690D02*
D03*
X912980Y767690D02*
D03*
X925980D02*
D03*
X916940Y818540D02*
D03*
X910440Y837540D02*
D03*
X923440D02*
D03*
X1035200Y1145490D02*
D03*
X1041700Y1126490D02*
D03*
X1028700D02*
D03*
X1004570Y1090270D02*
D03*
X1011070Y1071270D02*
D03*
X998070D02*
D03*
X943610Y1349350D02*
D03*
X950110Y1330350D02*
D03*
X937110D02*
D03*
D23*
X885190Y900290D02*
D03*
Y882790D02*
D03*
X886460Y836790D02*
D03*
Y819290D02*
D03*
Y767080D02*
D03*
Y749580D02*
D03*
X1036320Y1073430D02*
D03*
Y1090930D02*
D03*
X605790Y1238250D02*
D03*
Y1220750D02*
D03*
X1024890Y1374280D02*
D03*
Y1391780D02*
D03*
X250190Y1144130D02*
D03*
Y1126630D02*
D03*
X248920Y970140D02*
D03*
Y952640D02*
D03*
X532130Y909180D02*
D03*
Y891680D02*
D03*
D24*
X753110Y700950D02*
D03*
Y657950D02*
D03*
D25*
X686560Y695960D02*
D03*
X670560D02*
D03*
X686180Y657860D02*
D03*
X670180D02*
D03*
X1056260Y575310D02*
D03*
X1072260D02*
D03*
X1056260Y613410D02*
D03*
X1072260D02*
D03*
X390270Y1215390D02*
D03*
X374270D02*
D03*
X423290Y1160780D02*
D03*
X407290D02*
D03*
X783210Y1305560D02*
D03*
X799210D02*
D03*
X883030Y1388110D02*
D03*
X867030D02*
D03*
D26*
X1201660Y939800D02*
D03*
Y914400D02*
D03*
X1104660D02*
D03*
Y939800D02*
D03*
X1103390Y791210D02*
D03*
Y765810D02*
D03*
X1200390D02*
D03*
Y791210D02*
D03*
D27*
X629780Y735330D02*
D03*
X612280D02*
D03*
X629780Y694690D02*
D03*
X612280D02*
D03*
X955040Y886460D02*
D03*
X972540D02*
D03*
X1023340Y885190D02*
D03*
X1005840D02*
D03*
X955180Y830580D02*
D03*
X972680D02*
D03*
X1023480Y829310D02*
D03*
X1005980D02*
D03*
X1103490Y730250D02*
D03*
X1085990D02*
D03*
X955180Y764540D02*
D03*
X972680D02*
D03*
X1023480D02*
D03*
X1005980D02*
D03*
X1087260Y876300D02*
D03*
X1104760D02*
D03*
X110210Y905510D02*
D03*
X92710D02*
D03*
X561340Y866140D02*
D03*
X578840D02*
D03*
X721640Y1203960D02*
D03*
X739140D02*
D03*
X737870Y1167130D02*
D03*
X720370D02*
D03*
X1004430Y1126490D02*
D03*
X986930D02*
D03*
X987070Y1163320D02*
D03*
X1004570D02*
D03*
X956450Y1096010D02*
D03*
X973950D02*
D03*
X956450Y1070610D02*
D03*
X973950D02*
D03*
X107950Y745490D02*
D03*
X90450D02*
D03*
X956170Y1376680D02*
D03*
X938670D02*
D03*
X954760Y1304290D02*
D03*
X937260D02*
D03*
X936130Y1277620D02*
D03*
X953630D02*
D03*
X250330Y1223010D02*
D03*
X267830D02*
D03*
X250190Y1049020D02*
D03*
X267690D02*
D03*
D28*
X582820Y719580D02*
D03*
X576320D02*
D03*
X569820D02*
D03*
X563320D02*
D03*
X556820D02*
D03*
X550320D02*
D03*
X543820D02*
D03*
X537320D02*
D03*
Y662180D02*
D03*
X543820D02*
D03*
X550320D02*
D03*
X556820D02*
D03*
X563320D02*
D03*
X569820D02*
D03*
X576320D02*
D03*
X582820D02*
D03*
D29*
X544540Y1286010D02*
D03*
X527540D02*
D03*
X510540D02*
D03*
X493540D02*
D03*
X476540D02*
D03*
D30*
X858800Y830580D02*
D03*
X830300D02*
D03*
X857530Y892810D02*
D03*
X829030D02*
D03*
X858520Y760730D02*
D03*
X830020D02*
D03*
X1004290Y1028700D02*
D03*
X1032790D02*
D03*
X955320Y1414780D02*
D03*
X926820D02*
D03*
D31*
X655600Y908050D02*
D03*
X563600Y933450D02*
D03*
X655600Y895350D02*
D03*
Y920750D02*
D03*
Y933450D02*
D03*
X563600Y920750D02*
D03*
Y946150D02*
D03*
Y958850D02*
D03*
X655600D02*
D03*
X563600Y984250D02*
D03*
X655600Y946150D02*
D03*
Y971550D02*
D03*
X563600D02*
D03*
X655600Y984250D02*
D03*
X563600Y908050D02*
D03*
Y895350D02*
D03*
D32*
X347980Y958470D02*
D03*
Y974470D02*
D03*
X334010Y1025400D02*
D03*
Y1041400D02*
D03*
X436880Y1025780D02*
D03*
Y1041780D02*
D03*
X421640Y958090D02*
D03*
Y974090D02*
D03*
X369570Y1115950D02*
D03*
Y1131950D02*
D03*
X327660Y1129920D02*
D03*
Y1145920D02*
D03*
D33*
X560070Y1176650D02*
D03*
Y1171650D02*
D03*
Y1166650D02*
D03*
Y1161650D02*
D03*
Y1156650D02*
D03*
Y1151650D02*
D03*
Y1146650D02*
D03*
Y1141650D02*
D03*
Y1136650D02*
D03*
Y1131650D02*
D03*
Y1126650D02*
D03*
Y1121650D02*
D03*
X643670D02*
D03*
Y1126650D02*
D03*
Y1131650D02*
D03*
Y1136650D02*
D03*
Y1141650D02*
D03*
Y1146650D02*
D03*
Y1151650D02*
D03*
Y1156650D02*
D03*
Y1161650D02*
D03*
Y1166650D02*
D03*
Y1171650D02*
D03*
Y1176650D02*
D03*
D34*
X574370Y1107350D02*
D03*
X579370D02*
D03*
X584370D02*
D03*
X589370D02*
D03*
X594370D02*
D03*
X599370D02*
D03*
X604370D02*
D03*
X609370D02*
D03*
X614370D02*
D03*
X619370D02*
D03*
X624370D02*
D03*
X629370D02*
D03*
Y1190950D02*
D03*
X624370D02*
D03*
X619370D02*
D03*
X614370D02*
D03*
X609370D02*
D03*
X604370D02*
D03*
X599370D02*
D03*
X594370D02*
D03*
X589370D02*
D03*
X584370D02*
D03*
X579370D02*
D03*
X574370D02*
D03*
D35*
X890310Y1363140D02*
D03*
X867410D02*
D03*
X844510D02*
D03*
D36*
X867410Y1296240D02*
D03*
D37*
X300990Y1289790D02*
D03*
Y1318790D02*
D03*
X530860Y1168930D02*
D03*
Y1139930D02*
D03*
X674370Y1162790D02*
D03*
Y1191790D02*
D03*
D38*
X300990Y1351220D02*
D03*
Y1394520D02*
D03*
D39*
X712260Y1118870D02*
D03*
X683260D02*
D03*
X713530Y1084580D02*
D03*
X684530D02*
D03*
X575840Y1219200D02*
D03*
X546840D02*
D03*
X609070Y1079500D02*
D03*
X638070D02*
D03*
X770890Y1418590D02*
D03*
X799890D02*
D03*
X770890Y1380490D02*
D03*
X799890D02*
D03*
X771630Y1341120D02*
D03*
X800630D02*
D03*
X893870Y1418590D02*
D03*
X864870D02*
D03*
D40*
X364810Y1041780D02*
D03*
X404810D02*
D03*
D41*
X376290Y974090D02*
D03*
X390790D02*
D03*
D42*
X347330Y1185980D02*
D03*
Y1180980D02*
D03*
Y1175980D02*
D03*
Y1170980D02*
D03*
Y1165980D02*
D03*
Y1160980D02*
D03*
X386730D02*
D03*
Y1165980D02*
D03*
Y1170980D02*
D03*
Y1175980D02*
D03*
Y1180980D02*
D03*
Y1185980D02*
D03*
D43*
X354530Y1153780D02*
D03*
X359530D02*
D03*
X364530D02*
D03*
X369530D02*
D03*
X374530D02*
D03*
X379530D02*
D03*
Y1193180D02*
D03*
X374530D02*
D03*
X369530D02*
D03*
X364530D02*
D03*
X359530D02*
D03*
X354530D02*
D03*
D44*
X445770Y1154090D02*
D03*
Y1175090D02*
D03*
D45*
X493520Y1240790D02*
D03*
X525020D02*
D03*
D46*
X1005510Y1192530D02*
D03*
X817880Y1201420D02*
D03*
D47*
X668020Y1314210D02*
D03*
Y1411210D02*
D03*
D48*
X220980Y1320546D02*
D03*
Y1394714D02*
D03*
D49*
X383540Y1319590D02*
D03*
Y1390590D02*
D03*
D50*
X193040Y1127520D02*
D03*
X218440D02*
D03*
Y1224520D02*
D03*
X193040D02*
D03*
X189230Y952500D02*
D03*
X214630D02*
D03*
Y1049500D02*
D03*
X189230D02*
D03*
D51*
X788010Y1197610D02*
D03*
X769010Y1191110D02*
D03*
Y1204110D02*
D03*
D116*
X961380Y601980D02*
D03*
D117*
X510540Y1393510D02*
D03*
D125*
X81280Y577850D02*
D03*
D126*
X106680D02*
D03*
X132080D02*
D03*
X157480D02*
D03*
X182880D02*
D03*
X208280D02*
D03*
X233680D02*
D03*
X259080D02*
D03*
X284480D02*
D03*
X309880D02*
D03*
X335280D02*
D03*
X360680D02*
D03*
X386080D02*
D03*
X411480D02*
D03*
X436880D02*
D03*
X462280D02*
D03*
X487680D02*
D03*
X513080D02*
D03*
X538480D02*
D03*
X563880D02*
D03*
X589280D02*
D03*
X614680D02*
D03*
X640080D02*
D03*
X665480D02*
D03*
X690880D02*
D03*
X716280D02*
D03*
X741680D02*
D03*
D127*
X567690Y797560D02*
D03*
X593090D02*
D03*
X618490D02*
D03*
D128*
X643890D02*
D03*
D129*
X535940Y623570D02*
D03*
D130*
X586740D02*
D03*
D131*
X1203960Y609430D02*
D03*
X1178960D02*
D03*
X1228960D02*
D03*
X1153960D02*
D03*
D132*
X1253960D02*
D03*
D133*
X451790Y783590D02*
D03*
D134*
X251790D02*
D03*
D135*
X1287780Y1145540D02*
D03*
Y1195540D02*
D03*
X121920Y1325010D02*
D03*
X1283970Y948290D02*
D03*
X118110Y1153560D02*
D03*
X1283970Y787000D02*
D03*
X115570Y982110D02*
D03*
D136*
X1287780Y1095540D02*
D03*
X121920Y1375010D02*
D03*
X1283970Y898290D02*
D03*
X118110Y1203560D02*
D03*
X1283970Y737000D02*
D03*
X115570Y1032110D02*
D03*
D137*
X136800Y859270D02*
D03*
X135530Y694170D02*
D03*
D138*
X136800Y794270D02*
D03*
X91800Y859270D02*
D03*
Y794270D02*
D03*
X135530Y629170D02*
D03*
X90530Y694170D02*
D03*
Y629170D02*
D03*
D139*
X795120Y1094740D02*
D03*
D140*
X871120D02*
D03*
D141*
X1204270Y1193840D02*
D03*
D142*
X1144270Y1213840D02*
D03*
D143*
X1084270Y1193840D02*
D03*
Y1071840D02*
D03*
X1204270D02*
D03*
D144*
X1050290Y1399540D02*
D03*
Y1374140D02*
D03*
Y1348740D02*
D03*
Y1323340D02*
D03*
D145*
X1297940Y1361440D02*
D03*
M02*
